<?xml version="1.0" standalone="no"?>
<!DOCTYPE svg PUBLIC "-//W3C//DTD SVG 20010904//EN"
 "http://www.w3.org/TR/2001/REC-SVG-20010904/DTD/svg10.dtd">
<svg version="1.0" xmlns="http://www.w3.org/2000/svg"
 width="60.000000pt" height="60.000000pt" viewBox="0 0 60.000000 60.000000"
 preserveAspectRatio="xMidYMid meet">
<metadata>
Created by potrace 1.16, written by Peter Selinger 2001-2019
</metadata>
<g transform="translate(0.000000,60.000000) scale(0.100000,-0.100000)"
fill="#000000" stroke="none">
<path d="M203 564 c-59 -22 -128 -86 -157 -149 -87 -182 50 -395 254 -395 254
0 378 315 191 483 -82 73 -188 96 -288 61z m192 -108 c19 -8 41 -28 49 -45 19
-36 21 -145 3 -181 -17 -34 -72 -60 -126 -60 -32 0 -51 -6 -67 -21 -25 -23
-44 -18 -44 11 0 11 -9 24 -20 30 -32 17 -50 64 -50 130 0 74 20 117 63 135
42 19 149 19 192 1z"/>
<path d="M199 411 c-26 -27 -29 -36 -29 -95 0 -53 4 -70 20 -86 11 -11 25 -20
30 -20 6 0 10 -14 10 -32 l0 -32 28 27 c20 20 39 27 66 27 77 0 110 36 110
120 0 93 -32 120 -139 120 -60 0 -69 -3 -96 -29z"/>
</g>
</svg>
