<svg xmlns="http://www.w3.org/2000/svg">
<defs>
<font id="UTMOngDoGia" horiz-adv-x="669" >
  <font-face 
    font-family="UTM Ong Do Gia"
    font-weight="400"
    font-stretch="normal"
    units-per-em="2048"
    panose-1="2 4 6 3 5 5 6 2 2 4"
    ascent="1638"
    descent="-410"
    x-height="557"
    cap-height="1184"
    bbox="-5660 -950 4942 2045"
    underline-thickness="109"
    underline-position="-143"
    unicode-range="U+0020-U+2026"
  />
<missing-glyph horiz-adv-x="5040" 
d="M3351 2045h10q37 -10 37 -52q0 -12 -32 -57h-28q0 24 28 54l2 10q-5 13 -10 15h-9q-8 0 -10 -19h-30q6 49 42 49zM2019 2016l29 -31q0 -16 -40 -30h-19l-59 12l-11 -12l-28 25q11 29 43 29h11l42 -11h2q10 0 30 18zM468 1980h142v-60h-94v-75h89v-59h-89v-129l-5 -5h-49
v323zM1155 1980h43l6 -5v-78h30v-52h-30v-188l-6 -5h-49v193h-25v52h25v78zM1621 1980h42l4 -5v-94h3q23 24 54 24h2q58 0 83 -71l2 -39v-143h-52v115q0 80 -42 80h-7q-43 0 -43 -86v-109h-51v323zM2200 1980h49l5 -5v-222q10 -51 45 -51q44 7 44 59v214l5 5h49v-216
q0 -85 -66 -112q-15 -8 -35 -8q-47 0 -82 55q-14 24 -14 57v224zM2435 1980h159v-60h-56v-268h-53v268h-55v55zM2621 1980h71q7 -4 83 -251h2l80 251h73v-328h-54v242h-2l-74 -242h-44q-4 0 -58 182l-19 60h-3v-242h-55v328zM3760 1980h52v-328h-45l-5 5v11l3 2l-3 14
q-29 -40 -78 -40q-67 0 -100 91l-5 39v3q0 94 92 125l23 3q35 0 63 -32h3v107zM2057 1928h36l4 -6v-49h-45v-221h-48v23q-23 -31 -59 -31q-89 14 -89 97v156h51v-104q0 -79 26 -86l18 -5h6q26 0 39 36l3 26v133h53v25zM3476 1928v-55h-31v-221h-47v25h-2q-15 -33 -57 -33
q-68 0 -86 78l-3 29v146h52v-120q0 -50 19 -68l21 -7h9q42 0 42 69v126h27q4 0 4 28l3 3h49zM758 1905q68 0 103 -77q9 -18 12 -54q0 -88 -90 -127l-32 -3q-63 0 -101 73q-12 22 -12 52v10q0 94 101 126h19zM1011 1905h3q74 0 83 -101v-152h-51v119q0 76 -42 76h-5
q-44 0 -44 -76v-119h-52v245h46v-21q30 29 62 29zM1466 1905h7q72 0 105 -89h-60q-16 31 -42 31h-17q-53 -14 -53 -61l-3 -15q12 -69 61 -69h9q22 0 47 27h40l2 3h3l2 -3l2 3l3 -3l2 3l2 -7q-33 -81 -110 -81q-76 0 -110 94l-4 36v3q0 85 77 120q15 8 37 8zM3141 1905h2

<glyph glyph-name=".notdef" horiz-adv-x="5040" 
d="M3351 2045h10q37 -10 37 -52q0 -12 -32 -57h-28q0 24 28 54l2 10q-5 13 -10 15h-9q-8 0 -10 -19h-30q6 49 42 49zM2019 2016l29 -31q0 -16 -40 -30h-19l-59 12l-11 -12l-28 25q11 29 43 29h11l42 -11h2q10 0 30 18zM468 1980h142v-60h-94v-75h89v-59h-89v-129l-5 -5h-49
v323zM1155 1980h43l6 -5v-78h30v-52h-30v-188l-6 -5h-49v193h-25v52h25v78zM1621 1980h42l4 -5v-94h3q23 24 54 24h2q58 0 83 -71l2 -39v-143h-52v115q0 80 -42 80h-7q-43 0 -43 -86v-109h-51v323zM2200 1980h49l5 -5v-222q10 -51 45 -51q44 7 44 59v214l5 5h49v-216
q0 -85 -66 -112q-15 -8 -35 -8q-47 0 -82 55q-14 24 -14 57v224zM2435 1980h159v-60h-56v-268h-53v268h-55v55zM2621 1980h71q7 -4 83 -251h2l80 251h73v-328h-54v242h-2l-74 -242h-44q-4 0 -58 182l-19 60h-3v-242h-55v328zM3760 1980h52v-328h-45l-5 5v11l3 2l-3 14
q-29 -40 -78 -40q-67 0 -100 91l-5 39v3q0 94 92 125l23 3q35 0 63 -32h3v107zM2057 1928h36l4 -6v-49h-45v-221h-48v23q-23 -31 -59 -31q-89 14 -89 97v156h51v-104q0 -79 26 -86l18 -5h6q26 0 39 36l3 26v133h53v25zM3476 1928v-55h-31v-221h-47v25h-2q-15 -33 -57 -33
q-68 0 -86 78l-3 29v146h52v-120q0 -50 19 -68l21 -7h9q42 0 42 69v126h27q4 0 4 28l3 3h49zM758 1905q68 0 103 -77q9 -18 12 -54q0 -88 -90 -127l-32 -3q-63 0 -101 73q-12 22 -12 52v10q0 94 101 126h19zM1011 1905h3q74 0 83 -101v-152h-51v119q0 76 -42 76h-5
q-44 0 -44 -76v-119h-52v245h46v-21q30 29 62 29zM1466 1905h7q72 0 105 -89h-60q-16 31 -42 31h-17q-53 -14 -53 -61l-3 -15q12 -69 61 -69h9q22 0 47 27h40l2 3h3l2 -3l2 3l3 -3l2 3l2 -7q-33 -81 -110 -81q-76 0 -110 94l-4 36v3q0 85 77 120q15 8 37 8zM3141 1905h2
q49 0 70 -60v-14h-52q0 16 -16 16h-4q-14 0 -19 -13v-13q0 -9 68 -35q30 -19 30 -59q0 -58 -61 -80l-23 -3q-76 12 -76 83h54q0 -20 27 -25h4q19 0 24 23q0 22 -68 44q-34 27 -34 59q0 66 74 77zM4203 1905q55 0 77 -63q7 -18 7 -65v-125h-52v112q0 83 -40 83h-11
q-33 0 -40 -54v-141h-52v5h-2l2 2v238h47v-21q25 29 64 29zM4432 1905h5q40 0 69 -40v18l-3 3l3 11h47v-208q0 -97 -85 -132l-33 -4h-7q-70 0 -104 80h59q24 -22 45 -23h13q22 0 43 22q15 13 22 52h-3q-32 -40 -73 -40q-57 0 -96 70q-10 18 -14 63q0 88 87 125zM3851 1897
h53v-136q6 -59 40 -59h7q46 0 46 93v102h51v-245h-47l-3 10h3l-3 3v5l3 2v3h-4q0 -23 -57 -31h-3q-59 0 -84 75l-2 85v93zM690 1771q10 -69 63 -69h7q59 14 59 65v15q-13 65 -59 65h-5q-58 0 -65 -76zM3630 1774q13 -72 61 -72h5q58 0 66 75q0 49 -51 70h-22q-37 0 -56 -57z
M4374 1774q8 -72 65 -72h5q59 12 59 72q0 61 -59 73h-14q-56 -16 -56 -62v-11zM3928 1620h52v-57h-52v57zM1054 1402q43 -11 43 -49v-4q0 -17 -32 -60h-28q0 25 31 57v7q0 12 -7 15h-12q-10 -4 -10 -19h-28v6q0 32 33 44zM3349 1339q92 0 138 -99h-60q-37 42 -80 42
q-55 0 -87 -68q-10 -22 -10 -47q0 -78 81 -110l18 -1q36 0 75 39h61q-44 -97 -138 -97q-93 0 -141 112q-10 31 -10 62q0 97 90 152q29 15 63 15zM3664 1339q57 0 103 -47q46 -51 46 -115v-20q0 -89 -91 -146q-33 -13 -63 -13q-89 0 -138 101q-13 33 -13 60v18q0 98 98 151
q29 11 58 11zM2261 1337h2l47 -11h3q11 0 26 11l18 -36q-18 -19 -35 -19h-3l-54 10l-20 -7l-20 36q18 16 36 16zM716 1334h19q118 0 129 -26q25 -26 25 -62q-10 -57 -30 -57v-6q47 -23 47 -66v-18q0 -63 -69 -88l-54 -5h-67v328zM2550 1334h53v-217q6 -61 45 -61q29 0 44 39
l3 30v203l4 6h45l5 -6v-171q0 -118 -40 -133q-24 -26 -64 -26q-55 0 -91 76l-4 54v206zM2805 1334h59q4 0 122 -237h4v237h50l4 -6v-322h-58q-29 48 -125 238h-3v-238h-53v328zM3101 1334h54v-328h-54v328zM3859 1334h8q155 0 174 -40q23 -11 47 -75l4 -36v-11l3 -2
q0 -94 -82 -149q-35 -15 -99 -15h-55v328zM4141 1334h153v-60h-103v-75h101v-57h-101v-74l4 -5h99v-57h-157v322zM3563 1175v-10q0 -76 79 -108l19 -1q68 0 96 86l3 20v15q0 61 -60 94q-12 8 -39 11q-66 0 -96 -83zM770 1274v-67h9q54 0 54 28l3 14q-11 25 -29 25h-37z
M3912 1274v-206l2 -3v-2q104 0 122 76l2 15v29q0 34 -32 68q-25 23 -78 23h-16zM1041 1259h5q38 0 71 -40v32h49v-245h-49v32q-36 -40 -80 -40q-75 0 -101 97l-5 36q0 89 85 125zM1314 1259h3q74 0 83 -102v-151h-51v128q0 67 -42 67h-10q-34 0 -39 -62v-133h-52v245h47v-21
q28 29 61 29zM1543 1259h5q45 0 71 -40v32h47v-219q0 -95 -104 -126h-16q-74 0 -108 82h59q26 -25 44 -25h14q52 0 64 77q-33 -42 -76 -42q-60 0 -101 81l-7 44v16q0 79 85 117zM1912 1259h2q43 0 61 -37h2q32 37 69 37h4q57 0 79 -55q8 -25 8 -45v-153h-52v138q0 44 -23 55
l-12 2h-15q-32 0 -36 -65v-130h-52v136q0 59 -43 59h-8q-32 0 -36 -57v-138h-54v245h50v-21h2q6 24 54 29zM2282 1259q47 0 75 -42v34h47v-245h-47v32q-36 -40 -78 -40q-74 0 -102 92l-6 41q0 90 85 125zM985 1117q0 -48 61 -61h4q45 0 62 46l3 15v22q-12 62 -57 62h-14
q-41 0 -59 -57v-27zM1487 1128q0 -48 43 -68l18 -4h5q47 0 63 57v23q-11 65 -58 65h-12q-50 0 -59 -73zM2225 1131v-14q15 -61 57 -61h14q58 12 58 64v11q0 45 -37 65l-18 5h-10q-64 -8 -64 -70zM770 1150v-82q0 -5 7 -5q77 0 77 45q0 34 -47 42h-37zM2966 753l24 -28
l-51 -55q-18 12 -27 26zM1524 727l85 -54q0 -15 -21 -42l-87 54q18 41 23 42zM2850 693h38l55 -60h-54l-21 26l-23 -26h-54q54 60 59 60zM3422 693h40l56 -60h-54l-24 26h-1q0 -5 -19 -26h-54zM622 685h52q8 -4 47 -137l34 -110q9 8 34 100l48 147h54v-2l-112 -326h-44z
M1159 685h51v-54h-51v54zM1354 685h46l6 -5v-323h-52v328zM2317 685h45l4 -5v-78h31v-52h-31v-193h-53v193h-26v52h26v78zM2425 685h52v-98h2q23 23 54 23h3q57 0 81 -71l3 -38v-144h-52v115q0 81 -39 81h-10q-42 0 -42 -87v-109h-52v328zM2664 685h52v-54h-52v54zM3028 685
h44l6 -5v-78h29v-52h-29v-193h-54v193h-27v52h27v78zM3234 685h52v-328h-52v328zM3957 685h52v-328h-52v328zM4316 685h51v-54h-51v54zM1555 610h5q83 0 110 -102l3 -23v-11q0 -83 -85 -120l-35 -5q-76 0 -111 97l-4 32q0 97 93 130zM1811 610h4q53 0 78 -60q7 -25 7 -81
v-112h-54v146q-7 50 -37 50h-10q-38 0 -42 -57v-139h-54v245h49v-21q26 29 59 29zM2046 610h4q45 0 63 -39h3v31h49v-206q0 -102 -89 -135l-28 -3h-5q-73 0 -106 81h52l37 -20l15 -3h14q50 0 61 72q-33 -39 -73 -39q-62 0 -98 76q-11 23 -12 60q0 85 86 123zM2866 610h2
q82 0 111 -104l2 -25l-2 -27h-172q15 -45 45 -45l14 -3q29 0 49 22h57v-3q-35 -76 -108 -76q-77 0 -111 97l-1 28v8q0 49 32 89q34 39 82 39zM3429 610h5q41 0 70 -39h2v31h47v-245h-47v31h-2q-35 -39 -77 -39q-71 0 -101 89l-5 36v14q0 86 84 120zM3711 610h7
q88 0 107 -128l-2 -1v-15q0 -65 -66 -106q-21 -11 -46 -11q-34 0 -64 32v-99l-5 -5h-49v325h49v-28q31 36 69 36zM4151 610q44 0 75 -39v31h49v-245h-49v31q-35 -39 -77 -39q-92 0 -108 132q0 84 73 121q15 8 37 8zM922 602h50v-136q3 -60 42 -60h5q44 0 44 87v109h52v-245
h-47v24h-5q0 -23 -56 -32h-3q-55 0 -82 68q-4 35 -4 99v81zM1159 602h51v-245h-51v245zM2664 602h52v-245h-52v245zM4316 602h51v-245h-51v245zM1492 488v-16q13 -66 59 -66h4q59 0 66 76q-13 71 -59 71h-11q-59 -16 -59 -65zM1987 472q15 -66 59 -66h11q48 0 59 75v1
q-13 71 -59 71h-14q-39 0 -56 -57v-24zM2805 506h122v2q-16 45 -59 45h-7q-35 0 -56 -47zM3373 474q13 -68 61 -68h5q52 0 65 63v12q-10 72 -57 72h-16q-56 -14 -56 -63zM3642 478q12 -72 61 -72h3q50 0 65 60v22q0 43 -49 65h-22q-47 0 -58 -72v-3zM4095 472q10 -66 66 -66
q43 0 61 48l2 15v16q0 54 -52 68h-18q-42 0 -59 -60v-21zM3416 321h51v-52h-51v52zM4137 321h51v-52h-51v52zM2733 133h4q35 0 43 -50v-2q0 -16 -24 -41l-10 -17h-28q0 25 28 56l3 2v2q-3 19 -9 19h-10q-8 0 -9 -19h-30q6 50 42 50zM1546 116l52 -60l-26 -19l-52 52zM352 79
h4q75 -48 85 -60l-20 -37q-88 49 -88 58zM3490 79l86 -58l-18 -39q-10 0 -91 55q15 36 23 42zM4578 76l19 -42l-91 -52l-20 39l92 58v-3zM1204 53h51v-19l5 -5h14v-36h-14l-5 -5v-279h-46v31q-34 -40 -81 -40q-72 0 -102 105l-3 26q0 102 101 131h14q33 0 66 -33v59l-6 5
h-43v36h49v24zM1480 45h40l56 -61h-53l-23 27l-23 -27h-53zM2641 45h33q12 0 63 -61h-54l-23 27q-19 -21 -19 -27h-58v4zM49 37h160v-60h-56v-268h-50l-4 5v245l2 3v2l-2 2l2 3l-2 2l2 3l-2 3h-54v54zM699 37h47v-73l2 -2l-2 -3v-3l2 -2l-2 -3v-3l2 -2v-2l-2 -3l2 -3h3
q17 24 51 24h3q53 0 77 -58q7 -17 7 -42v-153h-52v127q0 68 -40 68h-8q-43 0 -43 -86v-109h-52v322zM1297 37h47l5 -6v-49h-52v55zM1987 37h52v-198l70 115h62l-78 -118l90 -125v-2h-70q-10 22 -74 115v-115h-52v328zM2271 37v-99q24 24 53 24q57 0 80 -56q10 -19 10 -77
v-120h-54v133q0 62 -41 62h-11q-31 0 -37 -55v-140h-53v314l-1 3v3l1 2l-1 3l1 3h53zM2458 37h51v-55h-51v55zM3148 37h51v-108q27 33 68 33h3q75 0 105 -94l5 -37q0 -75 -64 -120q-30 -11 -49 -11q-41 0 -72 40v-31h-47v328zM4275 37h52v-99h2q23 24 54 24h3q60 0 82 -74
l2 -41v-138h-52v111q0 82 -32 82l-10 2h-12q-37 0 -37 -80v-115h-52v328zM329 -38h3v-58h-5q-42 0 -42 -57v-138h-53v245h47v-21q18 29 50 29zM564 -38q71 0 86 -87v-166h-51v136q-6 59 -41 59h-6q-45 0 -45 -84v-111h-52v245h50v-21q25 29 59 29zM1504 -38q72 0 105 -94
l5 -39q-2 -24 -7 -24h-169q17 -47 62 -47q24 0 48 21h57q-33 -79 -108 -79q-82 0 -113 105v37q0 81 89 117zM2657 -38h5q77 0 107 -97l3 -26v-21l-3 -13h-170q18 -47 53 -47h12q21 0 42 21h59q-34 -79 -105 -79q-84 0 -115 102l-2 29q0 93 91 128zM2915 -38h4q54 0 78 -60
q7 -25 7 -82v-111h-54v138q0 48 -35 57h-11q-38 0 -43 -57v-138h-54v245h50v-21q25 29 58 29zM3508 -38h6q40 0 70 -40h2v32h47v-245h-47v31h-2q-34 -40 -78 -40q-71 0 -101 90l-4 37v12q0 82 77 117q11 6 30 6zM3781 -38h4q62 0 82 -78l3 -84v-91h-54v138q0 48 -38 57h-9
q-38 0 -42 -52v-143h-54v245h49v-21q26 29 59 29zM4133 -38h1q74 0 104 -93l4 -40q0 -88 -84 -126l-25 -3q-41 0 -68 34v-106h-52v326h47v-29q30 37 73 37zM4714 -38h5q34 0 63 -37q27 37 69 37h6q56 0 79 -66l6 -51v-136h-52v122q0 73 -39 73h-7q-35 0 -41 -50v-140l-5 -5
h-48v140q0 42 -31 55h-17q-40 0 -40 -77v-118h-51v245h47v-21q22 29 56 29zM359 -46h49l5 -6v-234l-5 -5h-49v245zM1297 -46h52v-245h-52v245zM1649 -46h52v-136q4 -60 43 -60h4q44 0 44 81v115h52v-245h-47v24h-5q-12 -33 -59 -33q-52 0 -79 63q-5 12 -5 34v157zM2458 -46
h51v-245h-51v245zM4515 -46h51v-245h-51v245zM1077 -169q0 -53 51 -73h12q54 0 66 66v10q0 53 -54 70h-17q-38 0 -58 -57v-16zM1438 -143h122q-18 47 -53 47h-7q-43 0 -62 -44v-3zM2599 -143h122q-21 47 -54 47h-7q-46 0 -61 -47zM3196 -158v-11q10 -73 61 -73h5q64 8 64 71
v5q0 45 -38 65l-18 5h-14q-60 -14 -60 -62zM3452 -173q14 -69 62 -69h11q41 0 59 60v13q-8 73 -56 73h-17q-47 0 -59 -73v-4zM4062 -158v-22q0 -47 59 -62h9q50 0 61 76q-13 70 -58 70h-15q-56 -17 -56 -62z" />
    <glyph glyph-name=".null" horiz-adv-x="0" 
 />
    <glyph glyph-name="nonmarkingreturn" horiz-adv-x="571" 
 />
    <glyph glyph-name="space" unicode=" " horiz-adv-x="452" 
 />
    <glyph glyph-name="exclam" unicode="!" horiz-adv-x="800" 
d="M633 1174q0 -5 -4.5 -20t-4.5 -17q0 -68 -18 -117q-49 -131 -74 -348l-18 -160q8 -45 8 -76q0 -61 -31 -61q-28 0 -61 31.5t-33 54.5v10q25 -10 25 2l-13 174q-2 66 -22 221q-19 17 -19 21q0 2 4.5 14t4.5 31q0 2 -4.5 11t-4.5 16q0 26 -9 65t-9 59l20 99q21 71 58 100
q31 25 69 25q5 0 16 -3t27 -3q33 0 74 -60q19 -37 19 -69zM610 66q0 -43 -32.5 -70t-69.5 -27q-31 11 -68 -2q-27 0 -76 42t-49 67q0 57 -6 71q0 21 39 50.5t47 27.5t25.5 2t15.5 4q41 0 102 -41q72 -45 72 -94v-30z" />
    <glyph glyph-name="quotedbl" unicode="&#x22;" horiz-adv-x="501" 
d="M461 1196q-4 -47 -43 -201q-8 -32 -17 -63q-12 -41 -32 -55q-9 -9 -11 45q-8 36 -2 39q0 45 -18 151q-2 25 -12 70q-15 28 -15 59q0 43 47 80q9 6 23 6q47 0 72 -41q16 -29 8 -90zM238 1196q-7 -47 -44 -201l-16 -63q-12 -41 -31 -55q-12 -11 -12 45q0 -4 -4 22
q-2 14 4 17q-2 45 -18 151q-2 25 -13 70q-16 30 -16 57q0 45 47 82q10 8 45 2q33 -8 39 -16.5t12 -20.5q15 -24 7 -90z" />
    <glyph glyph-name="numbersign" unicode="#" horiz-adv-x="1009" 
d="M971 707q0 -52 -12.5 -59t-30.5 -9q-105 -6 -207 -6q-13 -68 -43 -178q24 4 76 12q86 20 106 -10l4 -4q16 -35 -14 -54q-19 -12 -35 -12q-31 -2 -154 -2l-37 -172q-8 -39 -14 -80q-14 -51 -37 -57q-37 -10 -69 26q-6 7 1 37.5t5 38.5q4 41 31 148l18 49q-8 -2 -23 -2
q-32 -4 -100 -11.5l-102 -11.5q-2 -8 -6 -22l-33 -111q-10 -39 -23 -76q-18 -51 -41 -55q-24 -4 -43.5 16.5t-23.5 49.5q0 18 -2 51q4 16 2 28q0 27 26 54q15 12 31 51q-20 -6 -47 -8q-123 -15 -102 -15q-35 0 -46 17q-20 30 3 73q8 17 106 17q57 10 131 14q21 51 70 158
q-39 0 -58 -2q-135 -15 -139 -8q-24 30 0 73q4 9 36 12t38 7q125 22 149 22h17q20 52 35 107q4 26 12 55t43 35l4 4q37 0 43 -37q2 -18 -4 -37q-19 -41 -55 -127q73 2 211 4q18 64 24 104t12 58q11 33 35 39l4 4q37 4 45 -33q4 -12 0 -36q-14 -43 -45 -131q80 4 123 14
q90 12 105 -12zM643 623q-74 -7 -223 -25l-56 -160q150 4 220 8l30.5 90.5t28.5 86.5z" />
    <glyph glyph-name="dollar" unicode="$" horiz-adv-x="1024" 
d="M954 25q-41 -123 -408 -123l-6 -17q0 -37 11 -102q12 -80 14 -102q4 -37 -6 -80q-13 -60 -41 -60q-72 0 -84 84q-19 127 -31 281q0 4 -80 24.5t-125 20.5q-37 0 -106 29q-76 32 -64 53q56 2 158 -10q111 -13 158 -13q57 0 57 23q0 26 -10 262q-2 33 -34 44l-62 21
l-113 67t-103 85q-20 25 -30 72q-4 39 -10 78q14 49 30 100q29 45 183 133q139 78 145 121q2 16 2 43q0 22 -5 76.5t-5 78.5q0 52 24.5 92t73.5 40t66 -52q8 -41 18 -84q-4 -6 -11 -69.5t-7 -77.5q0 -41 16 -41q4 0 22.5 4t30.5 4q115 0 187 -45q86 -55 86 -164
q0 -110 -82 -172q-72 -55 -187 -55q-26 0 -65 10q-47 14 -47 33q2 8 12 8q8 2 20 0q17 -2 19 -2q59 0 111.5 31t52.5 86q0 47 -44 73.5t-94 26.5q-55 0 -69 -49q-6 -20 -6 -98q0 -51 -13.5 -155.5t-13.5 -158.5q0 -22 125 -82q166 -77 229 -122q121 -84 111 -170zM403 768
q0 57 -25 57q-36 0 -90.5 -43t-54.5 -80q0 -110 150 -243q10 0 10 24q10 256 10 285zM788 119q0 22 -129 89.5t-166 74.5v-68q0 -195 47 -195q51 0 140 27q108 33 108 72z" />
    <glyph glyph-name="percent" unicode="%" horiz-adv-x="1157" 
d="M1163 1122q0 -57 -28 -90q-7 -6 -80 -61q-51 -31 -144 -105q-47 -47 -142 -169t-134 -183q-27 -41 -137 -229q-45 -76 -78 -174q-94 -281 -170 -281q-47 0 -74 45q-22 39 -22 88q0 90 114 223q58 68 142 193q98 147 135 194q100 123 286 379q-75 -37 -167 -94
q-13 -14 -21 -43q-8 -37 -14 -47q-27 -53 -99 -115q-75 -67 -129 -69q-10 4 -12 0q-6 -6 -20 -6q-123 0 -179.5 42t-93.5 156q-10 33 -10 45q0 101 125 189q117 80 223 80q43 0 98 -43q50 -13 93 -52q20 -14 30.5 -39.5t14.5 -25.5q12 0 113.5 59.5t117.5 75.5q8 8 57 102
q33 68 93 68q39 0 75.5 -37t36.5 -76zM1020 262q0 -24 -15.5 -67t-31.5 -62q-2 -41 -86 -102.5t-127 -63.5q-66 13 -129 23q-99 33 -119 176q0 90 47 133q0 14 10 39q31 39 95 88q71 57 108 57q84 0 111 -88l12 2l82 -37q43 -30 43 -98zM430 862q0 23 -31 23
q-28 0 -72 -20.5t-57 -45.5v-20l23 -11q6 0 15 11.5t14 13.5l-3 -20q35 10 73 22t38 47zM471 774l-59 -12q-37 -12 -142 -37q0 -35 70 -35q29 0 76 29t55 55zM879 221q0 51 -37 51q-13 0 -37.5 -19.5t-42.5 -19.5q-10 0 -23 7q-20 0 -43.5 -37t-23.5 -60q0 -61 65 -61
q45 0 93.5 48t48.5 91z" />
    <glyph glyph-name="ampersand" unicode="&#x26;" horiz-adv-x="813" 
d="M841 -283q-20 -69 -53 -106q-190 -215 -401 -215q-45 0 -86 12q-109 31 -109 109q0 12 4 24q25 84 62 140q-13 -23 -13 -60q0 -84 60 -84q39 0 104 35q56 31 76 49q141 137 182 281q6 18 6 45q0 137 -106 229l-55 -123q-47 -84 -113 -102q-39 -10 -76 -10q-20 0 -123 16
q-41 14 -98 57q-88 66 -88 219q0 82 25 164q14 52 57 125q35 41 74 94q2 7 -53.5 116.5t-55.5 182.5q0 27 6 50q27 94 230 118q51 7 204 7q68 2 148 0q82 -25 82 -91q0 -10 -2 -20q-15 -51 -234 -193.5t-225 -167.5q-8 -28 123 -169q61 -66 168 -158q6 8 51 162
q37 133 72 122q55 -14 55 -88q0 -30 -26.5 -82.5t-49.5 -52.5q-10 0 -12 15q-2 12 -29 -43l-28 -62q116 -108 187 -235t71 -236q0 -39 -11 -74zM528 909q-20 52 -115 80q-32 10 -88 10q-133 0 -155 -75q-2 -9 -2 -25q0 -51 20 -125q25 -80 49 -96zM520 227l-209 211
q-33 45 -102 121q-115 -129 -115 -227q0 -76 57 -133q64 -64 162 -64q78 0 147 41q46 27 60 51z" />
    <glyph glyph-name="quotesingle" unicode="'" horiz-adv-x="284" 
d="M237 1196q-4 -47 -43 -201q-6 -16 -10 -49q-2 -8 -15 -35.5t-22 -33.5q-12 -11 -12 45q0 -4 -4 22q-2 14 4 17q-2 45 -18 151q-2 25 -13 70q-14 28 -14 57q0 31 14.5 48.5t30.5 33.5q12 8 45 2q33 -8 39 -16.5t12 -20.5q15 -24 6 -90z" />
    <glyph glyph-name="parenleft" unicode="(" horiz-adv-x="593" 
d="M524 -121q-2 -12 -2 -33q-7 -12 -31 -18q-41 -8 -125 74q-70 69 -117 141q-98 152 -119 373q-2 110 -6 239q-10 84 76 416q12 62 57 174q29 49 62 70l90 28q100 17 108 -69q5 -37 -23 -74l-54 -72q-15 -20 -27 -67q-14 -55 -20 -70q-109 -229 -97 -620q2 -68 11 -111
q24 -125 79 -213q33 -53 90 -108q46 -43 48 -60z" />
    <glyph glyph-name="parenright" unicode=")" horiz-adv-x="679" 
d="M532 518q-7 -250 -119 -602q-19 -59 -56 -115q-28 -45 -43 -53q-20 -12 -43 -12q-43 0 -77.5 38t-34.5 83q0 57 55 190q66 168 68 174q69 254 69 494q0 108 -14 221q-8 68 -80 313q-37 129 -121 129q-20 0 -41 -10q-2 4 -14 12q6 29 31.5 42.5t54.5 13.5q78 0 162 -93
q67 -71 106 -157q45 -103 76 -318q25 -178 21 -350z" />
    <glyph glyph-name="asterisk" unicode="*" horiz-adv-x="471" 
d="M454 1167q-94 -12 -151 -41l32 -151l-88 125q-22 -21 -64 -87.5t-69 -92.5q0 10 2 29.5t2 24.5t70 132q-4 2 -8 2t-35 -7t-35 -7q-51 0 -51 41q0 39 49 43q60 6 66 10q-35 20 -35 53q0 47 39 47q26 0 42.5 -22.5t31.5 -46.5h10l45 57q49 57 69 57q15 0 29 -11t14 -26
q0 -24 -45 -61l-51 -39q45 -2 131 -29z" />
    <glyph glyph-name="plus" unicode="+" horiz-adv-x="960" 
d="M888 530q-202 -63 -391 -90q-10 0 -20 -28q-37 -107 -37 -146q0 23 -21 -106q-26 80 -30 139q-4 63 0 96q4 39 4 27q0 18 -15 18q-34 -2 -104 -2q-53 4 -80 15q-45 18 -84 51q-49 43 -49 84t41 41q4 0 46 -13.5t63 -15.5q30 0 122 -4q7 0 24 -6t23 -6q19 0 19 69
q0 80 -16 123q-7 15 -23 32t-16 30q0 49 57 49q74 0 119 -60q37 -51 37 -114q0 -21 -9.5 -76t-13.5 -66q29 -24 84 -30l92 -4t82 -5h49q23 0 47 -2z" />
    <glyph glyph-name="comma" unicode="," horiz-adv-x="514" 
d="M421 35q0 -137 -125 -262h-10q-39 -52 -41 -45q-70 -80 -127 -119l-2 8q0 2 58.5 123t58.5 182q0 58 -58.5 89.5t-58.5 62.5q0 55 59 88q52 28 111 28q135 0 135 -155z" />
    <glyph glyph-name="hyphen" unicode="-" horiz-adv-x="770" 
d="M614 276q0 -16 -21.5 -26t-37.5 -10q-6 0 -35 4q-23 4 -49 0q-49 -11 -150 -29l-65 -2q-43 -2 -81 30.5t-38 75.5q0 56 70 82l118 -18h25q2 0 57 -10q9 0 17 2h16q33 0 98 -31q76 -35 76 -68z" />
    <glyph glyph-name="hyphen" unicode="&#x2010;" horiz-adv-x="770" 
d="M614 276q0 -16 -21.5 -26t-37.5 -10q-6 0 -35 4q-23 4 -49 0q-49 -11 -150 -29l-65 -2q-43 -2 -81 30.5t-38 75.5q0 56 70 82l118 -18h25q2 0 57 -10q9 0 17 2h16q33 0 98 -31q76 -35 76 -68z" />
    <glyph glyph-name="period" unicode="." horiz-adv-x="393" 
d="M322 72q0 -43 -43 -68q-33 -18 -76 -18h-23q-28 4 -61 42t-33 68v19q29 86 76 94q22 4 37 0q20 -6 33.5 -4t72.5 -58q0 -8 8.5 -37.5t8.5 -37.5z" />
    <glyph glyph-name="slash" unicode="/" horiz-adv-x="874" 
d="M886 1339q4 -36 -8 -67l-133 -307l-70 -201q-55 -152 -157 -463l-64 -213q-20 -76 -43 -151q-35 -99 -82 -107t-85 34t-44 97q2 33 -6 96q8 31 6 58q0 53 53 102q25 23 60 102l223 502q119 275 152 406q8 53 18 106q18 64 86 74l10 6q76 0 84 -74z" />
    <glyph glyph-name="zero" unicode="0" horiz-adv-x="1034" 
d="M972 610q2 -108 -172 -362q-176 -262 -272 -271q-27 -22 -43 -14q-16 -10 -31 -6q-12 -6 -24 -2q-15 -6 -31 -2l-21 -4q-4 10 -12 4q-20 14 -63 35q-66 22 -135 159q-66 132 -64 211l2 123q16 41 55 123q41 70 233.5 185.5t276.5 115.5q56 0 99 -49q34 -41 34 -82
q0 -4 29 -4q62 0 103 -51q34 -45 36 -109zM800 500q0 63 -133 121q-116 49 -194 49q-74 0 -133 -205q-50 -168 -50 -272q0 -50 41 -94t90 -44q109 0 246 170q133 162 133 275z" />
    <glyph glyph-name="one" unicode="1" horiz-adv-x="761" 
d="M689 1112q0 -6 -4 -22q-2 -13 0 -25v-29l-94 -209q-49 -120 -70 -217l-55 -245q-33 -148 -35 -246q0 -41 14.5 -85t14.5 -65q0 -75 -72 -75q-63 0 -98 57q-29 47 -29 115q0 10 -14 27.5t-14 29.5q0 8 14 25.5t17 27.5t14.5 71.5t11.5 74.5q0 122 109 507l-3 13
q-73 -82 -108 -111q-74 -59 -137 -59q-43 0 -80 26.5t-37 67.5q0 65 78 94q106 39 117 49q53 56 110 74q45 16 49 31q-4 -8 -4 24q0 39 90 80q80 37 127 37q21 0 54.5 -13.5t33.5 -29.5z" />
    <glyph glyph-name="two" unicode="2" horiz-adv-x="1110" 
d="M1156 39q-12 -51 -75 -49q-54 8 -138 58t-129 63q-127 32 -233 32h-55q-43 0 -153 -119.5t-169 -119.5q-51 0 -80 36.5t-29 88.5q25 145 97 202q61 52 172 45q6 0 28 23q238 250 297 432q62 129 62 203q0 57 -37 57q-33 0 -85 -18.5l-106 -38.5q-61 -29 -81 -74
q-5 -10 -23 -22.5t-25 -18.5q-20 -24 -53 -83.5t-54.5 -84t-98.5 -24.5q-35 0 -54 14q-10 6 -41 41q-16 59 -16 70q0 22 12 45q17 32 19 41q-6 45 172 147q26 14 88 27l78 16q161 47 258 47q211 0 211 -153q0 -86 -47 -185l-68 -137l-45 -72q-37 -53 -55 -55q10 -6 10 -16
q-23 -25 -55 -78q-35 -60 -78 -109l6 -6q221 0 393 -96q152 -64 180 -129z" />
    <glyph glyph-name="three" unicode="3" horiz-adv-x="919" 
d="M860 223q0 -10 -10 -37q-53 -133 -119 -194q-79 -74 -211 -74q-86 0 -133 31l-102 86q-10 18 -29.5 77.5t-17.5 73.5q2 13 12 15q76 -64 148 -64q65 0 176 39q133 45 133 94q0 23 -55 31q-340 64 -338 64q-4 2 -13 4q-12 0 -48 -25t-58 -25q-25 0 -41 27t-16 55
q0 78 77 136q25 8 72 28q387 230 391 393q0 13 -10 19q-16 4 -72 4q-256 0 -294 -37t-105 -47q-64 -39 -103 -39q-106 0 -106 115q14 63 70 90q18 10 100 29q47 -9 70 -5q71 -10 86 -20q286 16 254 16q75 0 153 -22q107 -33 111 -90l2 -33q-6 -8 -7 -21.5t-8 -13.5
q-8 -51 -65 -92q-35 -88 -160 -215q-106 -109 -205 -174q13 -14 195 -45q106 -19 186 -58q88 -45 90 -96z" />
    <glyph glyph-name="four" unicode="4" horiz-adv-x="952" 
d="M993 461q0 -33 -45 -33q-164 25 -256 16q-22 0 -31 -102q-12 -66 -36 -164q-5 -24 -13 -69q2 -19 -4 -56q-2 -20 19 -96q2 -12 -31 -23q-64 11 -88 95q-19 57 -12 127q6 90 28 262l-6 16q-12 -2 -78 -4q-65 -2 -67 0q-76 4 -117 -33q-25 -35 -53.5 -70.5t-81.5 -35.5
q-31 0 -53.5 37t-22.5 69q0 52 8 70q12 31 66.5 96.5t77.5 65.5q16 -4 24 -8q55 45 149.5 173t108.5 177l6 22q-2 29 33 51q29 19 62 19q47 0 108.5 -74t61.5 -121q0 -63 -41 -317q-2 -14 57 -14q43 0 127 -23q100 -27 100 -53zM559 825q0 23 -12 31q-62 -63 -232 -305
q13 -14 68 -14h129q29 0 37 114q4 88 10 174z" />
    <glyph glyph-name="five" unicode="5" horiz-adv-x="890" 
d="M954 1020q0 -39 -64.5 -83t-107.5 -44q-17 0 -98 16q-31 -6 -41 -6q-37 0 -111 8q-115 0 -195 -73l-78 -47.5t-40 -79.5q0 -66 194 -142q187 -73 230 -98q108 -61 108 -145q0 -105 -204.5 -277t-317.5 -172q-51 0 -166 121q104 -12 102 -12q88 0 230.5 170t142.5 258
q0 39 -121 88q-176 71 -225 102q-121 76 -121 178q0 72 91 166t163 94q78 0 103 -69q26 6 196 76q146 59 180 51q37 12 41 12q109 0 109 -92z" />
    <glyph glyph-name="six" unicode="6" horiz-adv-x="960" 
d="M890 362q-25 -126 -228.5 -265.5t-338.5 -135.5q-2 2 -6 4q-3 0 -9 -4q-30 8 -94 23q-133 24 -133 213q0 139 129 327q98 144 238 275l133 159q78 89 182 89q31 0 60.5 -23t29.5 -53q0 -23 -27 -49q-43 -37 -43 -39q-18 -23 -71 -35q-68 -12 -115 -45l-20 10
q-103 -8 -269 -364q-43 -164 -43 -199q0 -2 2 -8v-11q58 25 263 150q155 92 206 84q144 -25 154 -103zM718 268q0 13 -68 35q-24 0 -75 -2q-37 -4 -168 -68.5t-131 -89.5q6 -51 47 -75q34 -21 75 -15q56 2 183 90q121 84 137 125z" />
    <glyph glyph-name="seven" unicode="7" horiz-adv-x="845" 
d="M851 1092q0 -23 -51 -66q-43 -37 -74 -51q-102 -31 -225 -363q-62 -163 -105 -344q-41 -172 -41 -250q3 -65 3 -131q6 -96 36 -88h11q8 2 11 2t38 17q22 10 39 10l2 -8q0 -29 -92 -88q-50 -72 -76 -64q-72 0 -111 70q-30 57 -30 135q0 94 126 496q119 374 179 503
q53 117 53 136q6 20 -59 20h-91q-6 0 -12 2q-96 -4 -127 -2q-10 0 -49 -8t-55 -8q-45 0 -80 27.5t-35 72.5q0 39 24.5 72t63.5 33q18 0 58 -14.5t57.5 -17.5t167.5 -14q59 -4 166 -12l94 15q51 0 108 -19q76 -25 76 -63z" />
    <glyph glyph-name="eight" unicode="8" horiz-adv-x="1069" 
d="M1087 725q0 -12 -18.5 -29.5t-33.5 -21.5q-141 -45 -317 -123q-205 -92 -246 -143q0 -9 196.5 -102t196.5 -154q0 -7 -20 -43l-113.5 -87.5t-134.5 -44.5q-59 5 -117 7q-92 8 -147 34q-158 76 -158 154q0 39 43 82q37 37 78 55q6 10 59 74q-217 139 -247 242l-45 69
q-27 43 -27 74q0 70 67.5 118t137.5 44q86 -6 82 -6q67 0 199 15t198 15l19.5 -9t33.5 -9q123 -45 123 -158q0 -18 -4 -39q16 -2 61.5 15.5t71.5 17.5q62 -2 62 -47zM810 709q-31 -4 -55 14q-31 -2 -82 30.5t-76 32.5l-31 15q-20 -2 -61 5t-59 7q-86 0 -144 -35
q-69 -41 -67 -121q0 -43 43 -108q92 -96 118 -105l29 2q90 86 309 205l50.5 25t25.5 33zM677 219v6q-68 37 -260 123l-30.5 -43.5t-16.5 -46.5q-2 -39 14.5 -49t57.5 -10h18q39 0 70 -4q149 0 147 24z" />
    <glyph glyph-name="nine" unicode="9" horiz-adv-x="860" 
d="M811 848q0 -6 -47 -111q-52 -112 -58 -129q-176 -491 -176 -647q0 -18 8.5 -52t8.5 -50q0 -68 -54 -68q-51 0 -69 47q-11 41 -21 84q0 4 -5 15.5t-5 17.5q0 -2 14 43l49 223l144 547l-4 6l-174 -119q-107 -65 -195 -84q-16 -16 -57 -16q-103 14 -117 150q0 108 152 233
l239 184q23 23 77 50.5t81 27.5q63 0 113 -31q57 -36 57 -94q0 -47 -44 -70.5t-95 -23.5q-15 0 -119 18q-31 -8 -60 -8q-84 0 -175 -104.5t-91 -188.5q0 -28 53 -28q93 0 328 180q-4 47 59 74q50 20 105 20q35 0 56.5 -29.5t21.5 -66.5z" />
    <glyph glyph-name="colon" unicode=":" horiz-adv-x="638" 
d="M399 606v-47q0 -16 -29.5 -48t-48.5 -32q-8 0 -25.5 2t-25.5 2q-27 -2 -57.5 36t-30.5 69q0 4 4 9t4 11q6 41 39 76t66 35q10 0 56 -23.5t46 -36t2 -28.5v-25zM420 123q0 -125 -97 -137q-30 -4 -43 -4q-35 0 -62.5 36.5t-27.5 69.5v37q0 43 51 70q41 22 88 22
q29 -4 60 -37t31 -57z" />
    <glyph glyph-name="semicolon" unicode=";" horiz-adv-x="452" 
d="M360 569q0 -43 -45 -67q-35 -19 -84 -19q-43 0 -75 42t-32 87q0 35 34 66t69 31q57 0 116 -64q17 -90 17 -76zM421 35q0 -137 -125 -262q-6 0 -28.5 -23.5t-22.5 -21.5q-70 -80 -127 -119l-2 8q0 2 58.5 123t58.5 182q0 58 -58.5 89.5t-58.5 62.5q0 55 59 88
q52 28 111 28q135 0 135 -155z" />
    <glyph glyph-name="less" unicode="&#x3c;" horiz-adv-x="727" 
d="M684 760q0 -43 -64 -111l-98 -92q-14 -14 -108 -72q-60 -36 -162 -104q0 -12 22 -27l131 -104q129 -111 129 -146q0 -34 -45 -34q-28 0 -71 39l-72 69q-66 58 -127 84q-129 57 -129 168t31 111q-4 0 24 -15l424 363q45 -10 80 -51t35 -78z" />
    <glyph glyph-name="equal" unicode="=" horiz-adv-x="1191" 
d="M1020 588q0 -19 -21.5 -33t-36.5 -14q-8 0 -27.5 5t-29.5 5q-100 2 -297 4q-74 -2 -115 -4q-82 -6 -106 -19q-45 -8 -133 -4q-17 -4 -33 -4q-47 0 -78 29q-37 31 -37 86q0 104 103 104q10 0 50 -10t54 -10q10 0 14 2q17 0 47.5 -9t47.5 -9q12 0 24 4q90 -21 125 -9
q6 -2 201 -2q26 9 96 9q49 0 100.5 -39t51.5 -82zM1022 285q0 -19 -20.5 -34t-37.5 -15q-20 4 -57 6q-100 -2 -295 -11q-356 -28 -375 -24q-26 -8 -51 -8q-78 0 -82 88q-6 104 98 110q11 0 48.5 -8t54.5 -8q12 0 18 4q39 0 66 -12q18 -2 98 0q78 2 80 4q27 0 174 4
q100 4 162 -2q115 -10 119 -94z" />
    <glyph glyph-name="greater" unicode="&#x3e;" horiz-adv-x="671" 
d="M626 410q0 -31 -16 -39q-27 -17 -56 -33q-51 -31 -145 -94q-25 -19 -57 -58q-47 -55 -60 -67q-37 -37 -129 -70q-12 -4 -43 -4q-16 0 -34.5 37t-18.5 55v49q16 -6 47 21l47 43q37 24 123 123q98 106 98 137t-131 119q-176 116 -176 209q0 20 11.5 40.5t29.5 20.5
q41 0 76 -27q55 -43 149 -172q91 -120 172 -176q113 -73 113 -114z" />
    <glyph glyph-name="question" unicode="?" horiz-adv-x="1075" 
d="M1007 1122q0 -82 -117 -233q-41 -82 -155 -201q-107 -88 -125 -104q-70 -62 -99 -101q50 -8 50 -55q0 -22 -31 -80q-14 -2 -48 -16.5t-52 -14.5q-52 0 -66 29q-10 19 -10 74q0 61 155 242q207 235 211 241q19 29 58 105q43 84 45 104q-2 6 -25 6q-176 -45 -256 -92
q-133 -74 -170 -201q-31 -104 -114 -104q-107 0 -146 135q-4 111 133 201q62 8 289 86q205 69 297 67q76 -2 111 -16q47 -18 65 -72zM600 55q0 -32 -32 -52.5t-67 -20.5q-104 0 -131 12q-47 20 -47 110q0 39 43 68q37 27 78 27l92 -45q64 -39 64 -70v-29z" />
    <glyph glyph-name="at" unicode="@" horiz-adv-x="2236" 
d="M2004 -16q-86 -60 -303 -142q-237 -90 -344 -90q-22 0 -37 4q-12 -2 -63 -8q-21 4 -25 4q-2 0 -18 -4q-14 6 -16 6q-3 0 -13 -6q-301 0 -551 218t-268 515q-2 33 -2 64q0 205 104 325q17 54 74 113l105 94q299 264 632 264q222 0 410 -163.5t188 -380.5t-165 -404
q-172 -192 -385 -192q-113 0 -207 72.5t-131 181.5q-115 -109 -123 -115q-82 -64 -154 -64q-33 0 -53.5 25t-20.5 57q0 115 207 312.5t326 197.5q53 0 92 -43t39 -98q0 -45 -46 -81t-93 -36q-2 0 -54 15q-24 -29 -24 -76q0 -100 75.5 -178t174.5 -78q157 0 278 153
q115 146 115 306q0 161 -152.5 303.5t-316.5 142.5h-115q-227 0 -461 -182q-245 -193 -245 -410v-74q0 -266 268 -481q244 -194 520 -217q49 -4 174 -4q181 0 594 154h10zM917 555h-14q-25 0 -82.5 -54.5t-59.5 -80.5l11 -14q34 2 90.5 58t54.5 91z" />
    <glyph glyph-name="A" unicode="A" horiz-adv-x="972" 
d="M1053 438q-31 -22 -96 -45q-80 -28 -99.5 -37.5t-19.5 -15.5q0 -78 109 -338q-2 -14 2 -44t4 -42q0 -16 -33 -43l-8 2q-14 -12 -51 -12q-13 0 -33 4l-2 59l-143 381q-80 -16 -283 -63q-64 -13 -162 -43q-20 -11 -57 -62l-2 -53q-35 -57 -58 -57q-53 0 -82.5 42t-23.5 89
q0 20 -37 94v25q0 34 35 69t69 35q39 55 95 197q49 133 86 174q12 39 75 139q5 31 29 82q8 0 14.5 15.5t16.5 17.5q117 28 124 26t11 19q35 125 102 118l23 -2q68 -18 94 -73l25 -70q-4 -22 6 -49q-6 -16 -2 -62q-8 -14 0 -41q2 -30 -4 -90q6 -14 6 -100q0 -51 16 -133
q19 -105 23 -133h16q-10 0 68 14q8 0 69 10q47 7 78 4v-8zM664 395q-2 17 -80 363h-8q-49 0 -184 -159t-135 -210q0 -20 79 -22h101q133 10 227 28z" />
    <glyph glyph-name="B" unicode="B" horiz-adv-x="1251" 
d="M1204 356q0 -28 -15 -63q-20 -41 -20 -45q-16 -66 -82 -176l-94 -146q-78 -94 -189 -94q-104 0 -104 113q0 65 29 131q37 82 92 76q22 8 22 -17q0 -16 19 -16q57 0 125 114q61 109 61 170q0 41 -102 58l-156 20q-10 -4 -39 2q-20 -8 -67 -59q-37 -43 -74 -43
q-39 0 -62 22q-32 31 -43 35v-67q0 -58 29 -170.5t29 -167.5q0 -51 -45 -51q-31 0 -53.5 18l-45.5 37q-43 61 -49 136t-8 149q-4 73 10 110q-4 62 4 86q11 123 45 356l5 33q0 6 -29 86q-55 -8 -78 -114q-4 -19 -47 -46.5t-61 -27.5q-9 0 -31 8q-19 6 -35 0q-41 6 -86 96
q6 58 23 82q26 33 53 64q82 45 188 45q64 0 187.5 26.5t187.5 26.5q16 0 49 -4q70 8 152 -23q94 -39 108 -102q0 -25 -8 -39q4 -14 -10 -39q-15 -31 -17 -43q-178 -252 -178 -293q0 -12 23 -22q33 -15 35 -17q36 -12 108 -30l6 2q62 -23 125 -43q62 -29 105 -80q8 -41 8 -64
zM837 1022q0 31 -94 31q-82 0 -152 -15q-2 -14 0 -37q5 -26 5 -34q0 -4 -38 -102.5t-46 -157.5l-4 -9l-5 -104q27 14 64 88q33 63 86 72q2 0 4 -2t4 -2q29 0 102.5 117.5t73.5 154.5z" />
    <glyph glyph-name="C" unicode="C" horiz-adv-x="833" 
d="M971 223q-56 -100 -203 -198q-156 -103 -264 -103q-76 0 -195 60q-12 24 -32.5 29t-28.5 14q-111 120 -144 198q-18 49 -47 221q-2 13 3 36.5t5 35.5q-8 31 -11 80t-9 74q2 8 27 43q18 28 22 94q0 10 24.5 35.5t30.5 42.5q150 119 287 116q84 -16 111 -24
q71 -21 138 -88.5t67 -130.5q0 -148 -138 -137l-41 22q9 12 9 23q0 10 -15 16q-20 8 -24 12q-97 -28 -168 -96q-82 -78 -82 -168q0 -16 6 -65q4 -41 2 -66q8 -10 8 -33q0 -80 62.5 -166t134.5 -96q6 2 20 0q17 -4 21 -4q88 0 221 78q119 69 195 149z" />
    <glyph glyph-name="D" unicode="D" horiz-adv-x="1036" 
d="M987 229q0 -131 -120 -213q-107 -71 -242 -71q-10 0 -31.5 5t-34.5 5q-32 20 -71 18q-23 4 -66 23q-20 -2 -51 8q2 14 123 47q149 41 221 84q117 68 117 170q0 109 -156 266q-151 150 -264 172q-29 -45 -49 -165q-17 -103 -17 -177q0 -141 9 -161q-3 -23 7.5 -62
t10.5 -57q0 -15 -10 -19q-21 -10 -23 -12q-92 8 -117 164q-4 22 -14 223q-12 264 -12 238q0 12 -10.5 40.5t-10.5 45.5q0 8 2 14q2 -10 2 31q0 43 -59 72q-86 38 -91 42.5t-40 75.5q0 51 4 63.5t37 53.5q33 16 72 16q45 0 41 -2q34 -16 79 -94q37 -67 91 -67q12 0 24 2
q33 -13 47 -19q13 -16 33 -53q16 -43 93 -98.5l155 -110.5q102 -76 182 -172q88 -102 98 -166q5 -20 25 -78q16 -49 16 -82z" />
    <glyph glyph-name="E" unicode="E" horiz-adv-x="1087" 
d="M1223 836l-4 -9q-11 17 -80 17q-131 0 -205 -31q-59 0 -139 -27q-84 5 -174 -32q-9 4 -93 -6q-100 -15 -104 -15q-2 -4 18 -69q-8 -25 -8 -68q-8 -45 -35 -117l15 -18q10 0 25.5 2t23.5 2q113 0 219 14q158 21 176 64v22l-4 6l6 11q17 -4 39.5 -24.5t24.5 -35.5l-37 -33
l4 -8q-2 -10 -30.5 -30.5t-41.5 -22.5l-4 4q-172 -57 -237 -51q-19 -8 -142 -23q-59 0 -59 -32q0 -150 123 -191q55 -18 250 -20q10 6 24 6q111 0 111 45q-6 16 -4 43q18 -12 55 -33q31 -31 31 -55q0 -19 -40 -43.5t-52 -20.5q-68 -32 -226 -32q-280 0 -399 196
q-12 21 -33 68q0 53 -24 61q-39 0 -113 2q-8 6 -188 6q-23 23 -23 29q0 31 59 31q13 -4 21 -4q18 0 55 9t53 9q76 0 142 17q4 4 7 15t7 15q0 109 64 246l-17 8q-45 -10 -55 0h-49q-17 -12 -66 -12q-28 0 -76 22q-53 25 -53 50q4 4 0 14q-6 12 -6 16q0 64 98 64q17 0 56 -13
q32 -12 53 -8q18 -8 59 -7t45 -1h11q8 -2 30 -2h142q41 0 110 6q78 6 109 6l110 17q13 -4 80 0q88 4 90 4q31 4 37 2q8 -4 19 -4q114 6 211 -33z" />
    <glyph glyph-name="F" unicode="F" horiz-adv-x="1341" 
d="M1389 575q0 -18 -68 -49q-57 -26 -88 -34q-241 -60 -247 -62q-142 -37 -244 -76q-19 -51 -19 -71q0 -7 2 -11q0 -73 13 -94q2 -28 2 -84q20 -20 20 -133q0 -43 -15 -55t-61 -12q-30 0 -78.5 44t-48.5 74q5 4 0 11q-6 6 -2 20q-8 37 -4 143q2 -4 6 86q-8 11 -16 15
q-24 0 -76.5 -52.5t-103.5 -52.5t-90 39t-39 88q0 80 43 115q55 43 59 57q49 17 62 17q32 0 60 -30t61 -30q47 0 57 47q2 15 2 88q0 33 6 97.5t6 97.5q0 18 4 43q11 55 -14 55q-104 0 -215 -28l-76 -7q-47 -4 -111.5 -25.5t-62.5 -21.5q-45 2 -55 7q-60 -11 -119 98v29
q0 28 45 59t76 31q35 0 99.5 -15.5t101.5 -15.5q2 -14 65 0q88 0 184 8q4 -4 11 -4q39 0 56 51t77 51q37 0 59 -26l35 -58h27q12 9 44.5 4.5t47.5 6.5q24 0 29.5 3t13.5 3q90 8 229 33l47 2q8 0 23.5 2t27.5 2q11 0 50 -27l-2 -4q-9 -12 -13 -8q-80 -72 -157 -72l-2 2
q-76 -22 -82 -22q-9 0 -11 4q-6 -4 -65.5 -14.5t-85.5 -8.5q-90 -20 -135 -20q-11 2 -19 -10.5t-14 -24.5q0 -160 -2 -154l2 -45v-37l10 -77q8 -52 41 -52q14 0 135 29q144 35 279 51q76 10 194 31q29 0 29 -21z" />
    <glyph glyph-name="G" unicode="G" horiz-adv-x="1007" 
d="M946 -80q0 -12 -12.5 -33.5t-10.5 -33.5q-8 -3 -26 -27q-23 -8 -33 -6q-74 -17 -147 108q-15 33 -15 90q-6 7 -10 13q-10 16 -8 51q12 24 12 106q21 56 21 64q-3 8 -7 8q-2 0 -133 -78q-137 -80 -168 -92q-4 4 -39 -2q-41 -6 -45 -6q-14 0 -63 20l-53.5 15t-42.5 26
q-39 47 -47 115q-11 80 -23 109q4 8 6 36q2 23 29 58v37q0 24 119 164q61 61 49 71l88 111q69 86 90 86l2 -4l96 47h27q45 0 90 -45t45 -88q0 -97 -102 -170q-68 -33 -177 -111q-20 -4 -69 -49q-84 -86 -84 -205q0 -24 21.5 -52t43.5 -30l31 -2h45q37 4 202 102.5t191 104.5
h21q27 0 49 -63q21 -56 21 -105q0 -12 -3 -20q7 -23 -0.5 -54.5t-3.5 -50.5q-8 -12 -6 -39.5t-4 -40.5q6 -22 2 -28q0 -25 15.5 -62t15.5 -45z" />
    <glyph glyph-name="H" unicode="H" horiz-adv-x="1021" 
d="M927 1049q0 -43 -10 -78t-10 -41l4 -8q-12 -105 -14 -112t-2 -212q6 -6 3 -8t1 -8q0 -281 -4 -285q10 -18 0 -29q0 -127 -5 -133q-4 -16 2 -69q-6 -19 -6 -48q2 -34 0 -49q-4 -16 -12 -37v-79q14 -19 14 -31q-43 0 -106 192q-49 150 -53 371q0 27 -4 64q-2 22 4 69l-6 25
q-11 -49 -82.5 -103.5t-122.5 -54.5t-78 -6q-2 4 -74 4q-6 0 -31 8q-6 -4 -28 -61q0 -27 -8.5 -81t-6.5 -108q-10 -18 -10 -28q0 -2 2 -7v-8q0 -14 -37 -57q-20 -8 -34 12q-2 -4 -17 -4q-86 80 -86 123q0 64 6 166q6 127 8 166q0 8 -14 32.5t-14 43.5q0 22 22.5 57t22.5 65
q0 15 -23 37l-14 -6q-16 2 -43 25q0 24 2 28.5t27 14.5q24 -4 26 8q-2 -8 -2 31l-2 4q10 39 78 106.5t104 67.5q3 0 23 -4q12 -4 20 0q89 -45 89 -133q4 -4 4 -17q0 -10 -4 -16q0 -2 2 -8t2 -11q0 -59 -60 -262q4 -22 15 -32q30 -76 159 -76q29 0 74 20q33 15 64 60
q26 39 38 41q5 106 0 225q0 45 -8 98q0 70 -16 96q-35 52 -43 76q59 117 151 117q54 0 88.5 -45t34.5 -98z" />
    <glyph glyph-name="I" unicode="I" horiz-adv-x="385" 
d="M327 973q-2 -17 0 -53q0 2 -10 -50q4 -12 4 -18l-57 -377q2 -31 -6.5 -78t-5.5 -69q0 -4 -9 -140q2 -30 -10 -135q-14 -94 -8 -112q0 -19 -8 -39q-29 0 -58 102q-26 96 -45 246q-4 53 -12 127q4 18 -7 55t-11 45q0 33 4 98.5t4 100.5q-2 -2 -2 47q-2 111 -2 119
q-29 92 -23 123q-6 30 -6 32q29 199 135 179l12 8q66 -15 99 -84q26 -58 20 -123z" />
    <glyph glyph-name="J" unicode="J" horiz-adv-x="583" 
d="M563 1075q0 -16 -4 -35q0 -57 -32.5 -112.5t-30.5 -76t-21 -144.5q-22 -136 -22 -158q0 -55 17.5 -169t17.5 -171l6 -12q-2 -68 -29 -109q-18 -33 -82 -88q-82 -72 -297 -72q-10 0 -50 7.5t-46 5.5q-45 0 -98 20q-66 27 -66 66q0 4 14 43q25 12 43.5 57t36.5 59
q-28 -71 -28 -106q0 -23 18 -31t39 -14q31 0 33 -2q26 -4 61 0q232 0 277 256q-7 12 0 35q6 28 6 34v160q-6 10 -7 47t-14 60q-8 90 -18 190q0 12 8 55t8 64q0 8 7.5 21.5t9.5 19.5q24 88 45 117q34 45 123 61q36 6 75 -78z" />
    <glyph glyph-name="K" unicode="K" horiz-adv-x="1081" 
d="M1150 92q0 -12 -16 -18q-111 45 -320 143q-35 23 -76 33t-55 22q-121 93 -213 203q-12 10 -39 27l-37 86q0 71 44 122.5t112 45.5q27 12 33 8q28 0 72 31.5t69 35.5q10 37 90 76q55 43 123 33q53 -8 68 -25l24 -51v-28q0 -43 -65.5 -98.5t-128.5 -59.5q-29 16 -49 -8
q-37 0 -76 -17q-45 -22 -45 -55q0 -63 84 -164q67 -80 141 -133l170 -96q25 -17 57.5 -53.5t32.5 -59.5zM415 911q0 -10 -9.5 -23.5t-9.5 -19.5t2 -12q-2 -12 -2 -25q0 -12 2 -22q-96 -330 -96 -397.5t-10 -92.5q0 -14 -2 -41.5t-2 -41.5q0 -80 -27 -107q0 -49 -10 -68
q-14 -28 -31 -57q-2 -2 -33 -2q-45 10 -45 123q-4 8 -4 47t4 45q0 62 9 145q-9 44 0 109l-4 53q4 6 0 80q-7 74 -13 86q6 19 6 23q-16 39 -8 104q0 12 -6 62l8 24q-4 60 41 138.5t103 78.5h18q41 -4 74 -28.5t33 -63.5q-3 -8 2 -39q6 -31 -7 -47z" />
    <glyph glyph-name="L" unicode="L" horiz-adv-x="813" 
d="M921 98q0 -39 -42 -59.5l-81 -38.5q-10 4 -18 -3t-16 -13q-62 -31 -168 -31q-9 -6 -56 -6q-55 0 -53 2l-168 45q-90 33 -129 112q-33 70 -45 158q0 49 10 78q-4 0 -10 20q0 7 6 35q6 21 0 29q8 33 -2 72q6 30 2 41q15 94 15 92q0 57 -13 78q13 20 13 36q0 15 -12.5 41.5
t-12.5 38.5l12 31q0 72 58.5 138.5t130.5 66.5q55 0 91 -47t36 -103q0 -10 -4.5 -31.5t-4.5 -33.5q0 -47 -40 -121l6 -16q-56 -185 -56 -222q0 -14 4 -24q-10 -66 -10 -113q0 -14 3 -47t3 -49q0 -49 27 -129q18 -37 23 -33q6 -24 118 -55l13 4q8 -6 41 -4q34 2 45 0
q28 2 69 12q86 0 215 49z" />
    <glyph glyph-name="M" unicode="M" horiz-adv-x="1249" 
d="M1173 600l-4 -35q-4 -24 2 -30q0 -29 -3 -84.5t-3 -81.5q-12 -27 -12 -107q6 -8 0 -67q-7 -60 -13 -72q0 -25 -20 -148q-4 -4 -4 -51q-6 -8 -13 -61q-2 -4 -2 -29l-12 -33h-14q-23 21 -50.5 162t-17.5 174q-12 39 -8 82q-14 25 -14 193q-9 30 -17 188q-6 148 -16 168
q-94 -242 -107 -268q-65 -152 -141 -252q-12 -47 -80 -47q-98 0 -155 143q-39 98 -48 227q-2 27 -31.5 121t-43.5 119q-17 -8 -45.5 -118.5t-28.5 -141.5v-137q0 -13 22 -72q-2 -10 3.5 -49t9.5 -49l-8 -19q-5 -59 -49 -106t-103 -47q-47 0 -59 18l-25 55v54q2 2 4 8
q-2 2 -4 14q10 41 37 115q-4 8 4 49q8 49 8 57l17 64q84 477 294 477q43 0 75 -54.5t32 -101.5q4 -20 20 -75q-6 -50 25 -168q33 -230 72 -283h6q69 117 146 371t141 366q18 21 38 41q15 17 62 17q72 -23 110 -228q33 -170 23 -268z" />
    <glyph glyph-name="N" unicode="N" horiz-adv-x="1093" 
d="M1038 1120q0 -18 -12 -55q0 -41 -21 -104l-37 -101l4 -6q-45 -180 -45 -283q0 -61 -32 -127q16 -16 -3 -41q0 -4 5 -34q2 -21 -2 -33q0 -21 -4.5 -62t-4.5 -63q0 -12 4.5 -38t4.5 -40q2 0 2 -51l-2 -8q0 -2 2 -23l-27 -59l10 -25q-2 -4 -6 -22q-2 -11 -10 -11
q-53 97 -45 121q-29 99 -29 140q-8 14 -8 88q0 18 -31 36q-22 13 -45 25q-364 279 -387 279q-2 -2 -25 -54q0 -22 -8 -45q2 -14 -3 -42.5t-3 -45.5q-12 -14 -12 -106v-160q0 -25 14.5 -73t14.5 -72q0 -58 -37 -58q-4 10 -41 -2q-23 0 -69 51.5t-46 71.5q0 6 3 23.5t1 27.5
q-4 11 -4 68t4 65q0 88 12 258q-2 50 7 119q2 19 -5 53q-2 15 5 62q0 18 -3 45q0 16 -8 24.5t-8 20.5q0 2 4 27q4 14 -2 22q0 37 41 66.5t80 29.5q2 0 20 -6q27 8 80.5 -23.5t65.5 -58.5q100 -200 373 -467q10 25 10 43q0 -2 -8 123q-6 97 2 135l-4 9q0 198 -9 215q2 4 5 12
q-3 0 -5 4q2 14 -3 64.5t-9 64.5l17 84q16 43 116 70q39 2 64 -15q39 2 65.5 -44t26.5 -89z" />
    <glyph glyph-name="O" unicode="O" horiz-adv-x="1007" 
d="M965 420q0 -115 -213 -303q-197 -144 -283 -144q-4 0 -4 3.5t-2 3.5q-6 0 -29 -7q-16 -4 -51 0q-78 11 -145 70q-33 18 -80 124.5t-47 162.5q0 18 -9.5 51t-9.5 49q0 6 4 53q7 82 47 217q5 5 -8 29q0 53 -59 53q-2 0 -32 -6t-34 -6h-30q-29 0 -49.5 28.5t-20.5 63.5
q0 64 68 94h34q4 0 37 -12t41 -12h90q4 0 56.5 22.5t70.5 22.5q109 0 174 -113q39 -10 115 -41q0 -10 2 -14l21 16q8 0 14 -12q10 4 18 4q11 0 20 -10t19 -10q6 0 11.5 3t7.5 3q6 0 41 -31q12 10 18 10q25 0 113 -88l49 -86q35 -65 35 -106v-82zM815 442q0 56 -69 144
q-60 73 -101 98q-123 74 -147 74q-10 0 -21 -31q-6 -22 -14 -45q-12 -12 -27 -39q-8 -82 -94 -164q-16 -16 -16 -139q0 -6 -9.5 -17.5t-11.5 -13.5l-2 -88q-2 -53 47 -90q41 -31 88 -31q86 0 226 111q151 123 151 231z" />
    <glyph glyph-name="P" unicode="P" horiz-adv-x="1054" 
d="M1086 791q0 -74 -84 -156l-141 -121q-9 2 -15 -10l-135 -129q-78 -68 -170 -68l-61 12q-13 11 -29 7q0 -47 -2 -52q8 -10 12 -43q6 -43 8 -49q5 -14 41 -96q33 -70 27 -92l4 -10q-4 -146 -123 -146q-51 0 -104 96q-49 89 -49 148q0 33 20 14q10 8 23 45q-2 25 2 31
q0 33 -2 88q-4 33 2 86t4 84q2 2 4 8l-4 13q0 26 4 90q6 55 4 88q-4 24 2 63t2 58q12 34 0 51v92q-2 70 -24 72l-23 -2q-18 0 -57 7t-60 7h-41q-26 -2 -41 -2q-12 -10 -82 -10q-10 0 -45.5 -11.5t-60.5 -11.5q-45 0 -85 37t-40 80q0 33 41 72.5t76 39.5q26 -6 49.5 -4
t56.5 -10q41 -43 94.5 -64.5t169.5 -43.5l41 4q2 6 -2 16t-4 16q0 15 13 31q14 25 16 27q51 41 57 43q27 16 68 16q59 0 108 -67q0 -17 9.5 -48.5t7.5 -50.5q100 -10 303 -45q113 -24 160 -63q55 -45 55 -137zM889 838q0 45 -143 73q-109 21 -191 21q-8 0 -18 -27
q-31 -74 -47 -176q-31 -168 -33 -180l-10 -45q4 -35 -6 -68l14 -26q57 2 131 41q68 34 115 81.5t113 145.5q75 113 75 160z" />
    <glyph glyph-name="Q" unicode="Q" horiz-adv-x="1042" 
d="M1411 -229q-105 -70 -137 -70l-11 4q-55 -10 -71 -10q-258 0 -561 334q-27 -15 -62 -25q-12 -16 -98 -16q-94 0 -180 84q-95 92 -160 260q0 39 -18.5 107.5t-18.5 97.5q0 26 8 47q90 231 90 237q0 13 -12 40.5t-12 41.5q0 55 40 95t95 40q16 -8 35.5 -3t38.5 -1
q22 4 62 -10t54 -16q326 -33 418 -199q2 -31 19.5 -92.5t17.5 -95.5q0 -15 -4 -48q-2 -2 -2 -6q0 -2 2 -8q-10 -37 -10 -67q0 -13 -5.5 -35.5t-5.5 -36.5q-10 0 -10 -14q4 -41 4 -31l-43 -109q-28 -59 -61 -98q2 -6 55 -88q70 -107 180 -193q129 -104 234 -104
q43 0 74.5 24.5t35.5 24.5q7 0 9 -9t10 -13q-2 -3 -4 -7q0 -2 4 -12v-20zM856 451v124q0 46 -60 164q-34 31 -124 74q-107 51 -168 51h-60l-14 -16q12 -33 12 -66q0 -39 -41 -128t-74 -126q-18 -75 -8 -145q35 -264 252 -264h4q-12 28 -28 41q-11 43 -78 53l-8 14
q2 47 47 76q39 25 84 19l8 4q41 0 84 -27q20 -12 41.5 -26.5t42.5 -39.5q88 107 88 218z" />
    <glyph glyph-name="R" unicode="R" horiz-adv-x="1107" 
d="M1244 -96q-14 -10 -27 -21q-18 2 -49 11q-256 129 -479 208q-31 13 -90 29q-8 0 -16.5 -5t-12.5 -5q-43 0 -96 36t-53 79q0 65 33 122q41 72 49 103q59 49 114 43q168 74 168 168q0 41 -92 78q-84 32 -147 32q-13 0 -21 -2l-20 6q-6 -4 -19 -20q4 -21 -42 -159t-44 -156
l-6 -13q0 -22 -6 -60t-4 -50q-10 -27 -6 -33l-2 -23q-17 -12 -2 -41v-270l4 -8q-6 -82 -47 -82q-4 0 -29 8l-4 -4q-8 10 -47 37q-19 12 -35 72l6 12q2 53 -2 59q14 168 4 183q10 12 10 100v51q0 41 2 55q3 5 5 9q-2 0 -5 8q3 31 -2 76q-4 55 -4 77q0 15 -4 37.5t-2 42.5
q10 4 2 51q2 27 -6 37q-55 4 -100 -82q-49 -96 -103 -114l-37 2q-36 20 -44.5 43.5t-18.5 48.5q2 45 4 55q6 29 27 43q26 27 60 39t67 25q18 10 102 41q59 20 62 32q0 7 -4.5 20t-4.5 19q0 45 35 82t78 37q-4 0 20 -6l21 -4q41 12 78 -27q16 -32 61 -94q6 -6 57.5 -19.5
t65.5 -13.5q39 -2 96 -22q82 -29 97 -33q49 -12 114.5 -92t65.5 -129q0 -68 -72 -152q-37 -43 -133 -127q-72 -61 -72 -78q47 -75 197 -165l188 -105l90 -74q3 -4 15 -13t12 -15z" />
    <glyph glyph-name="S" unicode="S" horiz-adv-x="968" 
d="M963 328q10 -35 -9.5 -95.5t-88.5 -99.5q-19 -10 -125 -51q-117 -45 -469 -238q-62 4 -62 56q0 32 84 86q93 12 284.5 146t191.5 200q2 22 -76 41l-195 45q-139 39 -244 96l-124 78q-84 51 -132 51l-8 -4q-41 2 -71 66q-27 55 -27 106q0 23 12 45l21 39q14 16 49 39
q22 2 70 14q32 0 93.5 11.5t92.5 11.5q20 8 25.5 8t197.5 61q166 52 213 52q17 0 21 -5l8 7q8 -2 23.5 2t21.5 4q67 0 113.5 -38t46.5 -104q0 -57 -56 -100q-10 -8 -106 -65h-21q-151 -56 -229 -56q-4 0 -10 2h-13q33 27 97 54q78 34 98 45q12 12 12 10q0 22 -82 37
q-59 10 -102 10q-6 4 -16 -2q-54 2 -156 -21q-111 -22 -128 -41.5t-17 -62.5q0 -76 198 -174q55 -27 271 -113q88 -26 174 -55q100 -35 149 -98z" />
    <glyph glyph-name="T" unicode="T" horiz-adv-x="993" 
d="M1201 1016l-2 -15q-53 17 -166 37q-8 -8 -31 0l-321 6q-10 -4 -41 -8q0 -63 4 -75q-10 -54 -4 -68q0 -90 -10 -105q-5 -49 -9 -102q-6 -24 -10 -76q-6 -8 -6 -49q4 -6 4 -20q0 -27 -6 -56q2 -8 -2 -24v-72q0 -10 -6 -39q2 -8 -4 -157q-6 -11 -2 -21q-2 -45 -21 -117
q2 -2 2 -6v-24q-10 -35 -22 -70q-19 -49 -41 -49q-13 0 -29 17.5t-16 29.5q0 14 4 92q4 66 4 92v66q-6 139 -17 319q2 2 5 8q-3 2 -5 9q-6 36 -2 90q-4 12 -8 47q-2 37 0 45q2 24 -6 76q6 28 -2 67q0 2 3 11.5t3 13.5q0 51 -16 153q-129 -4 -170 -6q-117 -8 -160 -28
q-22 -19 -70 -54q-32 -20 -86 -20q-32 0 -67 36t-33 70q6 13 6 28t31 48q29 12 86 25q6 -4 27 0q28 -2 67 -15h27q16 -2 24 -2q13 0 39.5 7.5t40.5 7.5q35 0 104.5 3t106.5 3q27 0 37 6q4 -2 10 -2q15 0 76 27q8 -5 35 -7q16 -2 43 -24l53 2q80 4 225 -23q129 -24 213 -51
q27 -6 29 -4q21 -2 43 -20q37 -31 39 -33z" />
    <glyph glyph-name="U" unicode="U" horiz-adv-x="995" 
d="M1064 150q0 -5 -7 -23t-7 -25q-8 0 -20 -36q-13 -7 -22 -31.5t-21 -32.5q-27 -18 -64 -18q-108 0 -192 125q-76 114 -80 235q-2 2 -4 2q-4 0 -58 -86q-65 -102 -116 -160q-80 -86 -146 -86q-45 0 -153 99q-48 120 -48 151t-3 38t-3 15q0 56 -10 117v37q0 47 -2 51v111
q8 10 6 39q-6 43 -6 37q0 53 25 139q8 10 20 29q80 79 141 79q54 0 101 -112v-43l2 -10.5t2 -42.5q0 -31 -31 -122t-31 -118q0 -19 -7 -49.5t-7 -42.5v-78q0 -6 4 -16.5t4 -51.5q0 -22 7.5 -61t7.5 -59q0 -35 18 -35q10 0 35 28l24 31q78 82 199 328l-4 76q-12 43 -12 49
q0 10 28 59q62 70 76 82q35 31 94 51q39 2 70 -55q27 -49 27 -102q0 -3 -2.5 -19t-2.5 -20q0 -72 -8 -97q-2 -61 -7 -73.5t-7 -30.5l-2 -129q0 -23 2 -88q25 -154 68 -154q28 0 65 45l49 64h6q0 -2 2 -4v-6z" />
    <glyph glyph-name="V" unicode="V" horiz-adv-x="952" 
d="M923 848q-84 -121 -197 -445l-43 -96q-57 -133 -90 -186q-59 -101 -137 -150q-29 -4 -49 0q-2 0 -35 13q-164 63 -223 356q0 80 -12 106q2 3 2 7q0 12 -4.5 44.5t-4.5 49.5q0 39 -26 153q-33 99 -33 88q0 29 37 93q31 55 53 80q27 10 80 24q12 2 35 2q10 0 40.5 -27.5
t35.5 -39.5q0 -5 10 -37q6 -19 -2 -29q0 -2 5 -12.5t3 -12.5q0 -26 -18 -84q0 -2 2 -7t2 -7q0 2 -7 -63q-4 -54 0 -58q-4 -6 -4 -18v-260l2 -6v-27q0 -23 31 -131q33 -121 53 -121q23 0 66 76q35 59 70 168q49 143 59 170q4 24 28.5 113.5t24.5 93.5q0 22 -35 45v37
q0 41 78 108.5t117 67.5h37q14 0 29.5 -15.5t15.5 -31.5v-29q0 -2 4 -2z" />
    <glyph glyph-name="W" unicode="W" horiz-adv-x="1392" 
d="M1341 649q0 -149 -123 -387q-137 -264 -270 -268q-16 0 -33 4q-112 0 -182 127q-29 57 -78 223q-16 -8 -32.5 -38.5t-32.5 -39.5q0 -18 -10.5 -33.5t-12.5 -25.5q-2 0 -10 -6q-6 -4 -10 0q-19 -29 -13 -45q-16 -6 -24 -29q-13 -29 -17 -35q4 -2 4 -18q-14 -6 -20 -25.5
t-12 -36.5q-15 2 -19 -15l-4 -17q-2 0 -4 2q-2 -15 -14 -43q-27 -27 -45 -29l-7 4q-77 -6 -143 82q-59 78 -63 162q-4 98 -15 123l2 59q0 -6 -2 92q-2 82 0 103q11 18 4 69q7 13 7 17v49v41q4 24 -7 45q15 45 -4 82q4 10 -1 60t-11 65q0 24 16 53q4 27 53.5 52.5t77.5 25.5
q7 0 25 -3t29 -1l67 -45q45 -29 47 -56.5t9 -83.5q-72 -211 -72 -309q-8 -10 -9 -45t-7 -47q4 -29 -9 -80q-12 -57 -12 -80l2 -205q0 -26 2 -71q2 -17 10 -19q29 0 152 209q119 203 125 250q-14 14 0 35q-14 57 -14 47q20 51 63 102q59 72 115 66q30 0 62 -30t32 -62
q0 -27 -47 -119t-39 -172q0 -51 18 -92q0 -54 19 -115q24 -78 63 -78q64 0 137 156q68 137 70 209q-4 4 0 33q4 26 8 34q-4 4 0 31q2 29 6 37q-10 22 -6 45q-2 2 -12 35l-23 -19q-24 4 -24 58q0 53 43 111.5t94 54.5l27 -2q45 -19 73.5 -73t24.5 -104q6 -10 6 -51z" />
    <glyph glyph-name="X" unicode="X" horiz-adv-x="1024" 
d="M1103 915v-6q-2 -4 -2 -8q-14 -24 -28 -59q-7 -29 -11 -35q-14 -10 -28.5 -22.5t-30.5 -29t-35 -16.5q-264 -207 -364 -381q8 -8 91 -45t109.5 -41t34.5 -12l66 -14q4 -2 24 -6q58 -11 51 -54q-4 -14 -38 -20l-41 -4q-25 4 -39 2l-101 22q-10 9 -37 13l-188 77
q-8 -4 -160 -223q-145 -211 -184 -209q-2 0 -10 6q-8 5 -11 -2q-41 41 -16 166q6 37 121 188.5t117 166.5q2 8 -58 59q-80 74 -139 150q-96 122 -160 278q-12 31 0 49q17 33 33 33q4 0 6 -4q12 12 53 12q2 -2 41 -12q82 -16 121 -184q13 -56 49 -123q19 -35 60 -92
q45 -68 59 -70q17 -4 105 119q116 166 129 180q6 18 34.5 52t30.5 46v6q-2 4 -2 6l66 99q28 41 45 59q30 33 63 37q19 -4 49 -4q45 -4 56 -31q24 2 48.5 -44t20.5 -75z" />
    <glyph glyph-name="Y" unicode="Y" horiz-adv-x="905" 
d="M924 997q-2 -2 -4 -18q-2 -18 0 -21q-13 -61 -50 -92q-18 -16 -57 -32q-47 -21 -65 -33q-179 -115 -179 -395q-4 -7 0 -17q-10 -22 -10 -94v-100q-2 -25 -8 -31l2 -78q4 -4 3 -35t1 -31v-34q-4 -60 8 -101q15 -51 8 -82l27 -53q-2 -4 -10 -4q-47 0 -105 121
q-55 115 -51 172q0 24 -8 63q0 -10 -4 54q-2 32 6 53q0 4 6 41q4 24 -4 39q0 37 11.5 116.5t11.5 122.5q10 15 10 82q-12 0 -33 -6q-26 -8 -39 -10q-28 -4 -78 -2q-63 4 -147 62.5t-115 113.5q-20 61 -71 180q0 23 -11.5 36t-13.5 28q6 10 6 39q-2 39 55.5 86t100.5 47
q41 10 77.5 -29t39.5 -86q2 -51 -13 -68q0 -14 -4 -43.5t-4 -46.5q0 -63 31 -137q37 -90 92 -90q33 0 78 16q57 21 51 48l14 26q0 146 121 232l8 -5q35 0 102.5 47.5t114.5 47.5q41 0 72 -29t27 -70z" />
    <glyph glyph-name="Z" unicode="Z" horiz-adv-x="1003" 
d="M1070 963v-39q0 -58 -18 -78q-33 -41 -99 -105q-84 -53 -303 -213q-188 -151 -223 -182q-86 -76 -86 -108q0 -27 27 -41q41 -11 124 -37q23 0 76.5 -10.5t75.5 -10.5l220.5 -33.5t111.5 -46.5q0 -20 -51.5 -64t-79.5 -44q-45 0 -201 51t-248 47q-119 21 -129 21
q-41 0 -106.5 -54.5t-104.5 -54.5q-96 14 -96 119q0 14 2 29q8 57 121 145q104 80 125 76l4 -4q35 8 162 118l167 146l173 147q127 117 127 166q0 21 -37 19q-4 2 -156 -23q-18 0 -143 -29q-74 4 -156 -36l-56.5 -36.5t-60.5 -17.5q-18 -8 -49 6h-24l-48.5 56.5t-23.5 72.5
q0 9 16 58q62 61 93 61q32 0 101 -30.5t132 -26.5q8 6 12 3t11 1q10 -2 48 3t46 9q20 2 108 21q78 16 127 16q4 6 14.5 3t18.5 3q23 4 55 4q35 0 56 -4q36 0 86 -20q59 -23 59 -53z" />
    <glyph glyph-name="bracketleft" unicode="[" horiz-adv-x="563" 
d="M450 1370q0 -20 -19.5 -33.5t-27.5 -13.5l-23.5 -6t-38.5 -4q0 -8 -14 -137q-10 -107 -10 -209q0 -47 3 -138.5t3 -136.5q0 -135 -8 -382t-8 -296q0 -16 -9 -94h48q28 0 53.5 -16.5t25.5 -44.5q0 -43 -17 -57.5t-60 -14.5q-80 0 -105 4q-67 12 -67 45q0 92 10 105
l-27 1214q-2 49 -22 139q-27 56 -27 72q0 39 55 68q43 22 72 22q4 0 18.5 -6t18.5 -6q24 -2 72 -8q104 -35 104 -66z" />
    <glyph glyph-name="backslash" unicode="\" horiz-adv-x="829" 
d="M786 -98q-10 -74 -84 -74l-8 8q-68 8 -88 74q-10 51 -18 104q-33 131 -152 406l-223 502l-24 53.5t-36 48.5q-53 47 -51 102q0 27 -6 58q0 33 4 96q8 55 46 97t85 34t80 -106l43.5 -150t63.5 -215l157 -463q21 -67 70 -201q47 -102 133 -305q12 -32 8 -69z" />
    <glyph glyph-name="bracketright" unicode="]" horiz-adv-x="679" 
d="M577 -123q0 -37 -53 -67q-45 -23 -74 -23q2 0 -35 14q-22 2 -72 9q-24 6 -57 20q-49 25 -49 45q0 31 47 45h113q6 113 -13 316q-20 225 -20 317q0 133 8 381t8 297q0 12 9 94q8 -2 -48 -2q-28 0 -53.5 17.5t-25.5 43.5q0 33 36 56q27 16 41 16q50 0 101 -22l44.5 -15
t24.5 -30q0 -76 -6 -84l25 -1217q2 -49 22 -137q27 -55 27 -74z" />
    <glyph glyph-name="asciicircum" unicode="^" horiz-adv-x="0" 
d="M-2246 -172q37 0 504 57.5t703 57.5q252 0 328 -21l214 -20q140 -16 204 -49q16 -8 16 -35q0 -47 -118 -80q-10 -4 -236 -53q-48 -10 -150 -17q-124 -4 -150 -8q-119 -22 -371 -57q403 92 403 125q0 8 -22 16q-86 4 -290 15q-177 8 -193 8q-1122 -21 -1143 -21
q-166 0 -349 -22q-27 -15 -75 -35.5t-113 -20.5q-10 0 -42.5 13.5t-37.5 23.5q-11 4 -27 4l-1401 -71h-300q-22 0 -156 -8.5t-150 -8.5q-129 0 -269 25q-193 33 -193 90q0 43 86 53.5t421.5 35t388.5 24.5q16 0 37.5 -5.5t37.5 -5.5q17 0 30 7.5t24 7.5q59 -2 188 0
q38 0 118.5 6t112.5 8q107 4 257 4q43 0 124 6l123 9l618 24q187 0 263 -67q-6 4 -6 -64q6 -2 27 -2q118 0 301 29q230 22 263 22zM-3524 -233h-660q-252 0 -918 -49q65 -29 113 -29h435l665 14l607 39q-156 25 -242 25z" />
    <glyph glyph-name="underscore" unicode="_" horiz-adv-x="1613" 
d="M1621 -705q0 -22 -45 -34q-33 -11 -62 -9q-35 7 -104 15q-174 0 -523 6q-71 2 -217.5 -15.5t-220.5 -13.5q-110 4 -280 13q-99 4 -125 14q-70 27 -68 117q2 116 148 108l251 -6q39 -8 115 -22q33 0 96 -3q80 -10 242 -22q270 -12 520 -4q17 20 64 18q213 -8 209 -162z
" />
    <glyph glyph-name="grave" unicode="`" horiz-adv-x="501" 
d="M437 745q0 -6 -4 -6q-6 4 -39 19l-20 8q-17 8 -12 14q-52 31 -162 82q-21 15 -66 29q-41 2 -67.5 24.5t-26.5 55.5v26q0 17 25.5 43.5t41 28.5t23.5 2q49 0 76 -43t78 -98l84.5 -94.5l33.5 -36.5q35 -31 35 -54z" />
    <glyph glyph-name="a" unicode="a" horiz-adv-x="694" 
d="M821 295q2 -53 -9 -53q-8 -47 -41 -72l-2 -20q-16 -25 -53 -76l-18 -11q-17 -45 -64 -70.5t-98 -25.5q-64 0 -127 183h-2q-12 -25 -49 -56q-2 -8 -4 -7t-2 -7t-26 -22.5t-30 -37.5q-12 -4 -28 -22q-35 -29 -68 -29q-37 0 -100.5 60.5t-63.5 99.5q0 53 -8 78q0 12 14 31
q0 8 2 16v16q21 37 47 109q15 10 47.5 53t32.5 55q17 25 64 60t55 45l12 8q95 43 119 43q25 0 68 -16.5t49 -34.5q16 -17 6 -60q-33 -36 -63 -47q-19 -4 -80 -4q-25 15 -70 -2q-47 -49 -67 -106l-46 -152q9 -28 -14 -67v-19q4 -18 6 -37v-20l6 -10h7q114 77 190 254
q-2 4 -10 13t-8 17q0 17 33.5 48.5t48.5 29.5q16 16 47 16q16 0 40.5 -17t24.5 -32q0 -18 -14 -47q-21 -39 -23 -45q-24 -69 -24 -203q0 -36 14 -67l25 -6q53 0 141 114q78 99 104 172z" />
    <glyph glyph-name="b" unicode="b" horiz-adv-x="751" 
d="M899 397q0 -16 -16 -26q2 -6 -39 -33q-33 -10 -160 -74q-31 -53 -145 -164q-125 -118 -166 -118q-23 0 -38 19t-15 42q0 39 67 98q33 29 94 78q21 10 38.5 20.5t23.5 28.5l8 25q-2 14 2 26q4 19 0 43q0 39 -98 89q-10 2 -42 10t-52.5 11t-61.5 17q-6 -2 -16 -2
q-2 0 -10 2q-27 -6 -27 -16v-225q-6 -6 -4 -33q2 -29 0 -29q0 -86 4 -98q-2 -8 -2 -10t2 -17q0 -38 -16 -120l-17 -11q-51 7 -59 65t-15 120q5 18 0 18q0 94 5 103q-7 10 -3 133q3 118 7 127q0 14 -31 18q-23 2 -43 4q-35 8 -94 62q-13 24 -25 49q-2 6 -4 65q0 2 6 29
q4 2 39 31q21 16 76 12q24 -4 78 -25q4 0 6 13v71q0 21 4 45v54q0 155 -4 155q0 66 -43 133q0 13 -2 27t-2 31q12 12 20 37q62 65 150 65q94 -14 98 -100q-4 -49 -23 -92q-22 -50 -47 -99q-16 -41 -16 -106h2q-6 -68 -27 -184q0 -7 2 -23q-10 -31 -10 -72q0 -20 125 -69
q176 -70 234 -101q125 -65 125 -127q0 -26 -13 -47l6 -4q123 62 146 62q10 0 18 -13zM486 160q-15 -4 -62 -40t-47 -48l12 -6q25 12 61 43.5t36 50.5z" />
    <glyph glyph-name="c" unicode="c" horiz-adv-x="483" 
d="M653 348q2 -26 -14 -35q-21 -30 -82 -92q-2 -22 -33 -33l-59 -73q-35 -33 -112 -90.5t-132 -49.5q-2 0 -11.5 4.5t-11.5 2.5q-8 0 -26 -5q-4 -2 -34 12.5t-38 20.5q-31 15 -60.5 59t-29.5 78v46l4 10q4 6 0 14q0 25 43 113q21 51 45 92q8 24 27 70q28 59 119 114
q10 0 26 4q19 13 31 13q12 -5 22 -2q17 4 21 4q2 0 14.5 -2t14.5 -2q10 0 12 2h2q25 0 56.5 -29t31.5 -55q0 -31 -34 -75t-60 -63q-37 -26 -68 -36h-28q-11 -7 -19 -15q-18 -10 -27 -8q-18 -20 -55 -66q-8 -10 -22 -63q-13 -43 -13 -94v-13q4 -18 21 -53q20 -24 55 -24
q109 0 295 190q111 113 111 137q14 9 18 -8z" />
    <glyph glyph-name="d" unicode="d" horiz-adv-x="802" 
d="M991 295l-6 -25q-3 -2 -3 -12q0 -2 -5 -7t-7 -11v-25q0 -6 -6 -6l-29 -55l-10 -4l-22.5 -36.5t-28.5 -19.5l-2 -10q-8 -6 -41 -18q-6 -11 -10 -7l-22 -32.5t-24.5 -16.5t-29.5 -14q-8 0 -23.5 -3t-21.5 -3q-27 0 -60 28q-45 35 -55 41q-90 119 -96 213q-4 25 -10 58
l-4 10q-9 -25 -33 -74q-21 -4 -10 -28l-52 -82q0 -11 -10 -37q-2 2 -21.5 -22.5t-23.5 -35.5q-14 -10 -51 -65q-27 -39 -76 -55q-18 2 -39 -2q-59 28 -78 84q-6 40 -14 79q8 48 19.5 96t39.5 89q0 10 19 53q14 16 47 76q31 51 45 61q4 21 15.5 33t13.5 16q63 49 88 52l10 -5
q2 2 35 2l57 -30q12 2 33 94q12 55 22 111l123 507q0 9 -9 23t-9 20q0 21 49 89q45 32 88 55l25 2q30 2 30 -47q0 -33 -20 -82q-29 -68 -33 -82q-16 -61 -47 -227q-33 -185 -31 -217q4 -39 -6 -80l8 -23q-10 -39 -10 -117q0 -12 4 -28q4 -19 0 -54q-2 -10 2 -34
q2 -23 -2 -97q10 -30 4 -90q11 -12 11 -61q0 -37 12 -74q14 -51 41 -49l18 2q148 80 211 193q8 16 21 16zM429 369v10q-2 0 -11 2t-13 2q-27 0 -135 -98q-10 -23 -53 -90q0 -13 -7.5 -36.5t-7.5 -37.5q0 -23 17 -23q57 0 124 109z" />
    <glyph glyph-name="e" unicode="e" horiz-adv-x="501" 
d="M753 373q2 -29 -15 -35q-18 -31 -82 -94q-2 -21 -30 -31q-21 -23 -62 -74q-35 -33 -112.5 -89t-129.5 -50q-2 0 -12 2h-14q-19 0 -32 5l-48 18q-92 61 -119 184q-4 4 -4 78q-2 14 -4 16t-27 21l-41 16q-14 4 -45 45q-14 29 0 37q25 31 54 31q4 0 16 -3.5t17 -3.5t19.5 -3
t18.5 -3q27 0 51 49q25 29 64 70q10 0 29.5 11.5l43 25.5t62.5 16q21 0 53 -16l49.5 -21.5t38.5 -31.5q5 -19 23 -45l12 -37q0 -6 -6 -31q0 -6 4 -16q2 -4 -8 -19v-22q-18 -23 -53 -64q-17 -16 -68 -37q-57 -24 -90 -22l-53 2q-19 -4 -17 -35q0 -27 7 -45q10 -27 12 -35
q6 -28 34.5 -47.5t53.5 -21.5q37 2 141 61q45 31 140 113q112 116 112 139q12 8 17 -8zM374 506q0 4 -2 6q-125 -8 -142 -88q13 -6 37 -6q35 0 71 26.5t36 61.5z" />
    <glyph glyph-name="f" unicode="f" horiz-adv-x="425" 
d="M656 535q-29 -37 -197 -80l-225 -56q-6 -18 -6 -39q0 -28 6 -85.5t6 -84.5q0 -98 8 -112q0 -19 4 -60t2 -63q-2 -8 4 -18q-2 -35 2 -95q2 -67 2 -94q0 -92 -55 -211q-63 -137 -145 -137l-8 6q-9 0 -25 -5t-23 -5q-10 6 -23 6t-42 20q-197 138 -250 285q45 -76 92 -119
q37 -28 125 -80q66 -8 55 -8q95 0 136 170l41 250q-5 17 0 43q2 49 2 148q0 241 -13 266l-117.5 -19.5l-117.5 -19.5q-15 -12 -60 -19q-10 5 -39 -6q-36 -14 -41 -14l-12 -8h-28q-29 0 -42.5 23.5t-23.5 43.5v17q0 67 66 92l114 29q19 -7 41 -7q12 0 40 3.5t42 3.5
q25 0 73 -3.5t73 -3.5q28 0 28 13l-6 63q-4 51 0 56l-6 10q2 12 2 22q0 25 -16.5 48.5t-16.5 46.5q0 20 11.5 57t11.5 55q0 58 -4 80q6 23 -4 78v12l2 45l4 25l-9 20q11 8 11 27q0 35 -11 55q9 12 5 27q2 8 2 45q0 26 -23 78q4 14 2 26q-4 33 39 79t78 46q20 0 51 -137
q27 -127 27 -176q18 -29 18 -156q10 -28 21 -86q10 -65 16 -90q-2 -10 8 -37q-2 -6 1 -19.5t3 -19.5q0 -47 -71 -108q-37 2 -49.5 -10.5t-12.5 -47.5q4 -32 4 -112q33 -4 217.5 22.5t206.5 38.5q19 0 19 -30z" />
    <glyph glyph-name="g" unicode="g" horiz-adv-x="745" 
d="M654 270l-8 -18q4 -14 -2 -33q4 -16 -6.5 -38.5t-6.5 -33.5q-6 -12 -2 -18q0 -16 -12 -31q6 -6 6 -8t-5 -8t-5 -12q0 -9 4 -19q-10 -26 -6 -37q-4 -16 -13 -39q-6 -12 -2 -20q-12 -47 -12 -61q-12 -25 -31 -74q-8 -23 -20 -68q-10 -12 -53 -102q-64 -131 -172 -225
q-119 -101 -252 -119l-6 2q-52 0 -58 -6q-24 6 -30 4q-23 6 -25 6t-12 -6q-2 2 -9 6q-2 0 -10 -6q-6 2 -14 -4q-19 8 -37 2q-31 8 -41 4q-6 4 -18 -4q-11 0 -21 4q-10 -2 -29.5 5t-19.5 17q12 8 25 13l4 2q288 0 514 200q235 209 235 496v76q-6 10 0 28l-20 131
q-21 101 -49 101q-9 -8 -21 -29q-43 -82 -145 -242q-11 -14 -31 -43q-16 -2 -16 -32q-7 2 -35.5 -26t-30.5 -40q-16 0 -22 -37q-17 0 -19 9l-18 -11l-49 31q-33 49 -35 109q-2 131 139 475q10 8 27 30q4 19 26 56q13 12 64 39.5t63 25.5q12 -4 23 -2q16 4 22 4q56 0 82 -30
q21 -23 39 -80q16 8 43 6q25 8 33 4q33 8 51.5 -19.5t18.5 -62.5q0 -14 -4.5 -41t-4.5 -41t9.5 -48t7.5 -54.5t2 -57.5zM400 487v5l-25 -19q-45 4 -63 -31q-111 -67 -150 -159q-33 -76 -28 -217q-17 -25 2 -25q59 78 137 221q92 172 127 225z" />
    <glyph glyph-name="h" unicode="h" horiz-adv-x="628" 
d="M797 131q2 -8 -8.5 -21.5t-13.5 -18.5t-71 -73q-22 -22 -77 -49h-9q-10 -2 -26 -2q-47 -2 -117 70t-92 147q-31 -59 -55 -125q-21 -10 -21 -45l-10 -32q-6 -11 -17.5 -15t-27.5 -16q-27 4 -72 8q-33 -4 -73 45t-44 86q0 14 -6 66q-8 67 10 182l37 291q23 166 29 272
q0 4 5 23.5t5 21.5l-4 21q8 47 14 108q0 4 -2 8q11 66 78 74q37 4 63.5 -21.5t30.5 -56.5q0 -6 7 -12q0 -20 2 -70q2 -18 -9 -34q-14 -41 -47 -127q-4 -23 -14 -65t-12 -77q0 -12 -8 -55q-7 -33 -3 -61q-6 -37 -8 -115q-2 -21 -2 -62q2 -18 2 -147q0 -33 4 -90
q13 -94 15 -96q14 2 59 86t43 90q0 4 -10 45q0 6 13 24.5t13 22.5l44.5 42.5t50.5 27.5l24 4q27 4 45.5 -19.5t20.5 -48.5q2 -23 -9.5 -66t-9.5 -63q0 2 2 -14q5 -37 25 -86q31 -72 72 -78q8 -2 46 16.5t62 48.5q17 23 49 62q7 6 7 -31z" />
    <glyph glyph-name="i" unicode="i" horiz-adv-x="405" 
d="M380 981q-35 -88 -80 -96q-22 -4 -39 0q-20 6 -30 6q-17 -4 -78 57q-2 31 -17 78q0 45 43 70q35 18 80 18q11 2 21 0q30 -4 65 -43t35 -70v-20zM534 291q0 -2 -3 -4t-3 -19q0 -6 -9 -12q-6 -4 0 -12q-26 -49 -71 -107l-52 -51q-24 -25 -92 -70q-39 -30 -63 -32
q-14 -11 -23 -2q-24 2 -28 2q-23 2 -54 32q-43 41 -45 41q-16 13 -34 47q-9 46 -9 76q-14 15 -10 41q0 51 4 60q0 24 4 73q11 92 45 119q15 19 56 49q20 2 51 8l24 -4q17 -2 31 -34.5t10 -55.5l-6 -39q-2 -43 -6 -69q-6 -35 -6 -29q-4 -45 -2 -90q0 -10 6 -96q2 -19 14 -58
q4 -2 13 -2q20 0 73 43q39 33 54 49q53 62 94 125q18 29 29 29q2 0 4 -1t4 -7z" />
    <glyph glyph-name="j" unicode="j" horiz-adv-x="487" 
d="M461 1098q0 -37 -20 -74q-25 -47 -60 -47q-10 0 -22 6q-45 -22 -47 -22q-4 -3 -19 4q-8 -4 -16 -4q-43 0 -93 71.5t-50 112.5q0 12 43 72q16 6 49 22q20 0 26 -2q62 0 131 -39q78 -45 78 -100zM615 229q-2 -14 -16.5 -36.5t-65.5 -55.5q-39 -12 -143 -63
q-115 -60 -117 -80l-4 -10q8 -21 4 -29q-6 -14 -6 -25q0 -41 6 -65q-8 -62 2 -72q2 -33 8 -94q-8 -33 2 -74q-2 -8 5 -64.5t12 -68.5q-5 -20 3.5 -58t6.5 -55q67 -120 67 -165q0 -15 -10 -40.5t-20 -31.5l-4 -10q-27 -17 -78 -43q-15 0 -37.5 -4.5t-34.5 -4.5q-35 0 -84 33
l-80 53q-6 17 -37.5 65t-31.5 56l2 8q-23 23 -32 50.5t-22 40.5q2 16 -12 37.5t-14 25.5q0 16 -11 51q0 43 -14 80q4 6 0 14q-6 13 -6 17q0 121 57 211q45 72 152 158q43 24 125 81l2 13l-4 190q-2 4 4 19q4 10 -1 10t-7 14.5t-4 16.5q0 36 -2.5 80.5t-12.5 62.5q2 4 2 12
q0 13 -12 39.5t-14 34.5q0 22 -6 63q0 17 11 46.5t13 37.5q10 11 30.5 28t28.5 28q60 8 95 2q14 -13 37 -53v-29q2 -17 -6.5 -39.5t-8.5 -30.5t2 -14l-14 -29q0 -16 -33 -125v-69q-6 -7 -4 -21v-22q2 -7 -4 -93q-2 -32 -6 -67q0 -8 4 -26.5t2 -28.5q100 32 213 79
q8 -2 30.5 3.5t73.5 46.5q7 4 9 -4.5t6 -8.5q2 0 4 2zM201 -393q-2 14 -2 112q4 9 -1 64t1 63q-6 48 -2 74q0 4 -2 12.5t-2 12.5h-6q-209 -160 -221 -299q4 -23 55 -135q25 -17 59 -58q15 -10 45 -24q4 -9 39 -25q6 -2 23 0q8 43 8 45l-2 29q2 43 4 110q2 15 4 19z" />
    <glyph glyph-name="k" unicode="k" horiz-adv-x="620" 
d="M694 80q-13 -4 -19 -21.5t-32.5 -36t-32.5 -28.5q-6 -2 -39 -19q-25 -10 -41 -10q-51 0 -82 17q-23 0 -63 36q-48 27 -64 53.5t-47 47.5q-12 18 -33 80q-18 45 -41 63q-2 -4 0 -26l4 -29q0 -23 10.5 -82t10.5 -80q0 -8 -9.5 -17.5t-11.5 -13.5h-28q-72 35 -88 109
q-5 72 -9 143q0 25 -8 35l4 14q-8 21 -8 166q4 39 8 150q2 -10 4 164q-2 12 2 30q0 21 -12 183q4 16 4 39q0 45 -10 69q2 12 2 115v24l8 21q4 10 2 22q0 21 18.5 44.5t39.5 23.5q67 0 102 -18q16 -9 78 -66q14 -29 14 -78q0 -12 -2 -31.5t-2 -29.5q0 -19 -14.5 -52.5
t-14.5 -48.5q7 -10 2 -18q-6 -2 -42.5 -139t-30.5 -152q-6 -59 -35 -192q6 -2 0 -17q0 -67 -6 -86q-2 0 4 -24q-8 -19 -4 -30t-2 -15q2 -25 12 -68q16 61 16 92q37 66 72 72l12 12l86 29q47 0 84 -21q45 -26 45 -71q0 -6 -4 -21.5t-2 -23.5q-18 -27 -18 -43q4 -4 -30 -40
t-36 -48q27 -80 101 -140q57 -24 69 -24l21 2q39 20 57 10q21 6 29 2v-8z" />
    <glyph glyph-name="l" unicode="l" horiz-adv-x="413" 
d="M630 82q0 -8 -8 -27q4 -26 -4 -39q-18 -26 -20 -45q-9 -16 -31 -43q-8 -12 -36 -33.5t-34 -19.5q-29 -20 -59 -20h-27q-26 2 -67 20q-76 19 -156 136.5t-80 205.5q0 19 4 31q-6 14 -6 114q0 41 13.5 127t13.5 129q4 13 4 33q18 27 8 54q-2 16 3 39.5t5 35.5l14 35
q-6 21 18.5 107t20.5 104h-4q4 10 17 160q-4 16 0 45q4 37 4 43q33 67 26 100q11 21 7 43q24 66 73 119q58 66 115 66q43 0 72.5 -31t29.5 -72l4 -4q-4 -47 -22 -80q-27 -57 -29 -63q-12 -13 -28 -35q-68 -389 -177 -608v8l58 207q45 168 45 247l-2 9q-31 -33 -62 -88
q-34 -64 -34 -99q0 -41 -19 -141q-18 -90 -14 -141q-2 -29 -8 -84q4 -6 0 -64v-43q10 -35 10 -104q0 -29 15.5 -91.5t15.5 -93.5l12 -32q0 -66 39 -170q43 -123 92 -123q82 0 174 176q2 2 6 16q8 0 8 -16z" />
    <glyph glyph-name="m" unicode="m" horiz-adv-x="1030" 
d="M1239 307l-2 2q-4 0 -4 -22q0 -4 -9.5 -12.5t-9.5 -12.5l4 -8q0 -2 -77 -102q-58 -62 -66 -70q-27 -25 -63 -45q0 -19 -37 -28t-56 -3l-12 -4q-49 0 -100 66.5t-43 121.5q-2 5 -2 43q-2 3 2 17q0 29 4 41v45l-4 2q-8 0 -51 -72l-52 -86q-4 -6 -38.5 -68.5t-34.5 -64.5
l-13 -8h-24l-8 -4q-33 0 -95 67q-22 41 -22 97q-4 10 -4 37q0 24 4 34q0 19 4 53.5t4 53.5l-6 12q-29 -18 -54.5 -54l-47 -66.5t-64.5 -80.5q-2 -6 -18 -41q-15 -26 -15 -41q0 -10 7.5 -34.5t7.5 -36.5q0 -25 -21.5 -51.5t-46.5 -26.5l-6 2q-33 0 -70 23.5t-41 56.5l-8 16
v74q4 6 2 14q0 17 15.5 43.5t29.5 34.5q64 217 64 246q0 6 -8.5 10t-8.5 15l49 110q37 53 133 64q15 2 28 -16.5t15 -35.5l-4 -2l-2 -28q-4 -13 -65 -117q-51 -84 -74 -207l-2 -39q35 35 135 166q84 109 129 139q25 9 47 9q43 6 66 -39q18 -35 18 -86l-4 -7
q0 -36 -16.5 -110t-16.5 -113q-4 -6 -4 -24q4 -9 4 -27l5 -2q63 76 163 258q-4 12 -4 16q0 23 76 70l23 2q41 4 71.5 -33t30.5 -80q0 -12 -4 -22q2 -4 4 -10q-2 -2 -4 -13l10 -22q-10 -37 -10 -156q0 -18 11 -41.5t28 -23.5q37 0 144.5 130t105.5 130z" />
    <glyph glyph-name="n" unicode="n" horiz-adv-x="829" 
d="M952 76q0 -6 -10.5 -26.5t-40.5 -61.5q-7 -2 -11 -8q-2 -3 -4 0q-22 -21 -59 -21q-2 0 -11.5 -3t-13.5 -1q-6 4 -41 4q-20 0 -76 33q-47 26 -57 37q-18 28 -43 57q-39 115 -59 223q-4 -2 -37 -63q-19 0 -39 -60l-53 -80q4 0 -4 3q-2 -7 -2 -23q-11 0 -26 -28.5t-91 -45.5
q-62 8 -124.5 70.5t-62.5 128.5q0 47 -5 140t-5 141q0 4 -5 11t-5 15q0 -2 14 31q78 67 117 67q41 0 66 -30q8 -23 22 -68q-6 -6 -4 -33v-69q0 -6 -5 -26.5t-5 -31.5v-84q0 -98 4 -122q4 -17 12 -56q6 -2 4 -2q23 0 88 107q82 137 84 139q13 25 41 72q72 71 125 71
q39 0 63.5 -36.5t24.5 -75.5t6 -109q21 -63 39 -129q45 -123 78 -123q23 0 55 31q23 22 45 47q13 -4 11 -4v-8z" />
    <glyph glyph-name="o" unicode="o" 
d="M649 313q-27 -104 -119 -202q-26 -29 -86 -88q-63 -37 -106 -37q-117 0 -240 137q-16 55 -43 129q2 10 -4 27q4 55 29 116q18 51 16 66q0 2 5 11t5 13q13 95 129 131q9 2 15 8.5t39 6.5q2 2 28 2q21 0 36 -23.5t15 -40.5q0 -14 -12 -48t-12 -40v-24q10 -4 8 -4h16
q13 -2 19 -2q8 0 37 6q24 4 47 0q51 -8 121 -33l34 -37q19 0 23 -74zM518 248v16q0 33 -80 75t-123 42h-14q-21 -14 -62 -33q-4 -22 -16 -43.5t-12 -37t-2 -20.5t-2 -7q0 -9 4 -27t4 -31.5t7 -33t7 -27.5q8 -25 42 -48.5t61 -23.5q43 0 102 60q53 55 63 94q21 37 21 45z" />
    <glyph glyph-name="p" unicode="p" horiz-adv-x="868" 
d="M840 336q0 -49 -37 -178q-24 -4 -51 -60q-29 -67 -41 -78q0 -10 -29 -57l-55 -59q-20 -19 -94 -21q-25 6 -66 33q-10 10 -26.5 54t-16.5 61q0 6 12.5 35.5t14.5 39.5q25 25 70 113q51 31 98 78q59 61 59 104q0 97 -127 97q-55 0 -190 -56l-2 4q-4 -14 -21 -43
q6 -16 -14 -63h6q4 0 0 -14q-2 -17 -6 -23q4 -70 2 -90q0 -4 -10 -37q6 -14 -2 -31l10 -20q0 -19 -10 -43q0 -21 10 -53q-8 -19 -6 -43q4 -49 4 -43q0 -21 -8 -41q14 -33 2 -56q10 -8 10 -20q-20 -8 -2 -51q-4 -15 2 -21q-6 -16 -4 -65q-2 -25 2 -66q4 -47 4 -65
q0 -15 -2 -41q0 -90 4 -105q-4 -10 -4 -59q0 -123 37 -217q0 -86 -70 -86q-53 0 -75 49q-11 22 -41 51q-37 35 -48 49l19 13q29 -9 49 2q33 41 43 118q6 66 14 131l2 52q0 18 4.5 60t2.5 65q-2 4 2 18q0 6 -2 41q-2 27 0 43q2 22 12 39q-6 0 -8 14q0 10 1 26.5t3 22.5h-2
q-2 6 -2 31q4 4 2 14q-4 19 -4 21q0 6 2 18v19q10 6 -2 28q-4 35 2 66q-6 14 -3 51t-1 47q2 123 -7 250q-41 -2 -180 -117q-112 -92 -172 -153l-24 -2q-25 -2 -46.5 23.5t-21.5 52.5q0 55 35 96q8 10 78 67q14 0 27.5 10.5l25.5 20.5q55 31 278 131q9 19 13 53q-6 17 -6 33
q0 127 92 172q47 0 57 4q55 -24 55 -86q0 -35 -57 -108v-8q25 0 69 14t64 14q14 0 41 6q41 0 76 -10q47 -14 63 -16l52 -31q32 -23 34 -41l13 -29q0 -20 12 -45q-6 -2 -6 -24q0 -13 6 -39.5t6 -40.5z" />
    <glyph glyph-name="q" unicode="q" horiz-adv-x="610" 
d="M823 -319q-30 -29 -107 -81.5t-110 -88.5q-137 -156 -137 -189q0 -6 16.5 -36.5t16.5 -57.5q0 -59 -74 -59q-43 0 -76 77q-28 64 -28 115q0 6 11 18.5t11 47.5q0 26 10 110q6 70 2 137q4 4 4 31v78q7 102 7 227q0 33 5 99.5t5 99.5q0 47 -6 47q-13 -27 -25 -29l-65 -77
q-39 -44 -82 -62q-23 -22 -52 -29q-41 -45 -75 -45q-31 0 -51.5 33t-20.5 66q0 34 87 234t116 226q41 91 178 91q37 0 65.5 -24t28.5 -58q0 -29 -31 -68l9 -4l18 10h25q71 0 71 -100q0 -27 -10 -74t-10 -70q-19 -47 -36 -143t-34 -141l6 -6q-34 -142 -34 -197q0 -12 2 -18
q0 -9 -7.5 -32.5t-5.5 -41.5q-2 -4 -2 -25q0 -18 2 -20q-14 -23 -10 -43q10 -10 6 -17l-2 -16v-82q0 -4 2 -12t2 -12l127 110q135 113 195 129q4 -4 10 -4q10 0 18 8l17 -8l-2 -6q0 -16 16 -8zM420 489v5q-12 0 -31.5 -3.5t-30.5 -3.5q-260 -165 -260 -342q0 -10 13 -26
q34 4 132.5 114.5t94.5 131.5q-6 18 -6 32q0 11 39 47q32 35 49 45z" />
    <glyph glyph-name="r" unicode="r" horiz-adv-x="567" 
d="M690 246q-10 -19 -31 -66q-18 -22 -41 -59q-8 -17 -63 -72q-62 -59 -90 -72h-25q-31 0 -78 50.5t-47 78.5q0 13 -4 74l4 62q-2 0 -4 4t-4 4l-27.5 -19.5t-54.5 -19.5t-35 12q-22 4 -61 25q-58 63 -58 67q-12 74 -12 62v29q0 26 18 57q31 51 35 54t35 23.5t35 20.5
q8 -4 6 -4q2 0 18.5 8t18.5 8q31 -14 53 -28q8 -2 17 -29v-24v-9q-3 -6 -3 -12t-16 -41q-22 -18 -47 -35q-16 -16 -16 -43q0 -33 18 -55q-2 -4 0 -10t6 -6q8 0 30.5 15t31.5 30q0 -4 -11 32q0 4 32 29l37 29t22.5 9t25.5 7h29q16 0 28.5 -16.5t12.5 -30.5q0 -4 -2 -19.5
t-2 -21.5q0 -12 -4 -33l-2 -92q-5 -12 -5 -31q0 -6 2.5 -20t2.5 -16l-3 -23q9 -45 15 -45q41 4 127 92q14 14 82 111q6 -2 10 -4q-2 -19 -6 -37z" />
    <glyph glyph-name="s" unicode="s" horiz-adv-x="514" 
d="M462 106q0 -18 -18 -61q-41 -45 -99 -53q-92 -12 -104 -12q-16 0 -38.5 2t-41.5 2h-27l-20 14l117 37q71 22 92 61q-25 27 -82 70t-84 72q-27 22 -53.5 75.5t-28.5 81.5q-4 64 27.5 126.5t93.5 74.5l29 10q6 4 30 8q17 0 29 2q25 0 64.5 -26.5t52.5 -50.5l14 -43v-21
q0 4 -18 -37q-15 -30 -74 -71l49 -70q29 -41 57 -111l18.5 -20.5t18.5 -38.5q0 -10 -8 -12q4 -17 4 -9z" />
    <glyph glyph-name="t" unicode="t" horiz-adv-x="534" 
d="M807 664q0 -17 -8 -21q-74 -25 -244 -59q-180 -35 -243 -35q-13 0 -29 -12q-2 -50 -10 -103l-2 -55q0 -43 4 -90q-6 -101 39 -219q53 -142 141 -142q92 0 236 172q6 0 6 -6l-17 -26q-20 -48 -36 -39q-3 -11 -10 -21t-5 -14l-6 -10q-10 0 -17.5 -9.5t-13.5 -11.5
q-2 10 -8 -3t-10 -26q-31 -8 -29 -14q-24 -10 -28 -20q-11 2 -30.5 -10.5t-27.5 -12.5t-14 4q-12 -2 -35 -4q-104 2 -188 111q-78 100 -74 190q-6 23 -10 60q14 10 0 24q0 123 -2 125q0 66 2 64v71h-19q0 -2 -22.5 -1t-60.5 -29.5t-66 -30.5q-29 0 -51.5 19.5t-22.5 47.5
q0 37 35 66t74 29q34 0 61 -15q2 2 27 -6l45 6q0 17 8 47q-8 11 2 39q2 27 -6 82q4 35 -2 68q2 2 4 6q-2 2 -4 18q10 33 4 50q0 6 12 45q10 32 8 34q2 23 4 29q2 21 21 55l22 11q0 10 14.5 23t16.5 18q33 57 111 57q75 0 75 -55q0 -70 -4 -74l2 -14q-18 -35 -41 -111l-8 -14
q0 -21 -13 -51.5t-13 -53.5q-2 -2 -9 -35q-40 -57 -45 -157q-2 -7 7 -13q122 9 385 35q120 19 118 17z" />
    <glyph glyph-name="u" unicode="u" 
d="M866 225q-9 -8 -19 -24q0 -4 -22 -29q-2 4 -9 -8q-10 -21 -14 -25q-63 -71 -172 -145q-12 -4 -39 -4q-6 4 -22 10q-41 10 -77 51t-36 82q0 55 -16 72l-93 -113q-26 -33 -108 -102q-35 -15 -55 -13q-15 3 -35 17q-27 20 -29 22q-65 58 -70 224q7 8 2 20l9 92q12 68 -11 97
q-18 61 -6 67q13 6 21 22.5t24 18.5q15 12 33 37q25 16 78 39q14 -2 39 2q16 -6 43 -17q37 -6 43 -10q20 -16 29 -24q0 -27 10 -43l-4 -33q-2 -14 -43 -53q-25 -21 -47.5 -43.5t-47.5 -55.5q-34 -47 -38 -151q-5 -133 18 -139q43 -21 131 135q31 71 102 198q35 52 105 43
q33 0 39 -15t4 -36q0 -2 2 -12v-12q0 -17 2 -19l-2 -22q2 -25 -2 -74q0 -29 8 -100q10 -97 25 -101q20 -6 114 80q88 82 90.5 95.5t34.5 17.5q8 -6 5 -8.5t6 -10.5z" />
    <glyph glyph-name="v" unicode="v" horiz-adv-x="483" 
d="M634 367q-34 -29 -36 -29t-14.5 -7t-18.5 -7h-47q-29 0 -60 12q-4 -19 -61 -141l-68 -121l-26 -56q-4 -10 -15 -22q-32 -8 -30 -8q-4 0 -14.5 5t-14.5 5q-2 0 -5 -3t-5 -3q-10 0 -52 25.5t-51 33.5q-20 23 -59 80q-31 90 -31 168q0 2 -5 13.5t-5 13.5v57v18q6 41 6 43v25
q0 29 31 59l64.5 49.5t70.5 24.5t47 -33l10.5 -10t10.5 -14q0 -10 2 -27.5t2 -25.5q0 -15 -3 -28t-3 -22.5t-2.5 -29t-2.5 -28.5t-8 -35.5t-2 -69.5v-60q-2 -12 -6 -16v-51q8 -41 37 -76q25 30 53 114q27 76 27 103q6 65 6 67q-4 50 27 68q24 14 67 8q19 -2 45.5 -32.5
t63.5 -30.5h24q4 6 13.5 9t9.5 7q28 21 24 23q15 -9 4 -45z" />
    <glyph glyph-name="w" unicode="w" horiz-adv-x="825" 
d="M1024 395q-43 -33 -56 -33q-41 0 -180 -49q-6 -2 -17 -50t-11 -56v-23q0 -26 -37 -137q-8 -16 -35 -37q-2 -8 -10 -12q-23 -6 -25 -6l-41 6q-141 37 -225 186h-4q-19 -71 -56 -127q-12 -28 -49 -77q-8 -37 -53 -37q-12 0 -42 21.5t-24 29.5q-14 12 -22 37q-23 73 -23 102
v21q0 36 -4 62t-14 75q0 16 -6 36.5t-6 28.5q0 21 -4 36.5t-4 19.5q0 6 2 10v29l-12.5 33.5t-12.5 50.5q4 10 10 20v20q0 35 29 60q18 10 49 31h16q101 0 101 -113q0 -14 -12.5 -42t-12.5 -34q0 -16 -9 -36.5t-9 -22.5q2 -27 -4 -31q0 -18 -11 -55l-2 -68q0 -26 1 -47.5
t14 -58.5v-19q0 -8 13 -46t20 -46q32 37 43 62q16 38 30 79q13 31 13 78q-5 6 -13 21q2 8 -4 18q33 68 39 78q27 43 61 57h37q21 0 43 -45q11 -24 22 -52l40 -97q20 -37 59 -117q33 -49 45 -49q23 0 23 61v23q-47 74 -56 149q-2 21 -2 25q0 39 24 81t58 42h17q26 0 46.5 -43
t24.5 -43q5 0 14 2t11 2q20 0 61 8t60 8q6 0 40 12.5t38 15.5t6 3q16 0 -2 -31z" />
    <glyph glyph-name="x" unicode="x" horiz-adv-x="542" 
d="M662 651q0 -12 -47 -106q-2 -19 -16 -45q-25 -25 -39 -47q-4 -4 -8 0q-6 4 -8 4q-11 0 -49.5 -30t-50 -45t-91.5 -81q-16 -16 -16 -31q0 -8 13 -29.5t11 -23.5l35 -41q51 -78 129 -110q8 -7 6 -11q-2 -6 -20 -4q-68 8 -158 75t-88 67q-10 0 -49 -58q-25 -45 -43 -119
q-14 -59 -31 -120q0 -2 -16 -64l-8 -57q-6 -35 -23 -56q-4 -2 -7 -10t-9 -8t-31 37q-6 26 -25 125v22q0 54 -2 43q23 107 89 207q10 10 43 53q38 52 38 64q0 31 -28 59q-47 45 -53 54q-37 53 -111 118q-14 27 -55 72q-11 8 -19 42t-4 52q4 27 29.5 51.5t52.5 22.5l16 8
q19 0 70 -22q45 -21 57.5 -29t24.5 -23.5t42 -86t30 -81.5q-2 -6 -2 -4q0 -32 18 -57q43 72 109 219q26 8 47 41q6 2 12 8q4 41 29 47q8 2 30.5 14.5t34.5 12.5q6 0 14.5 -2t10.5 -2t11 2t11 2q37 0 62.5 -30.5t25.5 -65.5q6 -25 6 -23z" />
    <glyph glyph-name="y" unicode="y" horiz-adv-x="827" 
d="M1048 313q-8 -12 -21.5 -18t-27.5 -23q-6 -12 -27.5 -24t-28.5 -12q-43 -23 -92 -52l-55 -28q-47 -31 -49 -56l-4 -65q0 -6 -9.5 -27.5t-9.5 -34.5v-24q-4 -19 -16 -51q-4 -9 -4 -37q-8 -15 -19 -43q-12 -45 -43 -109q-41 -82 -47 -98l-38.5 -59.5t-18.5 -59.5
q-10 -10 -10 -43q0 -10 -10.5 -28.5t-12.5 -26.5q-49 -37 -84 -37q-37 0 -73.5 40t-36.5 75q0 8 -2.5 25.5t-2.5 25.5q0 106 43 170q0 20 8.5 40.5t8.5 24.5v29q28 86 100 186q29 33 92 95l58 49v43q2 12 -1 38.5t-3 30.5q0 33 -25 90q-29 72 -66 72h-24q-37 0 -107.5 -50
t-72.5 -79q-13 -4 -25 -27.5l-22 -44.5l-25 -28q-14 -17 -14 -31q0 -16 2 -30.5t2 -20.5q0 2 -19 -47q-39 0 -37 -6q-16 10 -51 24l-32.5 37t-16.5 39v39q-2 24 -2 39l-4 18q-2 13 4 17q0 -2 -8 43q-6 36 -2 41q-2 16 -3 25l-1 9q-13 -2 -21 27q-10 29 0 39v22q0 13 80 82
q41 29 98 29q27 0 51.5 -27.5t30.5 -56.5v-45q-2 -27 -2 -41q-6 0 85 67.5t169 67.5q101 0 176 -94q33 -98 33 -86l-2 -6t-2 -10q2 -7 10 -11q-2 -6 -2 -12q0 -8 4 -24.5t4 -26.5q0 -14 -6 -29q2 0 3 -2t3 -2q183 92 220 92q2 0 18 13q10 -9 18 0zM607 -4v14q-8 0 -49 -37
q-88 -79 -137 -249q-6 -23 -6 -52q20 -20 33 -20q24 0 94 160q65 153 65 184z" />
    <glyph glyph-name="z" unicode="z" horiz-adv-x="741" 
d="M867 332q0 -15 -9.5 -29t-5.5 -14q-39 -60 -90 -131l-74 -168q-12 -17 -30 -72q-17 -47 -17 -52t-4 -32q-12 -78 -12 -82v-20q-2 -15 -2 -21q0 2 -12 -35l-7 -88q2 -47 -26.5 -81.5t-69.5 -34.5t-57 14q-39 39 -53 68l-2 43q-11 14 -9 18q4 12 4 14q0 11 2 33v33
q0 6 35 58t37 61l55.5 50.5t42.5 57.5q15 17 39 55q9 19 25 86q12 54 12 105q0 68 -24 94h-25q-41 0 -125 -49q-90 -55 -90 -96v-25q-2 -4 -2 -2v-33q0 4 -6 -10v-33q0 -10 -21.5 -47t-23.5 -26q2 0 -23 -7q-82 0 -112 115q-7 23 -7 25q0 69 9 94q18 16 45 47q12 27 49 131
q41 125 41 164v51q0 23 -17 23q-18 0 -41 -41q-8 -19 -24 -49q-16 -23 -45 -43q-14 -7 -43 -20t-70 -5q-14 8 -33 16q-30 13 -36 33q-2 8 -17 41q-8 21 -8 39q0 45 45 94q33 17 100 43q9 8 25 18.5t55 10.5q13 0 36.5 5t31.5 5t32.5 7t32.5 7q33 -8 45 -8q29 0 58 -18
q14 -2 29.5 -36t15.5 -52v-53q0 -43 -42 -177.5t-42 -136.5v-20h4q172 73 219 73q27 0 39 -2q29 -4 53.5 -33.5t24.5 -60.5q0 -20 -2 -22l2 -2l112 141q0 -2 3 -2v-4z" />
    <glyph glyph-name="braceleft" unicode="{" horiz-adv-x="641" 
d="M573 1401q0 -27 -30.5 -44.5t-71.5 -17.5q-4 0 -14.5 3.5t-14.5 3.5q-18 4 -67 4t-117 -47q-25 -17 -25 -48q0 -47 58 -143q47 -74 96 -129q92 -102 92 -201q0 -116 -196 -182q-17 -4 0 -8q196 -66 196 -184q0 -48 -30.5 -117.5t-71.5 -114.5q-139 -156 -139 -250
q0 -10 6 -24q22 -84 118 -84q50 0 68 4q4 0 14.5 3t14.5 3q41 0 71.5 -17.5t30.5 -43.5q0 -43 -49 -43q-21 0 -31 8t-45 17t-69 13q-115 15 -197 75.5t-82 135.5q0 76 153.5 252t153.5 234q0 43 -90 73q-65 25 -135 31q-16 2 -24.5 11.5t-4.5 15.5l-10 8q0 4 2 6
q18 23 37 23q70 8 135 30q90 31 90 74q0 57 -153.5 234.5t-153.5 253.5q0 71 90 122q78 45 201 64q24 2 71 12q33 8 46 21q6 6 28 6q49 0 49 -43z" />
    <glyph glyph-name="bar" unicode="|" horiz-adv-x="485" 
d="M352 1128q-7 -73 -17 -221q-6 -162 -20 -489q-9 -164 -6 -213q2 -49 8 -166q8 -107 8 -166q0 -33 -19 -68q-24 -45 -100 -45q-55 0 -55 105q0 37 10 115.5t10 203.5q0 129 -12 371l-23 410q-2 39 -12 135q-8 82 -8 133q0 39 4 74q12 28 41 88q25 45 82 45q43 0 86 -25
q37 -22 37 -112q0 -35 -6 -95q-8 -69 -8 -80z" />
    <glyph glyph-name="braceright" unicode="}" horiz-adv-x="641" 
d="M573 -51q0 -74 -88 -125q-80 -45 -200 -62q-35 -4 -70 -13t-45 -17t-33 -8q-20 0 -34.5 14t-14.5 29q0 26 30.5 43.5t71.5 17.5q7 0 17 -3t12 -3q19 -4 68 -4t118 47q7 4 16 22.5t9 24.5q0 96 -156 272q-90 103 -90 199q0 121 197 184q6 2 6 4t-6 4q-197 64 -197 185
q0 47 31 115.5t70 113.5q139 156 139 252q0 6 -4 23q-23 86 -121 86q-49 0 -68 -4q-2 0 -12 -3.5t-16 -3.5q-41 0 -72 17.5t-31 44.5q0 14 14.5 28.5t34.5 14.5q23 0 33 -8.5t43 -18.5q15 -4 72 -12q115 -16 195.5 -75.5t80.5 -135.5t-152.5 -253t-152.5 -232q0 -45 90 -76
q68 -25 136 -29q14 -2 23 -11t5 -15l10 -11q0 -4 -2 -6q-20 -20 -36 -20q-72 -6 -136 -31q-90 -31 -90 -76q0 -55 152.5 -232t152.5 -253z" />
    <glyph glyph-name="asciitilde" unicode="~" horiz-adv-x="1048" 
d="M989 602q0 -18 -95 -117l-122 -125q-33 -12 -60.5 -23t-71.5 -11h-38q-58 0 -160.5 86t-110.5 86q-14 0 -92 -69t-108 -69q-109 0 -109 103q0 72 141 158q119 71 156 73q31 2 37 2q76 0 182.5 -97l106.5 -97q45 45 75 71q88 76 146 91q8 2 43 2q45 0 62.5 -12.5
t17.5 -51.5z" />
    <glyph glyph-name="dieresis" unicode="&#xa8;" horiz-adv-x="1024" 
 />
    <glyph glyph-name="copyright" unicode="&#xa9;" horiz-adv-x="750" 
 />
    <glyph glyph-name="registered" unicode="&#xae;" horiz-adv-x="750" 
 />
    <glyph glyph-name="acute" unicode="&#xb4;" horiz-adv-x="1024" 
 />
    <glyph glyph-name="paragraph" unicode="&#xb6;" horiz-adv-x="1024" 
d="M929 1435v-70h-127v-1365h-82v1365h-166v-1365h-84v738q-174 8 -275.5 102.5t-101.5 245.5q0 157 107.5 253t285.5 96h443z" />
    <glyph glyph-name="onequarter" unicode="&#xbc;" horiz-adv-x="1950" 
 />
    <glyph glyph-name="onehalf" unicode="&#xbd;" horiz-adv-x="1950" 
 />
    <glyph glyph-name="threequarters" unicode="&#xbe;" horiz-adv-x="1950" 
 />
    <glyph glyph-name="Agrave" unicode="&#xc0;" horiz-adv-x="972" 
d="M1053 438q-31 -22 -96 -45q-80 -28 -99.5 -37.5t-19.5 -15.5q0 -78 109 -338q-2 -14 2 -44t4 -42q0 -16 -33 -43l-8 2q-14 -12 -51 -12q-13 0 -33 4l-2 59l-143 381q-80 -16 -283 -63q-64 -13 -162 -43q-20 -11 -57 -62l-2 -53q-35 -57 -58 -57q-53 0 -82.5 42t-23.5 89
q0 20 -37 94v25q0 34 35 69t69 35q39 55 95 197q49 133 86 174q12 39 75 139q5 31 29 82q8 0 14.5 15.5t16.5 17.5q117 28 124 26t11 19q35 125 102 118l23 -2q68 -18 94 -73l25 -70q-4 -22 6 -49q-6 -16 -2 -62q-8 -14 0 -41q2 -30 -4 -90q6 -14 6 -100q0 -51 16 -133
q19 -105 23 -133h16q-10 0 68 14q8 0 69 10q47 7 78 4v-8zM664 395q-2 17 -80 363h-8q-49 0 -184 -159t-135 -210q0 -20 79 -22h101q133 10 227 28zM758 1251q0 -6 -4 -6q-6 4 -39 19l-20 8q-17 8 -12 14q-52 31 -162 82q-21 14 -66 29q-41 2 -67.5 24.5t-26.5 55.5v26
q0 17 25.5 43.5t41 28.5t23.5 2q49 0 75.5 -43t78.5 -98l84.5 -94.5l33.5 -36.5q35 -31 35 -54z" />
    <glyph glyph-name="Aacute" unicode="&#xc1;" horiz-adv-x="972" 
d="M1053 438q-31 -22 -96 -45q-80 -28 -99.5 -37.5t-19.5 -15.5q0 -78 109 -338q-2 -14 2 -44t4 -42q0 -16 -33 -43l-8 2q-14 -12 -51 -12q-13 0 -33 4l-2 59l-143 381q-80 -16 -283 -63q-64 -13 -162 -43q-20 -11 -57 -62l-2 -53q-35 -57 -58 -57q-53 0 -82.5 42t-23.5 89
q0 20 -37 94v25q0 34 35 69t69 35q39 55 95 197q49 133 86 174q12 39 75 139q5 31 29 82q8 0 14.5 15.5t16.5 17.5q117 28 124 26t11 19q35 125 102 118l23 -2q68 -18 94 -73l25 -70q-4 -22 6 -49q-6 -16 -2 -62q-8 -14 0 -41q2 -30 -4 -90q6 -14 6 -100q0 -51 16 -133
q19 -105 23 -133h16q-10 0 68 14q8 0 69 10q47 7 78 4v-8zM664 395q-2 17 -80 363h-8q-49 0 -184 -159t-135 -210q0 -20 79 -22h101q133 10 227 28zM799 1493q0 -49 -28 -66q-7 -8 -23 -20l-141 -78q-29 -18 -72 -26q-16 -7 -53 -17q-4 0 -12 -6q-9 -4 -13 0
q-12 -10 -28 -14q-7 0 -13 2q47 43 86 84q94 94 127 151q0 2 6 29q2 8 27 24.5t35 18.5q31 6 61.5 -14.5t36.5 -49.5q4 -4 4 -18z" />
    <glyph glyph-name="uni1EA2" unicode="&#x1ea2;" horiz-adv-x="972" 
d="M1053 438q-31 -22 -96 -45q-80 -28 -99.5 -37.5t-19.5 -15.5q0 -78 109 -338q-2 -14 2 -44t4 -42q0 -16 -33 -43l-8 2q-14 -12 -51 -12q-13 0 -33 4l-2 59l-143 381q-80 -16 -283 -63q-64 -13 -162 -43q-20 -11 -57 -62l-2 -53q-35 -57 -58 -57q-53 0 -82.5 42t-23.5 89
q0 20 -37 94v25q0 34 35 69t69 35q39 55 95 197q49 133 86 174q12 39 75 139q5 31 29 82q8 0 14.5 15.5t16.5 17.5q117 28 124 26t11 19q35 125 102 118l23 -2q68 -18 94 -73l25 -70q-4 -22 6 -49q-6 -16 -2 -62q-8 -14 0 -41q2 -30 -4 -90q6 -14 6 -100q0 -51 16 -133
q19 -105 23 -133h16q-10 0 68 14q8 0 69 10q47 7 78 4v-8zM664 395q-2 17 -80 363h-8q-49 0 -184 -159t-135 -210q0 -20 79 -22h101q133 10 227 28zM952 1609q0 -39 -56 -111q-19 -39 -74 -95l-59 -50q-33 -29 -47 -47q24 -4 24 -27q0 -10 -15 -38q-7 -1 -23 -7.5t-24 -6.5
q-25 0 -32 13q-4 9 -4 35q0 30 73 115q99 112 101 115q8 13 27 49q20 40 21 50q-1 3 -11 3q-84 -21 -122 -44q-63 -35 -81 -95q-14 -50 -54 -50q-51 0 -69 65q-2 52 63 95q29 4 137 41q97 33 141 32q36 -1 53 -8q22 -9 31 -34z" />
    <glyph glyph-name="Atilde" unicode="&#xc3;" horiz-adv-x="972" 
d="M1053 438q-31 -22 -96 -45q-80 -28 -99.5 -37.5t-19.5 -15.5q0 -78 109 -338q-2 -14 2 -44t4 -42q0 -16 -33 -43l-8 2q-14 -12 -51 -12q-13 0 -33 4l-2 59l-143 381q-80 -16 -283 -63q-64 -13 -162 -43q-20 -11 -57 -62l-2 -53q-35 -57 -58 -57q-53 0 -82.5 42t-23.5 89
q0 20 -37 94v25q0 34 35 69t69 35q39 55 95 197q49 133 86 174q12 39 75 139q5 31 29 82q8 0 14.5 15.5t16.5 17.5q117 28 124 26t11 19q35 125 102 118l23 -2q68 -18 94 -73l25 -70q-4 -22 6 -49q-6 -16 -2 -62q-8 -14 0 -41q2 -30 -4 -90q6 -14 6 -100q0 -51 16 -133
q19 -105 23 -133h16q-10 0 68 14q8 0 69 10q47 7 78 4v-8zM664 395q-2 17 -80 363h-8q-49 0 -184 -159t-135 -210q0 -20 79 -22h101q133 10 227 28zM836 1452q0 -12 -113 -125q-49 -18 -67 -18h-23q-28 0 -87.5 37.5t-63.5 37.5q-8 0 -33 -18t-41 -18q-55 0 -55 53
q0 37 84 78q51 22 90 32h20q39 0 63.5 -37.5l24.5 -37.5q35 26 119 67q8 2 23 2q22 0 40.5 -16t18.5 -37z" />
    <glyph glyph-name="uni1EA0" unicode="&#x1ea0;" horiz-adv-x="972" 
d="M1053 438q-31 -22 -96 -45q-80 -28 -99.5 -37.5t-19.5 -15.5q0 -78 109 -338q-2 -14 2 -44t4 -42q0 -16 -33 -43l-8 2q-14 -12 -51 -12q-13 0 -33 4l-2 59l-143 381q-80 -16 -283 -63q-64 -13 -162 -43q-20 -11 -57 -62l-2 -53q-35 -57 -58 -57q-53 0 -82.5 42t-23.5 89
q0 20 -37 94v25q0 34 35 69t69 35q39 55 95 197q49 133 86 174q12 39 75 139q5 31 29 82q8 0 14.5 15.5t16.5 17.5q117 28 124 26t11 19q35 125 102 118l23 -2q68 -18 94 -73l25 -70q-4 -22 6 -49q-6 -16 -2 -62q-8 -14 0 -41q2 -30 -4 -90q6 -14 6 -100q0 -51 16 -133
q19 -105 23 -133h16q-10 0 68 14q8 0 69 10q47 7 78 4v-8zM664 395q-2 17 -80 363h-8q-49 0 -184 -159t-135 -210q0 -20 79 -22h101q133 10 227 28zM498 -230q0 -106 -82 -117q-31 -4 -37 -4q-29 0 -52.5 32t-23.5 58v31q0 37 43 62q35 18 76 18q23 -4 49.5 -31.5
t26.5 -48.5z" />
    <glyph glyph-name="Acircumflex" unicode="&#xc2;" horiz-adv-x="972" 
d="M1053 438q-31 -22 -96 -45q-80 -28 -99.5 -37.5t-19.5 -15.5q0 -78 109 -338q-2 -14 2 -44t4 -42q0 -16 -33 -43l-8 2q-14 -12 -51 -12q-13 0 -33 4l-2 59l-143 381q-80 -16 -283 -63q-64 -13 -162 -43q-20 -11 -57 -62l-2 -53q-35 -57 -58 -57q-53 0 -82.5 42t-23.5 89
q0 20 -37 94v25q0 34 35 69t69 35q39 55 95 197q49 133 86 174q12 39 75 139q5 31 29 82q8 0 14.5 15.5t16.5 17.5q117 28 124 26t11 19q35 125 102 118l23 -2q68 -18 94 -73l25 -70q-4 -22 6 -49q-6 -16 -2 -62q-8 -14 0 -41q2 -30 -4 -90q6 -14 6 -100q0 -51 16 -133
q19 -105 23 -133h16q-10 0 68 14q8 0 69 10q47 7 78 4v-8zM664 395q-2 17 -80 363h-8q-49 0 -184 -159t-135 -210q0 -20 79 -22h101q133 10 227 28zM838 1262q2 -9 -16 -11q-31 -2 -111 54l-94 67l-78 -49q-57 -45 -106 -47q-21 -10 -43 -10q-6 0 -17 -6q-4 -3 -14 2l31 43
q8 2 9 7t3 3q68 57 92 108q2 17 12 47q15 25 58 29q59 6 102 -43q12 -16 39 -49q59 -61 133 -145z" />
    <glyph glyph-name="uni1EA6" unicode="&#x1ea6;" horiz-adv-x="972" 
d="M1053 438q-31 -22 -96 -45q-80 -28 -99.5 -37.5t-19.5 -15.5q0 -78 109 -338q-2 -14 2 -44t4 -42q0 -16 -33 -43l-8 2q-14 -12 -51 -12q-13 0 -33 4l-2 59l-143 381q-80 -16 -283 -63q-64 -13 -162 -43q-20 -11 -57 -62l-2 -53q-35 -57 -58 -57q-53 0 -82.5 42t-23.5 89
q0 20 -37 94v25q0 34 35 69t69 35q39 55 95 197q49 133 86 174q12 39 75 139q5 31 29 82q8 0 14.5 15.5t16.5 17.5q117 28 124 26t11 19q35 125 102 118l23 -2q68 -18 94 -73l25 -70q-4 -22 6 -49q-6 -16 -2 -62q-8 -14 0 -41q2 -30 -4 -90q6 -14 6 -100q0 -51 16 -133
q19 -105 23 -133h16q-10 0 68 14q8 0 69 10q47 7 78 4v-8zM664 395q-2 17 -80 363h-8q-49 0 -184 -159t-135 -210q0 -20 79 -22h101q133 10 227 28zM838 1262q2 -9 -16 -11q-31 -2 -111 54l-94 67l-78 -49q-57 -45 -106 -47q-21 -10 -43 -10q-6 0 -17 -6q-4 -3 -14 2l31 43
q8 2 9 7t3 3q68 57 92 108q2 17 12 47q15 25 58 29q59 6 102 -43q12 -16 39 -49q59 -61 133 -145zM819 1457q0 -6 -4 -6q-6 4 -39 19l-20 8q-17 8 -12 14q-52 31 -162 82q-21 14 -66 29q-41 2 -67.5 24.5t-26.5 55.5v26q0 17 25.5 43.5t41 28.5t23.5 2q49 0 75.5 -43
t78.5 -98l84.5 -94.5l33.5 -36.5q35 -31 35 -54z" />
    <glyph glyph-name="uni1EA4" unicode="&#x1ea4;" horiz-adv-x="972" 
d="M1053 438q-31 -22 -96 -45q-80 -28 -99.5 -37.5t-19.5 -15.5q0 -78 109 -338q-2 -14 2 -44t4 -42q0 -16 -33 -43l-8 2q-14 -12 -51 -12q-13 0 -33 4l-2 59l-143 381q-80 -16 -283 -63q-64 -13 -162 -43q-20 -11 -57 -62l-2 -53q-35 -57 -58 -57q-53 0 -82.5 42t-23.5 89
q0 20 -37 94v25q0 34 35 69t69 35q39 55 95 197q49 133 86 174q12 39 75 139q5 31 29 82q8 0 14.5 15.5t16.5 17.5q117 28 124 26t11 19q35 125 102 118l23 -2q68 -18 94 -73l25 -70q-4 -22 6 -49q-6 -16 -2 -62q-8 -14 0 -41q2 -30 -4 -90q6 -14 6 -100q0 -51 16 -133
q19 -105 23 -133h16q-10 0 68 14q8 0 69 10q47 7 78 4v-8zM664 395q-2 17 -80 363h-8q-49 0 -184 -159t-135 -210q0 -20 79 -22h101q133 10 227 28zM838 1262q2 -9 -16 -11q-31 -2 -111 54l-94 67l-78 -49q-57 -45 -106 -47q-21 -10 -43 -10q-6 0 -17 -6q-4 -3 -14 2l31 43
q8 2 9 7t3 3q68 57 92 108q2 17 12 47q15 25 58 29q59 6 102 -43q12 -16 39 -49q59 -61 133 -145zM766 1531l33.5 36.5l85.5 94.5q51 55 77.5 98t75.5 43q8 0 23.5 -2t41 -28.5t25.5 -43.5v-26q0 -33 -26.5 -55.5t-67.5 -24.5q-45 -15 -65 -29q-111 -51 -162 -82
q4 -6 -13 -14l-20 -8q-33 -15 -39 -19q-4 0 -4 6q0 23 35 54z" />
    <glyph glyph-name="uni1EA8" unicode="&#x1ea8;" horiz-adv-x="972" 
d="M1053 438q-31 -22 -96 -45q-80 -28 -99.5 -37.5t-19.5 -15.5q0 -78 109 -338q-2 -14 2 -44t4 -42q0 -16 -33 -43l-8 2q-14 -12 -51 -12q-13 0 -33 4l-2 59l-143 381q-80 -16 -283 -63q-64 -13 -162 -43q-20 -11 -57 -62l-2 -53q-35 -57 -58 -57q-53 0 -82.5 42t-23.5 89
q0 20 -37 94v25q0 34 35 69t69 35q39 55 95 197q49 133 86 174q12 39 75 139q5 31 29 82q8 0 14.5 15.5t16.5 17.5q117 28 124 26t11 19q35 125 102 118l23 -2q68 -18 94 -73l25 -70q-4 -22 6 -49q-6 -16 -2 -62q-8 -14 0 -41q2 -30 -4 -90q6 -14 6 -100q0 -51 16 -133
q19 -105 23 -133h16q-10 0 68 14q8 0 69 10q47 7 78 4v-8zM664 395q-2 17 -80 363h-8q-49 0 -184 -159t-135 -210q0 -20 79 -22h101q133 10 227 28zM838 1262q2 -9 -16 -11q-31 -2 -111 54l-94 67l-78 -49q-57 -45 -106 -47q-21 -10 -43 -10q-6 0 -17 -6q-4 -3 -14 2l31 43
q8 2 9 7t3 3q68 57 92 108q2 17 12 47q15 25 58 29q59 6 102 -43q12 -16 39 -49q59 -61 133 -145zM1024 1866q0 -39 -56 -111q-19 -39 -74 -95l-59 -50q-33 -29 -47 -47q24 -4 24 -27q0 -10 -15 -38q-7 -1 -23 -7.5t-24 -6.5q-25 0 -32 13q-4 9 -4 35q0 30 73 115
q99 112 101 115q8 13 27 49q20 40 21 50q-1 3 -11 3q-84 -21 -122 -44q-63 -35 -81 -95q-14 -50 -54 -50q-51 0 -69 65q-2 52 63 95q29 4 137 41q97 33 141 32q36 -1 53 -8q22 -9 31 -34z" />
    <glyph glyph-name="uni1EAA" unicode="&#x1eaa;" horiz-adv-x="972" 
d="M1053 438q-31 -22 -96 -45q-80 -28 -99.5 -37.5t-19.5 -15.5q0 -78 109 -338q-2 -14 2 -44t4 -42q0 -16 -33 -43l-8 2q-14 -12 -51 -12q-13 0 -33 4l-2 59l-143 381q-80 -16 -283 -63q-64 -13 -162 -43q-20 -11 -57 -62l-2 -53q-35 -57 -58 -57q-53 0 -82.5 42t-23.5 89
q0 20 -37 94v25q0 34 35 69t69 35q39 55 95 197q49 133 86 174q12 39 75 139q5 31 29 82q8 0 14.5 15.5t16.5 17.5q117 28 124 26t11 19q35 125 102 118l23 -2q68 -18 94 -73l25 -70q-4 -22 6 -49q-6 -16 -2 -62q-8 -14 0 -41q2 -30 -4 -90q6 -14 6 -100q0 -51 16 -133
q19 -105 23 -133h16q-10 0 68 14q8 0 69 10q47 7 78 4v-8zM664 395q-2 17 -80 363h-8q-49 0 -184 -159t-135 -210q0 -20 79 -22h101q133 10 227 28zM838 1262q2 -9 -16 -11q-31 -2 -111 54l-94 67l-78 -49q-57 -45 -106 -47q-21 -10 -43 -10q-6 0 -17 -6q-4 -3 -14 2l31 43
q8 2 9 7t3 3q68 57 92 108q2 17 12 47q15 25 58 29q59 6 102 -43q12 -16 39 -49q59 -61 133 -145zM929 1668q0 -12 -113 -125q-49 -18 -67 -18h-23q-28 0 -87.5 37.5t-63.5 37.5q-8 0 -33 -18t-41 -18q-55 0 -55 53q0 37 84 78q51 22 90 32h20q39 0 63.5 -37.5l24.5 -37.5
q35 26 119 67q8 2 23 2q22 0 40.5 -16t18.5 -37z" />
    <glyph glyph-name="uni1EAC" unicode="&#x1eac;" horiz-adv-x="972" 
d="M1053 438q-31 -22 -96 -45q-80 -28 -99.5 -37.5t-19.5 -15.5q0 -78 109 -338q-2 -14 2 -44t4 -42q0 -16 -33 -43l-8 2q-14 -12 -51 -12q-13 0 -33 4l-2 59l-143 381q-80 -16 -283 -63q-64 -13 -162 -43q-20 -11 -57 -62l-2 -53q-35 -57 -58 -57q-53 0 -82.5 42t-23.5 89
q0 20 -37 94v25q0 34 35 69t69 35q39 55 95 197q49 133 86 174q12 39 75 139q5 31 29 82q8 0 14.5 15.5t16.5 17.5q117 28 124 26t11 19q35 125 102 118l23 -2q68 -18 94 -73l25 -70q-4 -22 6 -49q-6 -16 -2 -62q-8 -14 0 -41q2 -30 -4 -90q6 -14 6 -100q0 -51 16 -133
q19 -105 23 -133h16q-10 0 68 14q8 0 69 10q47 7 78 4v-8zM664 395q-2 17 -80 363h-8q-49 0 -184 -159t-135 -210q0 -20 79 -22h101q133 10 227 28zM838 1262q2 -9 -16 -11q-31 -2 -111 54l-94 67l-78 -49q-57 -45 -106 -47q-21 -10 -43 -10q-6 0 -17 -6q-4 -3 -14 2l31 43
q8 2 9 7t3 3q68 57 92 108q2 17 12 47q15 25 58 29q59 6 102 -43q12 -16 39 -49q59 -61 133 -145zM556 -217q0 -90 -106 -98q-40 -4 -48 -4q-38 0 -68.5 27t-30.5 49v26q0 31 56 52q45 15 98 15q30 -3 64.5 -26.5t34.5 -40.5z" />
    <glyph glyph-name="Abreve" unicode="&#x102;" horiz-adv-x="972" 
d="M1052 438q-31 -22 -96 -45q-80 -28 -99.5 -37.5t-19.5 -15.5q0 -78 109 -338q-2 -14 2 -44t4 -42q0 -16 -33 -43l-8 2q-14 -12 -51 -12q-13 0 -33 4l-2 59l-143 381q-80 -16 -283 -63q-64 -13 -162 -43q-20 -11 -57 -62l-2 -53q-35 -57 -58 -57q-53 0 -82.5 42t-23.5 89
q0 20 -37 94v25q0 34 35 69t69 35q39 55 95 197q49 133 86 174q12 39 75 139q5 31 29 82q8 0 14.5 15.5t16.5 17.5q117 28 124 26t11 19q35 125 102 118l23 -2q68 -18 94 -73l25 -70q-4 -22 6 -49q-6 -16 -2 -62q-8 -14 0 -41q2 -30 -4 -90q6 -14 6 -100q0 -51 16 -133
q19 -105 23 -133h16q-10 0 68 14q8 0 69 10q47 7 78 4v-8zM663 395q-2 17 -80 363h-8q-49 0 -184 -159t-135 -210q0 -20 79 -22h101q133 10 227 28zM1097 1427q-2 -18 -33 -26l-59 -58q-35 -26 -111.5 -71.5t-132.5 -38.5q-2 0 -11 3t-11 2q-8 0 -27 -4q-4 -1 -33.5 10
t-37.5 16q-31 12 -61 46.5t-30 62.5v36l5 8q4 5 0 11q0 19 96 42q69 -3 55 -45q-12 -34 -12 -75v-10q4 -14 20 -42q21 -19 56 -19q108 0 294 151z" />
    <glyph glyph-name="uni1EB0" unicode="&#x1eb0;" horiz-adv-x="972" 
d="M1052 438q-31 -22 -96 -45q-80 -28 -99.5 -37.5t-19.5 -15.5q0 -78 109 -338q-2 -14 2 -44t4 -42q0 -16 -33 -43l-8 2q-14 -12 -51 -12q-13 0 -33 4l-2 59l-143 381q-80 -16 -283 -63q-64 -13 -162 -43q-20 -11 -57 -62l-2 -53q-35 -57 -58 -57q-53 0 -82.5 42t-23.5 89
q0 20 -37 94v25q0 34 35 69t69 35q39 55 95 197q49 133 86 174q12 39 75 139q5 31 29 82q8 0 14.5 15.5t16.5 17.5q117 28 124 26t11 19q35 125 102 118l23 -2q68 -18 94 -73l25 -70q-4 -22 6 -49q-6 -16 -2 -62q-8 -14 0 -41q2 -30 -4 -90q6 -14 6 -100q0 -51 16 -133
q19 -105 23 -133h16q-10 0 68 14q8 0 69 10q47 7 78 4v-8zM663 395q-2 17 -80 363h-8q-49 0 -184 -159t-135 -210q0 -20 79 -22h101q133 10 227 28zM1097 1427q-2 -18 -33 -26l-59 -58q-35 -26 -111.5 -71.5t-132.5 -38.5q-2 0 -11 3t-11 2q-8 0 -27 -4q-4 -1 -33.5 10
t-37.5 16q-31 12 -61 46.5t-30 62.5v36l5 8q4 5 0 11q0 19 96 42q69 -3 55 -45q-12 -34 -12 -75v-10q4 -14 20 -42q21 -19 56 -19q108 0 294 151zM860 1375q0 -6 -4 -6q-6 4 -39 19l-20 8q-17 8 -12 14q-52 31 -162 82q-21 14 -66 29q-41 2 -67.5 24.5t-26.5 55.5v26
q0 17 25.5 43.5t41 28.5t23.5 2q49 0 75.5 -43t78.5 -98l84.5 -94.5l33.5 -36.5q35 -31 35 -54z" />
    <glyph glyph-name="uni1EAE" unicode="&#x1eae;" horiz-adv-x="972" 
d="M1052 438q-31 -22 -96 -45q-80 -28 -99.5 -37.5t-19.5 -15.5q0 -78 109 -338q-2 -14 2 -44t4 -42q0 -16 -33 -43l-8 2q-14 -12 -51 -12q-13 0 -33 4l-2 59l-143 381q-80 -16 -283 -63q-64 -13 -162 -43q-20 -11 -57 -62l-2 -53q-35 -57 -58 -57q-53 0 -82.5 42t-23.5 89
q0 20 -37 94v25q0 34 35 69t69 35q39 55 95 197q49 133 86 174q12 39 75 139q5 31 29 82q8 0 14.5 15.5t16.5 17.5q117 28 124 26t11 19q35 125 102 118l23 -2q68 -18 94 -73l25 -70q-4 -22 6 -49q-6 -16 -2 -62q-8 -14 0 -41q2 -30 -4 -90q6 -14 6 -100q0 -51 16 -133
q19 -105 23 -133h16q-10 0 68 14q8 0 69 10q47 7 78 4v-8zM663 395q-2 17 -80 363h-8q-49 0 -184 -159t-135 -210q0 -20 79 -22h101q133 10 227 28zM1097 1427q-2 -18 -33 -26l-59 -58q-35 -26 -111.5 -71.5t-132.5 -38.5q-2 0 -11 3t-11 2q-8 0 -27 -4q-4 -1 -33.5 10
t-37.5 16q-31 12 -61 46.5t-30 62.5v36l5 8q4 5 0 11q0 19 96 42q69 -3 55 -45q-12 -34 -12 -75v-10q4 -14 20 -42q21 -19 56 -19q108 0 294 151zM817 1429l33.5 36.5l85.5 94.5q51 55 77.5 98t75.5 43q8 0 23.5 -2t41 -28.5t25.5 -43.5v-26q0 -33 -26.5 -55.5t-67.5 -24.5
q-45 -15 -65 -29q-111 -51 -162 -82q4 -6 -13 -14l-20 -8q-33 -15 -39 -19q-4 0 -4 6q0 23 35 54z" />
    <glyph glyph-name="uni1EB2" unicode="&#x1eb2;" horiz-adv-x="972" 
d="M1052 438q-31 -22 -96 -45q-80 -28 -99.5 -37.5t-19.5 -15.5q0 -78 109 -338q-2 -14 2 -44t4 -42q0 -16 -33 -43l-8 2q-14 -12 -51 -12q-13 0 -33 4l-2 59l-143 381q-80 -16 -283 -63q-64 -13 -162 -43q-20 -11 -57 -62l-2 -53q-35 -57 -58 -57q-53 0 -82.5 42t-23.5 89
q0 20 -37 94v25q0 34 35 69t69 35q39 55 95 197q49 133 86 174q12 39 75 139q5 31 29 82q8 0 14.5 15.5t16.5 17.5q117 28 124 26t11 19q35 125 102 118l23 -2q68 -18 94 -73l25 -70q-4 -22 6 -49q-6 -16 -2 -62q-8 -14 0 -41q2 -30 -4 -90q6 -14 6 -100q0 -51 16 -133
q19 -105 23 -133h16q-10 0 68 14q8 0 69 10q47 7 78 4v-8zM663 395q-2 17 -80 363h-8q-49 0 -184 -159t-135 -210q0 -20 79 -22h101q133 10 227 28zM1085 1738q0 -39 -55 -111q-20 -39 -74 -95q-51 -42 -60 -50q-33 -29 -46 -47q23 -4 23 -27q0 -10 -14 -38q-7 -1 -23 -7.5
t-25 -6.5q-24 0 -31 13q-5 9 -5 35q0 30 74 115q98 112 100 115q9 14 27 49q21 40 22 50q-1 3 -12 3q-84 -21 -122 -44q-63 -35 -80 -95q-15 -50 -55 -50q-50 0 -69 65q-2 52 63 95q30 4 137 41q98 33 141 32q36 -1 53 -8q22 -9 31 -34zM1097 1427q-2 -18 -33 -26l-59 -58
q-35 -26 -111.5 -71.5t-132.5 -38.5q-2 0 -11 3t-11 2q-8 0 -27 -4q-4 -1 -33.5 10t-37.5 16q-31 12 -61 46.5t-30 62.5v36l5 8q4 5 0 11q0 19 96 42q69 -3 55 -45q-12 -34 -12 -75v-10q4 -14 20 -42q21 -19 56 -19q108 0 294 151z" />
    <glyph glyph-name="uni1EB4" unicode="&#x1eb4;" horiz-adv-x="972" 
d="M1052 438q-31 -22 -96 -45q-80 -28 -99.5 -37.5t-19.5 -15.5q0 -78 109 -338q-2 -14 2 -44t4 -42q0 -16 -33 -43l-8 2q-14 -12 -51 -12q-13 0 -33 4l-2 59l-143 381q-80 -16 -283 -63q-64 -13 -162 -43q-20 -11 -57 -62l-2 -53q-35 -57 -58 -57q-53 0 -82.5 42t-23.5 89
q0 20 -37 94v25q0 34 35 69t69 35q39 55 95 197q49 133 86 174q12 39 75 139q5 31 29 82q8 0 14.5 15.5t16.5 17.5q117 28 124 26t11 19q35 125 102 118l23 -2q68 -18 94 -73l25 -70q-4 -22 6 -49q-6 -16 -2 -62q-8 -14 0 -41q2 -30 -4 -90q6 -14 6 -100q0 -51 16 -133
q19 -105 23 -133h16q-10 0 68 14q8 0 69 10q47 7 78 4v-8zM663 395q-2 17 -80 363h-8q-49 0 -184 -159t-135 -210q0 -20 79 -22h101q133 10 227 28zM1097 1427q-2 -18 -33 -26l-59 -58q-35 -26 -111.5 -71.5t-132.5 -38.5q-2 0 -11 3t-11 2q-8 0 -27 -4q-4 -1 -33.5 10
t-37.5 16q-31 12 -61 46.5t-30 62.5v36l5 8q4 5 0 11q0 19 96 42q69 -3 55 -45q-12 -34 -12 -75v-10q4 -14 20 -42q21 -19 56 -19q108 0 294 151zM1348 1608q0 -10 -141 -100q-61 -15 -85 -15h-28q-36 0 -110 30.5t-80 30.5q-10 0 -40.5 -15t-51.5 -15q-69 0 -69 43
q0 29 105 62q64 18 113 26h25q49 0 80 -30l31 -30q43 21 149 54q10 1 28 1q28 0 51 -13t23 -29z" />
    <glyph glyph-name="uni1EB6" unicode="&#x1eb6;" horiz-adv-x="972" 
d="M1052 438q-31 -22 -96 -45q-80 -28 -99.5 -37.5t-19.5 -15.5q0 -78 109 -338q-2 -14 2 -44t4 -42q0 -16 -33 -43l-8 2q-14 -12 -51 -12q-13 0 -33 4l-2 59l-143 381q-80 -16 -283 -63q-64 -13 -162 -43q-20 -11 -57 -62l-2 -53q-35 -57 -58 -57q-53 0 -82.5 42t-23.5 89
q0 20 -37 94v25q0 34 35 69t69 35q39 55 95 197q49 133 86 174q12 39 75 139q5 31 29 82q8 0 14.5 15.5t16.5 17.5q117 28 124 26t11 19q35 125 102 118l23 -2q68 -18 94 -73l25 -70q-4 -22 6 -49q-6 -16 -2 -62q-8 -14 0 -41q2 -30 -4 -90q6 -14 6 -100q0 -51 16 -133
q19 -105 23 -133h16q-10 0 68 14q8 0 69 10q47 7 78 4v-8zM663 395q-2 17 -80 363h-8q-49 0 -184 -159t-135 -210q0 -20 79 -22h101q133 10 227 28zM1097 1427q-2 -18 -33 -26l-59 -58q-35 -26 -111.5 -71.5t-132.5 -38.5q-2 0 -11 3t-11 2q-8 0 -27 -4q-4 -1 -33.5 10
t-37.5 16q-31 12 -61 46.5t-30 62.5v36l5 8q4 5 0 11q0 19 96 42q69 -3 55 -45q-12 -34 -12 -75v-10q4 -14 20 -42q21 -19 56 -19q108 0 294 151zM498 -230q0 -106 -82 -117q-31 -4 -37 -4q-29 0 -52.5 32t-23.5 58v31q0 37 43 62q35 18 76 18q23 -4 49.5 -31.5t26.5 -48.5z
" />
    <glyph glyph-name="Egrave" unicode="&#xc8;" horiz-adv-x="1087" 
d="M1223 836l-4 -9q-11 17 -80 17q-131 0 -205 -31q-59 0 -139 -27q-84 5 -174 -32q-9 4 -93 -6q-100 -15 -104 -15q-2 -4 18 -69q-8 -25 -8 -68q-8 -45 -35 -117l15 -18q10 0 25.5 2t23.5 2q113 0 219 14q158 21 176 64v22l-4 6l6 11q17 -4 39.5 -24.5t24.5 -35.5l-37 -33
l4 -8q-2 -10 -30.5 -30.5t-41.5 -22.5l-4 4q-172 -57 -237 -51q-19 -8 -142 -23q-59 0 -59 -32q0 -150 123 -191q55 -18 250 -20q10 6 24 6q111 0 111 45q-6 16 -4 43q18 -12 55 -33q31 -31 31 -55q0 -19 -40 -43.5t-52 -20.5q-68 -32 -226 -32q-280 0 -399 196
q-12 21 -33 68q0 53 -24 61q-39 0 -113 2q-8 6 -188 6q-23 23 -23 29q0 31 59 31q13 -4 21 -4q18 0 55 9t53 9q76 0 142 17q4 4 7 15t7 15q0 109 64 246l-17 8q-45 -10 -55 0h-49q-17 -12 -66 -12q-28 0 -76 22q-53 25 -53 50q4 4 0 14q-6 12 -6 16q0 64 98 64q17 0 56 -13
q32 -12 53 -8q18 -8 59 -7t45 -1h11q8 -2 30 -2h142q41 0 110 6q78 6 109 6l110 17q13 -4 80 0q88 4 90 4q31 4 37 2q8 -4 19 -4q114 6 211 -33zM846 993q0 -6 -4 -6q-6 4 -39 19l-21 8q-16 8 -12 14q-51 31 -162 82q-20 14 -65 29q-41 2 -67.5 24.5t-26.5 55.5v26
q0 17 25.5 43.5t41 28.5t23.5 2q49 0 75.5 -43t77.5 -98l85.5 -94.5l33.5 -36.5q35 -31 35 -54z" />
    <glyph glyph-name="Eacute" unicode="&#xc9;" horiz-adv-x="1087" 
d="M1223 836l-4 -9q-11 17 -80 17q-131 0 -205 -31q-59 0 -139 -27q-84 5 -174 -32q-9 4 -93 -6q-100 -15 -104 -15q-2 -4 18 -69q-8 -25 -8 -68q-8 -45 -35 -117l15 -18q10 0 25.5 2t23.5 2q113 0 219 14q158 21 176 64v22l-4 6l6 11q17 -4 39.5 -24.5t24.5 -35.5l-37 -33
l4 -8q-2 -10 -30.5 -30.5t-41.5 -22.5l-4 4q-172 -57 -237 -51q-19 -8 -142 -23q-59 0 -59 -32q0 -150 123 -191q55 -18 250 -20q10 6 24 6q111 0 111 45q-6 16 -4 43q18 -12 55 -33q31 -31 31 -55q0 -19 -40 -43.5t-52 -20.5q-68 -32 -226 -32q-280 0 -399 196
q-12 21 -33 68q0 53 -24 61q-39 0 -113 2q-8 6 -188 6q-23 23 -23 29q0 31 59 31q13 -4 21 -4q18 0 55 9t53 9q76 0 142 17q4 4 7 15t7 15q0 109 64 246l-17 8q-45 -10 -55 0h-49q-17 -12 -66 -12q-28 0 -76 22q-53 25 -53 50q4 4 0 14q-6 12 -6 16q0 64 98 64q17 0 56 -13
q32 -12 53 -8q18 -8 59 -7t45 -1h11q8 -2 30 -2h142q41 0 110 6q78 6 109 6l110 17q13 -4 80 0q88 4 90 4q31 4 37 2q8 -4 19 -4q114 6 211 -33zM825 1268q0 -49 -28 -66q-6 -8 -23 -20l-141 -78q-29 -19 -72 -27q-16 -6 -53 -16q-4 0 -12 -6q-9 -4 -13 0q-12 -11 -28 -15
q-6 0 -13 2q48 43 86 84q95 95 127 152q0 2 7 29q2 8 26.5 24.5t34.5 18.5q31 6 61.5 -14.5t36.5 -49.5q4 -4 4 -18z" />
    <glyph glyph-name="uni1EBA" unicode="&#x1eba;" horiz-adv-x="1087" 
d="M1223 836l-4 -9q-11 17 -80 17q-131 0 -205 -31q-59 0 -139 -27q-84 5 -174 -32q-9 4 -93 -6q-100 -15 -104 -15q-2 -4 18 -69q-8 -25 -8 -68q-8 -45 -35 -117l15 -18q10 0 25.5 2t23.5 2q113 0 219 14q158 21 176 64v22l-4 6l6 11q17 -4 39.5 -24.5t24.5 -35.5l-37 -33
l4 -8q-2 -10 -30.5 -30.5t-41.5 -22.5l-4 4q-172 -57 -237 -51q-19 -8 -142 -23q-59 0 -59 -32q0 -150 123 -191q55 -18 250 -20q10 6 24 6q111 0 111 45q-6 16 -4 43q18 -12 55 -33q31 -31 31 -55q0 -19 -40 -43.5t-52 -20.5q-68 -32 -226 -32q-280 0 -399 196
q-12 21 -33 68q0 53 -24 61q-39 0 -113 2q-8 6 -188 6q-23 23 -23 29q0 31 59 31q13 -4 21 -4q18 0 55 9t53 9q76 0 142 17q4 4 7 15t7 15q0 109 64 246l-17 8q-45 -10 -55 0h-49q-17 -12 -66 -12q-28 0 -76 22q-53 25 -53 50q4 4 0 14q-6 12 -6 16q0 64 98 64q17 0 56 -13
q32 -12 53 -8q18 -8 59 -7t45 -1h11q8 -2 30 -2h142q41 0 110 6q78 6 109 6l110 17q13 -4 80 0q88 4 90 4q31 4 37 2q8 -4 19 -4q114 6 211 -33zM828 1341q0 -39 -56 -111q-19 -39 -74 -95l-59 -50q-33 -29 -47 -47q24 -4 24 -27q0 -10 -15 -38q-7 -1 -23 -7.5t-24 -6.5
q-25 0 -32 13q-4 9 -4 35q0 30 74 115q98 112 100 115q8 13 27 49q20 40 21 50q-1 3 -11 3q-84 -21 -122 -44q-63 -35 -81 -95q-14 -50 -54 -50q-51 0 -69 65q-2 52 63 95q29 4 137 41q97 33 141 32q36 -1 53 -8q22 -9 31 -34z" />
    <glyph glyph-name="uni1EBC" unicode="&#x1ebc;" horiz-adv-x="1087" 
d="M1223 836l-4 -9q-11 17 -80 17q-131 0 -205 -31q-59 0 -139 -27q-84 5 -174 -32q-9 4 -93 -6q-100 -15 -104 -15q-2 -4 18 -69q-8 -25 -8 -68q-8 -45 -35 -117l15 -18q10 0 25.5 2t23.5 2q113 0 219 14q158 21 176 64v22l-4 6l6 11q17 -4 39.5 -24.5t24.5 -35.5l-37 -33
l4 -8q-2 -10 -30.5 -30.5t-41.5 -22.5l-4 4q-172 -57 -237 -51q-19 -8 -142 -23q-59 0 -59 -32q0 -150 123 -191q55 -18 250 -20q10 6 24 6q111 0 111 45q-6 16 -4 43q18 -12 55 -33q31 -31 31 -55q0 -19 -40 -43.5t-52 -20.5q-68 -32 -226 -32q-280 0 -399 196
q-12 21 -33 68q0 53 -24 61q-39 0 -113 2q-8 6 -188 6q-23 23 -23 29q0 31 59 31q13 -4 21 -4q18 0 55 9t53 9q76 0 142 17q4 4 7 15t7 15q0 109 64 246l-17 8q-45 -10 -55 0h-49q-17 -12 -66 -12q-28 0 -76 22q-53 25 -53 50q4 4 0 14q-6 12 -6 16q0 64 98 64q17 0 56 -13
q32 -12 53 -8q18 -8 59 -7t45 -1h11q8 -2 30 -2h142q41 0 110 6q78 6 109 6l110 17q13 -4 80 0q88 4 90 4q31 4 37 2q8 -4 19 -4q114 6 211 -33zM999 1153q0 -12 -148 -125q-64 -18 -89 -18h-29q-38 0 -116 37.5t-84 37.5q-10 0 -42.5 -18t-53.5 -18q-73 0 -73 53
q0 37 110 78q68 22 119 32h27q51 0 83 -37.5l32 -37.5q46 26 157 67q10 2 29 2q30 0 54 -16t24 -37z" />
    <glyph glyph-name="uni1EB8" unicode="&#x1eb8;" horiz-adv-x="1087" 
d="M1223 836l-4 -9q-11 17 -80 17q-131 0 -205 -31q-59 0 -139 -27q-84 5 -174 -32q-9 4 -93 -6q-100 -15 -104 -15q-2 -4 18 -69q-8 -25 -8 -68q-8 -45 -35 -117l15 -18q10 0 25.5 2t23.5 2q113 0 219 14q158 21 176 64v22l-4 6l6 11q17 -4 39.5 -24.5t24.5 -35.5l-37 -33
l4 -8q-2 -10 -30.5 -30.5t-41.5 -22.5l-4 4q-172 -57 -237 -51q-19 -8 -142 -23q-59 0 -59 -32q0 -150 123 -191q55 -18 250 -20q10 6 24 6q111 0 111 45q-6 16 -4 43q18 -12 55 -33q31 -31 31 -55q0 -19 -40 -43.5t-52 -20.5q-68 -32 -226 -32q-280 0 -399 196
q-12 21 -33 68q0 53 -24 61q-39 0 -113 2q-8 6 -188 6q-23 23 -23 29q0 31 59 31q13 -4 21 -4q18 0 55 9t53 9q76 0 142 17q4 4 7 15t7 15q0 109 64 246l-17 8q-45 -10 -55 0h-49q-17 -12 -66 -12q-28 0 -76 22q-53 25 -53 50q4 4 0 14q-6 12 -6 16q0 64 98 64q17 0 56 -13
q32 -12 53 -8q18 -8 59 -7t45 -1h11q8 -2 30 -2h142q41 0 110 6q78 6 109 6l110 17q13 -4 80 0q88 4 90 4q31 4 37 2q8 -4 19 -4q114 6 211 -33zM721 -183q0 -9 -28.5 -24.5t-34.5 -14.5t-18.5 -1.5l-12.5 -2.5q-30 0 -75 21q-53 24 -53 50v15q0 23 24 36t52 13q24 -4 49 2
q20 0 56.5 -22t36.5 -35q0 -29 4 -37z" />
    <glyph glyph-name="Ecircumflex" unicode="&#xca;" horiz-adv-x="1087" 
d="M1223 836l-4 -9q-11 17 -80 17q-131 0 -205 -31q-59 0 -139 -27q-84 5 -174 -32q-9 4 -93 -6q-100 -15 -104 -15q-2 -4 18 -69q-8 -25 -8 -68q-8 -45 -35 -117l15 -18q10 0 25.5 2t23.5 2q113 0 219 14q158 21 176 64v22l-4 6l6 11q17 -4 39.5 -24.5t24.5 -35.5l-37 -33
l4 -8q-2 -10 -30.5 -30.5t-41.5 -22.5l-4 4q-172 -57 -237 -51q-19 -8 -142 -23q-59 0 -59 -32q0 -150 123 -191q55 -18 250 -20q10 6 24 6q111 0 111 45q-6 16 -4 43q18 -12 55 -33q31 -31 31 -55q0 -19 -40 -43.5t-52 -20.5q-68 -32 -226 -32q-280 0 -399 196
q-12 21 -33 68q0 53 -24 61q-39 0 -113 2q-8 6 -188 6q-23 23 -23 29q0 31 59 31q13 -4 21 -4q18 0 55 9t53 9q76 0 142 17q4 4 7 15t7 15q0 109 64 246l-17 8q-45 -10 -55 0h-49q-17 -12 -66 -12q-28 0 -76 22q-53 25 -53 50q4 4 0 14q-6 12 -6 16q0 64 98 64q17 0 56 -13
q32 -12 53 -8q18 -8 59 -7t45 -1h11q8 -2 30 -2h142q41 0 110 6q78 6 109 6l110 17q13 -4 80 0q88 4 90 4q31 4 37 2q8 -4 19 -4q114 6 211 -33zM903 1010q2 -9 -16 -11q-31 -2 -111 54l-94 67l-78 -49q-57 -45 -106 -47q-21 -10 -43 -10q-6 0 -17 -6q-4 -2 -14 2l31 43
q8 2 9 7t3 3q68 57 92 108q2 17 12 48q15 24 58 28q59 6 102 -43q12 -16 39 -49q60 -61 133 -145z" />
    <glyph glyph-name="uni1EC0" unicode="&#x1ec0;" horiz-adv-x="1087" 
d="M1223 836l-4 -9q-11 17 -80 17q-131 0 -205 -31q-59 0 -139 -27q-84 5 -174 -32q-9 4 -93 -6q-100 -15 -104 -15q-2 -4 18 -69q-8 -25 -8 -68q-8 -45 -35 -117l15 -18q10 0 25.5 2t23.5 2q113 0 219 14q158 21 176 64v22l-4 6l6 11q17 -4 39.5 -24.5t24.5 -35.5l-37 -33
l4 -8q-2 -10 -30.5 -30.5t-41.5 -22.5l-4 4q-172 -57 -237 -51q-19 -8 -142 -23q-59 0 -59 -32q0 -150 123 -191q55 -18 250 -20q10 6 24 6q111 0 111 45q-6 16 -4 43q18 -12 55 -33q31 -31 31 -55q0 -19 -40 -43.5t-52 -20.5q-68 -32 -226 -32q-280 0 -399 196
q-12 21 -33 68q0 53 -24 61q-39 0 -113 2q-8 6 -188 6q-23 23 -23 29q0 31 59 31q13 -4 21 -4q18 0 55 9t53 9q76 0 142 17q4 4 7 15t7 15q0 109 64 246l-17 8q-45 -10 -55 0h-49q-17 -12 -66 -12q-28 0 -76 22q-53 25 -53 50q4 4 0 14q-6 12 -6 16q0 64 98 64q17 0 56 -13
q32 -12 53 -8q18 -8 59 -7t45 -1h11q8 -2 30 -2h142q41 0 110 6q78 6 109 6l110 17q13 -4 80 0q88 4 90 4q31 4 37 2q8 -4 19 -4q114 6 211 -33zM903 1010q2 -9 -16 -11q-31 -2 -111 54l-94 67l-78 -49q-57 -45 -106 -47q-21 -10 -43 -10q-6 0 -17 -6q-4 -2 -14 2l31 43
q8 2 9 7t3 3q68 57 92 108q2 17 12 48q15 24 58 28q59 6 102 -43q12 -16 39 -49q60 -61 133 -145zM819 1231q0 -6 -4 -6q-6 4 -39 19l-20 8q-17 8 -12 14q-52 31 -162 82q-21 14 -66 29q-41 2 -67.5 24.5t-26.5 55.5v26q0 17 25.5 43.5t41 28.5t23.5 2q49 0 76 -43t78 -98
l85 -94.5t34 -36.5q34 -31 34 -54z" />
    <glyph glyph-name="uni1EBE" unicode="&#x1ebe;" horiz-adv-x="1087" 
d="M1223 836l-4 -9q-11 17 -80 17q-131 0 -205 -31q-59 0 -139 -27q-84 5 -174 -32q-9 4 -93 -6q-100 -15 -104 -15q-2 -4 18 -69q-8 -25 -8 -68q-8 -45 -35 -117l15 -18q10 0 25.5 2t23.5 2q113 0 219 14q158 21 176 64v22l-4 6l6 11q17 -4 39.5 -24.5t24.5 -35.5l-37 -33
l4 -8q-2 -10 -30.5 -30.5t-41.5 -22.5l-4 4q-172 -57 -237 -51q-19 -8 -142 -23q-59 0 -59 -32q0 -150 123 -191q55 -18 250 -20q10 6 24 6q111 0 111 45q-6 16 -4 43q18 -12 55 -33q31 -31 31 -55q0 -19 -40 -43.5t-52 -20.5q-68 -32 -226 -32q-280 0 -399 196
q-12 21 -33 68q0 53 -24 61q-39 0 -113 2q-8 6 -188 6q-23 23 -23 29q0 31 59 31q13 -4 21 -4q18 0 55 9t53 9q76 0 142 17q4 4 7 15t7 15q0 109 64 246l-17 8q-45 -10 -55 0h-49q-17 -12 -66 -12q-28 0 -76 22q-53 25 -53 50q4 4 0 14q-6 12 -6 16q0 64 98 64q17 0 56 -13
q32 -12 53 -8q18 -8 59 -7t45 -1h11q8 -2 30 -2h142q41 0 110 6q78 6 109 6l110 17q13 -4 80 0q88 4 90 4q31 4 37 2q8 -4 19 -4q114 6 211 -33zM903 1010q2 -9 -16 -11q-31 -2 -111 54l-94 67l-78 -49q-57 -45 -106 -47q-21 -10 -43 -10q-6 0 -17 -6q-4 -2 -14 2l31 43
q8 2 9 7t3 3q68 57 92 108q2 17 12 48q15 24 58 28q59 6 102 -43q12 -16 39 -49q60 -61 133 -145zM817 1285l33.5 36.5l85.5 94.5q51 55 77.5 98t75.5 43q8 0 23.5 -2t41 -28.5t25.5 -43.5v-26q0 -33 -26.5 -55.5t-67.5 -24.5q-45 -15 -65 -29q-111 -51 -162 -82
q4 -6 -12 -14l-21 -8q-33 -15 -39 -19q-4 0 -4 6q0 23 35 54z" />
    <glyph glyph-name="uni1EC2" unicode="&#x1ec2;" horiz-adv-x="1087" 
d="M1223 836l-4 -9q-11 17 -80 17q-131 0 -205 -31q-59 0 -139 -27q-84 5 -174 -32q-9 4 -93 -6q-100 -15 -104 -15q-2 -4 18 -69q-8 -25 -8 -68q-8 -45 -35 -117l15 -18q10 0 25.5 2t23.5 2q113 0 219 14q158 21 176 64v22l-4 6l6 11q17 -4 39.5 -24.5t24.5 -35.5l-37 -33
l4 -8q-2 -10 -30.5 -30.5t-41.5 -22.5l-4 4q-172 -57 -237 -51q-19 -8 -142 -23q-59 0 -59 -32q0 -150 123 -191q55 -18 250 -20q10 6 24 6q111 0 111 45q-6 16 -4 43q18 -12 55 -33q31 -31 31 -55q0 -19 -40 -43.5t-52 -20.5q-68 -32 -226 -32q-280 0 -399 196
q-12 21 -33 68q0 53 -24 61q-39 0 -113 2q-8 6 -188 6q-23 23 -23 29q0 31 59 31q13 -4 21 -4q18 0 55 9t53 9q76 0 142 17q4 4 7 15t7 15q0 109 64 246l-17 8q-45 -10 -55 0h-49q-17 -12 -66 -12q-28 0 -76 22q-53 25 -53 50q4 4 0 14q-6 12 -6 16q0 64 98 64q17 0 56 -13
q32 -12 53 -8q18 -8 59 -7t45 -1h11q8 -2 30 -2h142q41 0 110 6q78 6 109 6l110 17q13 -4 80 0q88 4 90 4q31 4 37 2q8 -4 19 -4q114 6 211 -33zM903 1010q2 -9 -16 -11q-31 -2 -111 54l-94 67l-78 -49q-57 -45 -106 -47q-21 -10 -43 -10q-6 0 -17 -6q-4 -2 -14 2l31 43
q8 2 9 7t3 3q68 57 92 108q2 17 12 48q15 24 58 28q59 6 102 -43q12 -16 39 -49q60 -61 133 -145zM1085 1573q0 -39 -55 -111q-20 -39 -74 -95q-51 -42 -59 -50q-34 -29 -47 -47q23 -4 23 -27q0 -10 -14 -38q-7 -1 -23 -7.5t-25 -6.5q-24 0 -31 13q-5 9 -5 35q0 30 74 115
q98 112 100 115q9 14 27 49q21 40 22 50q-1 3 -12 3q-84 -21 -122 -44q-63 -35 -80 -95q-15 -50 -55 -50q-50 0 -69 65q-2 52 63 95q30 4 138 41q97 33 141 32q36 -1 52 -8q22 -9 31 -34z" />
    <glyph glyph-name="uni1EC4" unicode="&#x1ec4;" horiz-adv-x="1087" 
d="M1223 836l-4 -9q-11 17 -80 17q-131 0 -205 -31q-59 0 -139 -27q-84 5 -174 -32q-9 4 -93 -6q-100 -15 -104 -15q-2 -4 18 -69q-8 -25 -8 -68q-8 -45 -35 -117l15 -18q10 0 25.5 2t23.5 2q113 0 219 14q158 21 176 64v22l-4 6l6 11q17 -4 39.5 -24.5t24.5 -35.5l-37 -33
l4 -8q-2 -10 -30.5 -30.5t-41.5 -22.5l-4 4q-172 -57 -237 -51q-19 -8 -142 -23q-59 0 -59 -32q0 -150 123 -191q55 -18 250 -20q10 6 24 6q111 0 111 45q-6 16 -4 43q18 -12 55 -33q31 -31 31 -55q0 -19 -40 -43.5t-52 -20.5q-68 -32 -226 -32q-280 0 -399 196
q-12 21 -33 68q0 53 -24 61q-39 0 -113 2q-8 6 -188 6q-23 23 -23 29q0 31 59 31q13 -4 21 -4q18 0 55 9t53 9q76 0 142 17q4 4 7 15t7 15q0 109 64 246l-17 8q-45 -10 -55 0h-49q-17 -12 -66 -12q-28 0 -76 22q-53 25 -53 50q4 4 0 14q-6 12 -6 16q0 64 98 64q17 0 56 -13
q32 -12 53 -8q18 -8 59 -7t45 -1h11q8 -2 30 -2h142q41 0 110 6q78 6 109 6l110 17q13 -4 80 0q88 4 90 4q31 4 37 2q8 -4 19 -4q114 6 211 -33zM903 1010q2 -9 -16 -11q-31 -2 -111 54l-94 67l-78 -49q-57 -45 -106 -47q-21 -10 -43 -10q-6 0 -17 -6q-4 -2 -14 2l31 43
q8 2 9 7t3 3q68 57 92 108q2 17 12 48q15 24 58 28q59 6 102 -43q12 -16 39 -49q60 -61 133 -145zM1091 1361q0 -10 -141 -100q-61 -15 -84 -15h-29q-36 0 -110 30.5t-80 30.5q-10 0 -40.5 -15t-51.5 -15q-69 0 -69 43q0 29 105 62q64 18 113 26h26q48 0 79 -30l31 -30
q43 21 149 54q10 1 28 1q28 0 51 -13t23 -29z" />
    <glyph glyph-name="uni1EC6" unicode="&#x1ec6;" horiz-adv-x="1087" 
d="M1223 836l-4 -9q-11 17 -80 17q-131 0 -205 -31q-59 0 -139 -27q-84 5 -174 -32q-9 4 -93 -6q-100 -15 -104 -15q-2 -4 18 -69q-8 -25 -8 -68q-8 -45 -35 -117l15 -18q10 0 25.5 2t23.5 2q113 0 219 14q158 21 176 64v22l-4 6l6 11q17 -4 39.5 -24.5t24.5 -35.5l-37 -33
l4 -8q-2 -10 -30.5 -30.5t-41.5 -22.5l-4 4q-172 -57 -237 -51q-19 -8 -142 -23q-59 0 -59 -32q0 -150 123 -191q55 -18 250 -20q10 6 24 6q111 0 111 45q-6 16 -4 43q18 -12 55 -33q31 -31 31 -55q0 -19 -40 -43.5t-52 -20.5q-68 -32 -226 -32q-280 0 -399 196
q-12 21 -33 68q0 53 -24 61q-39 0 -113 2q-8 6 -188 6q-23 23 -23 29q0 31 59 31q13 -4 21 -4q18 0 55 9t53 9q76 0 142 17q4 4 7 15t7 15q0 109 64 246l-17 8q-45 -10 -55 0h-49q-17 -12 -66 -12q-28 0 -76 22q-53 25 -53 50q4 4 0 14q-6 12 -6 16q0 64 98 64q17 0 56 -13
q32 -12 53 -8q18 -8 59 -7t45 -1h11q8 -2 30 -2h142q41 0 110 6q78 6 109 6l110 17q13 -4 80 0q88 4 90 4q31 4 37 2q8 -4 19 -4q114 6 211 -33zM903 1010q2 -9 -16 -11q-31 -2 -111 54l-94 67l-78 -49q-57 -45 -106 -47q-21 -10 -43 -10q-6 0 -17 -6q-4 -2 -14 2l31 43
q8 2 9 7t3 3q68 57 92 108q2 17 12 48q15 24 58 28q59 6 102 -43q12 -16 39 -49q60 -61 133 -145zM721 -183q0 -9 -28.5 -24.5t-34.5 -14.5t-18.5 -1.5l-12.5 -2.5q-30 0 -75 21q-53 24 -53 50v15q0 23 24 36t52 13q24 -4 49 2q20 0 56.5 -22t36.5 -35q0 -29 4 -37z" />
    <glyph glyph-name="Igrave" unicode="&#xcc;" horiz-adv-x="385" 
d="M327 973q-2 -17 0 -53q0 2 -10 -50q4 -12 4 -18l-57 -377q2 -31 -6.5 -78t-5.5 -69q0 -4 -9 -140q2 -30 -10 -135q-14 -94 -8 -112q0 -19 -8 -39q-29 0 -58 102q-26 96 -45 246q-4 53 -12 127q4 18 -7 55t-11 45q0 33 4 98.5t4 100.5q-2 -2 -2 47q-2 111 -2 119
q-29 92 -23 123q-6 30 -6 32q29 199 135 179l12 8q66 -15 99 -84q26 -58 20 -123zM469 1262q0 -7 -4 -7q-7 5 -39 19l-21 8q-16 8 -12 14q-51 31 -162 82q-20 15 -66 29q-40 2 -67 24.5t-27 55.5v26q0 17 25.5 43.5t41 28.5t23.5 2q50 0 76.5 -43t77.5 -98l85 -94.5
t34 -36.5q35 -31 35 -53z" />
    <glyph glyph-name="Iacute" unicode="&#xcd;" horiz-adv-x="385" 
d="M327 973q-2 -17 0 -53q0 2 -10 -50q4 -12 4 -18l-57 -377q2 -31 -6.5 -78t-5.5 -69q0 -4 -9 -140q2 -30 -10 -135q-14 -94 -8 -112q0 -19 -8 -39q-29 0 -58 102q-26 96 -45 246q-4 53 -12 127q4 18 -7 55t-11 45q0 33 4 98.5t4 100.5q-2 -2 -2 47q-2 111 -2 119
q-29 92 -23 123q-6 30 -6 32q29 199 135 179l12 8q66 -15 99 -84q26 -58 20 -123zM450 1540q0 -49 -29 -65q-6 -9 -22 -21q-47 -24 -141 -78q-29 -18 -72 -26q-16 -7 -53 -17q-4 0 -13 -6q-8 -4 -12 0q-12 -10 -29 -14q-6 0 -12 2q47 43 86 84q94 94 127 151q0 2 6 29
q2 8 27 24.5t35 18.5q30 6 61 -14.5t37 -48.5q4 -5 4 -19z" />
    <glyph glyph-name="uni1EC8" unicode="&#x1ec8;" horiz-adv-x="385" 
d="M327 973q-2 -17 0 -53q0 2 -10 -50q4 -12 4 -18l-57 -377q2 -31 -6 -78t-6 -69q0 -4 -9 -140q3 -30 -10 -135q-14 -94 -8 -112q0 -19 -8 -39q-29 0 -57 102q-27 96 -46 246q-4 53 -12 127q4 18 -7 55t-11 45q0 33 4 98.5t4 100.5q-2 -2 -2 47q-2 111 -2 119
q-29 92 -23 123q-6 30 -6 32q29 199 135 179l13 8q65 -15 98 -84q27 -58 20 -123zM479 1666q0 -39 -56 -111q-19 -39 -73 -95q-51 -42 -60 -50q-33 -29 -46 -47q23 -4 23 -27q0 -10 -15 -38q-7 -1 -23 -7.5t-24 -6.5q-25 0 -31 13q-5 9 -5 35q0 30 74 115q98 112 100 115
l27 49q20 40 21 50q-1 3 -11 3q-84 -21 -122 -44q-63 -35 -81 -95q-14 -50 -54 -50q-51 0 -69 65q-2 52 63 95q29 4 137 41q97 33 141 32q36 -1 53 -8q22 -9 31 -34z" />
    <glyph glyph-name="Itilde" unicode="&#x128;" horiz-adv-x="385" 
d="M328 973q-2 -17 0 -53q0 2 -10 -50q4 -12 4 -18l-58 -377q2 -31 -6 -78t-6 -69q0 -4 -8 -140q2 -30 -10 -135q-15 -94 -9 -112q0 -19 -8 -39q-28 0 -57 102q-27 96 -45 246q-4 53 -12 127q4 18 -7.5 55t-11.5 45q0 33 4 98.5t4 100.5q-2 -2 -2 47q-2 111 -2 119
q-28 92 -22 123q-6 30 -6 32q28 199 135 179l12 8q66 -15 98 -84q27 -58 21 -123zM566 1362q0 -10 -141 -100q-61 -15 -84 -15h-29q-35 0 -109.5 30.5t-79.5 30.5q-11 0 -41.5 -15t-51.5 -15q-69 0 -69 43q0 29 105 62q64 18 113 26h26q48 0 79 -30l31 -30q44 21 149 54
q10 1 28 1q28 0 51 -13t23 -29z" />
    <glyph glyph-name="uni1ECA" unicode="&#x1eca;" horiz-adv-x="385" 
d="M327 973q-2 -17 0 -53q0 2 -10 -50q4 -12 4 -18l-57 -377q2 -31 -6.5 -78t-5.5 -69q0 -4 -9 -140q2 -30 -10 -135q-14 -94 -8 -112q0 -19 -8 -39q-29 0 -58 102q-26 96 -45 246q-4 53 -12 127q4 18 -7 55t-11 45q0 33 4 98.5t4 100.5q-2 -2 -2 47q-2 111 -2 119
q-29 92 -23 123q-6 30 -6 32q29 199 135 179l12 8q66 -15 99 -84q26 -58 20 -123zM305 -247q0 -106 -82 -116q-30 -5 -36 -5q-29 0 -52.5 32t-23.5 59v30q0 37 43 62q35 18 76 18q22 -4 48.5 -31.5t26.5 -48.5z" />
    <glyph glyph-name="Ograve" unicode="&#xd2;" horiz-adv-x="1007" 
d="M965 420q0 -115 -213 -303q-197 -144 -283 -144q-4 0 -4 3.5t-2 3.5q-6 0 -29 -7q-16 -4 -51 0q-78 11 -145 70q-33 18 -80 124.5t-47 162.5q0 18 -9.5 51t-9.5 49q0 6 4 53q7 82 47 217q5 5 -8 29q0 53 -59 53q-2 0 -32 -6t-34 -6h-30q-29 0 -49.5 28.5t-20.5 63.5
q0 64 68 94h34q4 0 37 -12t41 -12h90q4 0 56.5 22.5t70.5 22.5q109 0 174 -113q39 -10 115 -41q0 -10 2 -14l21 16q8 0 14 -12q10 4 18 4q11 0 20 -10t19 -10q6 0 11.5 3t7.5 3q6 0 41 -31q12 10 18 10q25 0 113 -88l49 -86q35 -65 35 -106v-82zM815 442q0 56 -69 144
q-60 73 -101 98q-123 74 -147 74q-10 0 -21 -31q-6 -22 -14 -45q-12 -12 -27 -39q-8 -82 -94 -164q-16 -16 -16 -139q0 -6 -9.5 -17.5t-11.5 -13.5l-2 -88q-2 -53 47 -90q41 -31 88 -31q86 0 226 111q151 123 151 231zM731 1034q0 -6 -4 -6q-6 4 -39 19l-20 8q-17 8 -13 14
q-51 31 -161 82q-21 14 -66 29q-41 2 -67.5 24.5t-26.5 55.5v26q0 17 25.5 43.5t41 28.5t23.5 2q49 0 75.5 -43t78.5 -98l84.5 -94.5l33.5 -37.5q35 -30 35 -53z" />
    <glyph glyph-name="Oacute" unicode="&#xd3;" horiz-adv-x="1007" 
d="M965 420q0 -115 -213 -303q-197 -144 -283 -144q-4 0 -4 3.5t-2 3.5q-6 0 -29 -7q-16 -4 -51 0q-78 11 -145 70q-33 18 -80 124.5t-47 162.5q0 18 -9.5 51t-9.5 49q0 6 4 53q7 82 47 217q5 5 -8 29q0 53 -59 53q-2 0 -32 -6t-34 -6h-30q-29 0 -49.5 28.5t-20.5 63.5
q0 64 68 94h34q4 0 37 -12t41 -12h90q4 0 56.5 22.5t70.5 22.5q109 0 174 -113q39 -10 115 -41q0 -10 2 -14l21 16q8 0 14 -12q10 4 18 4q11 0 20 -10t19 -10q6 0 11.5 3t7.5 3q6 0 41 -31q12 10 18 10q25 0 113 -88l49 -86q35 -65 35 -106v-82zM815 442q0 56 -69 144
q-60 73 -101 98q-123 74 -147 74q-10 0 -21 -31q-6 -22 -14 -45q-12 -12 -27 -39q-8 -82 -94 -164q-16 -16 -16 -139q0 -6 -9.5 -17.5t-11.5 -13.5l-2 -88q-2 -53 47 -90q41 -31 88 -31q86 0 226 111q151 123 151 231zM719 1321q0 -49 -29 -66q-6 -8 -22 -20l-142 -78
q-28 -18 -71 -27q-17 -6 -53 -16q-5 0 -13 -6q-8 -4 -12 0q-12 -10 -29 -14q-6 0 -12 2q47 43 86 84q94 94 127 151q0 2 6 29q2 8 26.5 24.5t35.5 18.5q30 6 61 -14.5t37 -49.5q4 -4 4 -18z" />
    <glyph glyph-name="uni1ECE" unicode="&#x1ece;" horiz-adv-x="1007" 
d="M965 420q0 -115 -213 -303q-197 -144 -283 -144q-4 0 -4 3.5t-2 3.5q-6 0 -29 -7q-16 -4 -51 0q-78 11 -145 70q-33 18 -80 124.5t-47 162.5q0 18 -9.5 51t-9.5 49q0 6 4 53q7 82 47 217q5 5 -8 29q0 53 -59 53q-2 0 -32 -6t-34 -6h-30q-29 0 -49.5 28.5t-20.5 63.5
q0 64 68 94h34q4 0 37 -12t41 -12h90q4 0 56.5 22.5t70.5 22.5q109 0 174 -113q39 -10 115 -41q0 -10 2 -14l21 16q8 0 14 -12q10 4 18 4q11 0 20 -10t19 -10q6 0 11.5 3t7.5 3q6 0 41 -31q12 10 18 10q25 0 113 -88l49 -86q35 -65 35 -106v-82zM815 442q0 56 -69 144
q-60 73 -101 98q-123 74 -147 74q-10 0 -21 -31q-6 -22 -14 -45q-12 -12 -27 -39q-8 -82 -94 -164q-16 -16 -16 -139q0 -6 -9.5 -17.5t-11.5 -13.5l-2 -88q-2 -53 47 -90q41 -31 88 -31q86 0 226 111q151 123 151 231zM838 1336q0 -39 -55 -111q-20 -39 -74 -95
q-51 -42 -59 -50q-33 -29 -47 -47q23 -4 23 -27q0 -10 -14 -38q-7 -1 -23 -7.5t-25 -6.5q-24 0 -31 13q-5 9 -5 35q0 30 74 115q98 112 100 115q9 14 27 49q21 40 22 50q-1 3 -12 3q-84 -21 -122 -44q-63 -35 -80 -95q-15 -50 -55 -50q-50 0 -69 65q-2 52 63 95q30 4 138 41
q97 33 141 32q36 -1 52 -8q22 -9 31 -34z" />
    <glyph glyph-name="Otilde" unicode="&#xd5;" horiz-adv-x="1007" 
d="M965 420q0 -115 -213 -303q-197 -144 -283 -144q-4 0 -4 3.5t-2 3.5q-6 0 -29 -7q-16 -4 -51 0q-78 11 -145 70q-33 18 -80 124.5t-47 162.5q0 18 -9.5 51t-9.5 49q0 6 4 53q7 82 47 217q5 5 -8 29q0 53 -59 53q-2 0 -32 -6t-34 -6h-30q-29 0 -49.5 28.5t-20.5 63.5
q0 64 68 94h34q4 0 37 -12t41 -12h90q4 0 56.5 22.5t70.5 22.5q109 0 174 -113q39 -10 115 -41q0 -10 2 -14l21 16q8 0 14 -12q10 4 18 4q11 0 20 -10t19 -10q6 0 11.5 3t7.5 3q6 0 41 -31q12 10 18 10q25 0 113 -88l49 -86q35 -65 35 -106v-82zM815 442q0 56 -69 144
q-60 73 -101 98q-123 74 -147 74q-10 0 -21 -31q-6 -22 -14 -45q-12 -12 -27 -39q-8 -82 -94 -164q-16 -16 -16 -139q0 -6 -9.5 -17.5t-11.5 -13.5l-2 -88q-2 -53 47 -90q41 -31 88 -31q86 0 226 111q151 123 151 231zM854 1207q0 -10 -141 -100q-61 -15 -84 -15h-29
q-36 0 -110 30.5t-79 30.5q-11 0 -41.5 -15t-51.5 -15q-69 0 -69 43q0 29 105 62q64 18 113 26h26q48 0 79 -30l31 -30q44 21 149 54q10 1 28 1q28 0 51 -13t23 -29z" />
    <glyph glyph-name="uni1ECC" unicode="&#x1ecc;" horiz-adv-x="1007" 
d="M965 420q0 -115 -213 -303q-197 -144 -283 -144q-4 0 -4 3.5t-2 3.5q-6 0 -29 -7q-16 -4 -51 0q-78 11 -145 70q-33 18 -80 124.5t-47 162.5q0 18 -9.5 51t-9.5 49q0 6 4 53q7 82 47 217q5 5 -8 29q0 53 -59 53q-2 0 -32 -6t-34 -6h-30q-29 0 -49.5 28.5t-20.5 63.5
q0 64 68 94h34q4 0 37 -12t41 -12h90q4 0 56.5 22.5t70.5 22.5q109 0 174 -113q39 -10 115 -41q0 -10 2 -14l21 16q8 0 14 -12q10 4 18 4q11 0 20 -10t19 -10q6 0 11.5 3t7.5 3q6 0 41 -31q12 10 18 10q25 0 113 -88l49 -86q35 -65 35 -106v-82zM815 442q0 56 -69 144
q-60 73 -101 98q-123 74 -147 74q-10 0 -21 -31q-6 -22 -14 -45q-12 -12 -27 -39q-8 -82 -94 -164q-16 -16 -16 -139q0 -6 -9.5 -17.5t-11.5 -13.5l-2 -88q-2 -53 47 -90q41 -31 88 -31q86 0 226 111q151 123 151 231zM464 -183q0 -9 -28.5 -24.5t-34.5 -14.5t-18.5 -1.5
l-12.5 -2.5q-30 0 -75 21q-53 24 -53 50v15q0 23 24 36t52 13q24 -4 49 2q20 0 56.5 -22t36.5 -35q0 -29 4 -37z" />
    <glyph glyph-name="Ocircumflex" unicode="&#xd4;" horiz-adv-x="1007" 
d="M965 420q0 -115 -213 -303q-197 -144 -283 -144q-4 0 -4 3.5t-2 3.5q-6 0 -29 -7q-16 -4 -51 0q-78 11 -145 70q-33 18 -80 124.5t-47 162.5q0 18 -9.5 51t-9.5 49q0 6 4 53q7 82 47 217q5 5 -8 29q0 53 -59 53q-2 0 -32 -6t-34 -6h-30q-29 0 -49.5 28.5t-20.5 63.5
q0 64 68 94h34q4 0 37 -12t41 -12h90q4 0 56.5 22.5t70.5 22.5q109 0 174 -113q39 -10 115 -41q0 -10 2 -14l21 16q8 0 14 -12q10 4 18 4q11 0 20 -10t19 -10q6 0 11.5 3t7.5 3q6 0 41 -31q12 10 18 10q25 0 113 -88l49 -86q35 -65 35 -106v-82zM815 442q0 56 -69 144
q-60 73 -101 98q-123 74 -147 74q-10 0 -21 -31q-6 -22 -14 -45q-12 -12 -27 -39q-8 -82 -94 -164q-16 -16 -16 -139q0 -6 -9.5 -17.5t-11.5 -13.5l-2 -88q-2 -53 47 -90q41 -31 88 -31q86 0 226 111q151 123 151 231zM791 1102q2 -8 -17 -10q-30 -2 -110 53q-47 35 -95 67
l-77 -49q-58 -45 -107 -47q-20 -10 -43 -10q-6 0 -16 -6q-4 -2 -15 2q13 16 31 43q8 2 9 7t3 3q68 57 93 109q2 16 12 47q14 24 57 28q60 7 103 -43q12 -16 39 -49q59 -61 133 -145z" />
    <glyph glyph-name="uni1ED2" unicode="&#x1ed2;" horiz-adv-x="1007" 
d="M965 420q0 -115 -213 -303q-197 -144 -283 -144q-4 0 -4 3.5t-2 3.5q-6 0 -29 -7q-16 -4 -51 0q-78 11 -145 70q-33 18 -80 124.5t-47 162.5q0 18 -9.5 51t-9.5 49q0 6 4 53q7 82 47 217q5 5 -8 29q0 53 -59 53q-2 0 -32 -6t-34 -6h-30q-29 0 -49.5 28.5t-20.5 63.5
q0 64 68 94h34q4 0 37 -12t41 -12h90q4 0 56.5 22.5t70.5 22.5q109 0 174 -113q39 -10 115 -41q0 -10 2 -14l21 16q8 0 14 -12q10 4 18 4q11 0 20 -10t19 -10q6 0 11.5 3t7.5 3q6 0 41 -31q12 10 18 10q25 0 113 -88l49 -86q35 -65 35 -106v-82zM815 442q0 56 -69 144
q-60 73 -101 98q-123 74 -147 74q-10 0 -21 -31q-6 -22 -14 -45q-12 -12 -27 -39q-8 -82 -94 -164q-16 -16 -16 -139q0 -6 -9.5 -17.5t-11.5 -13.5l-2 -88q-2 -53 47 -90q41 -31 88 -31q86 0 226 111q151 123 151 231zM791 1102q2 -8 -17 -10q-30 -2 -110 53q-47 35 -95 67
l-77 -49q-58 -45 -107 -47q-20 -10 -43 -10q-6 0 -16 -6q-4 -2 -15 2q13 16 31 43q8 2 9 7t3 3q68 57 93 109q2 16 12 47q14 24 57 28q60 7 103 -43q12 -16 39 -49q59 -61 133 -145zM737 1303q0 -6 -4 -6q-6 4 -39 19l-20 8q-16 8 -12 14q-52 31 -162 82q-21 14 -66 29
q-41 2 -67.5 24.5t-26.5 55.5v26q0 17 25.5 43.5t41 28.5t23.5 2q49 0 76 -43t78 -98l85 -94.5t34 -36.5q34 -31 34 -54z" />
    <glyph glyph-name="uni1ED0" unicode="&#x1ed0;" horiz-adv-x="1007" 
d="M965 420q0 -115 -213 -303q-197 -144 -283 -144q-4 0 -4 3.5t-2 3.5q-6 0 -29 -7q-16 -4 -51 0q-78 11 -145 70q-33 18 -80 124.5t-47 162.5q0 18 -9.5 51t-9.5 49q0 6 4 53q7 82 47 217q5 5 -8 29q0 53 -59 53q-2 0 -32 -6t-34 -6h-30q-29 0 -49.5 28.5t-20.5 63.5
q0 64 68 94h34q4 0 37 -12t41 -12h90q4 0 56.5 22.5t70.5 22.5q109 0 174 -113q39 -10 115 -41q0 -10 2 -14l21 16q8 0 14 -12q10 4 18 4q11 0 20 -10t19 -10q6 0 11.5 3t7.5 3q6 0 41 -31q12 10 18 10q25 0 113 -88l49 -86q35 -65 35 -106v-82zM815 442q0 56 -69 144
q-60 73 -101 98q-123 74 -147 74q-10 0 -21 -31q-6 -22 -14 -45q-12 -12 -27 -39q-8 -82 -94 -164q-16 -16 -16 -139q0 -6 -9.5 -17.5t-11.5 -13.5l-2 -88q-2 -53 47 -90q41 -31 88 -31q86 0 226 111q151 123 151 231zM791 1102q2 -8 -17 -10q-30 -2 -110 53q-47 35 -95 67
l-77 -49q-58 -45 -107 -47q-20 -10 -43 -10q-6 0 -16 -6q-4 -2 -15 2q13 16 31 43q8 2 9 7t3 3q68 57 93 109q2 16 12 47q14 24 57 28q60 7 103 -43q12 -16 39 -49q59 -61 133 -145zM745 1357l33.5 36.5l85.5 94.5q51 55 77.5 98t75.5 43q8 0 23.5 -2t41 -28.5t25.5 -43.5
v-26q0 -33 -26.5 -55.5t-67.5 -24.5q-45 -15 -65 -29q-111 -51 -162 -82q4 -6 -12 -14l-21 -8q-33 -15 -39 -19q-4 0 -4 6q0 23 35 54z" />
    <glyph glyph-name="uni1ED4" unicode="&#x1ed4;" horiz-adv-x="1007" 
d="M965 420q0 -115 -213 -303q-197 -144 -283 -144q-4 0 -4 3.5t-2 3.5q-6 0 -29 -7q-16 -4 -51 0q-78 11 -145 70q-33 18 -80 124.5t-47 162.5q0 18 -9.5 51t-9.5 49q0 6 4 53q7 82 47 217q5 5 -8 29q0 53 -59 53q-2 0 -32 -6t-34 -6h-30q-29 0 -49.5 28.5t-20.5 63.5
q0 64 68 94h34q4 0 37 -12t41 -12h90q4 0 56.5 22.5t70.5 22.5q109 0 174 -113q39 -10 115 -41q0 -10 2 -14l21 16q8 0 14 -12q10 4 18 4q11 0 20 -10t19 -10q6 0 11.5 3t7.5 3q6 0 41 -31q12 10 18 10q25 0 113 -88l49 -86q35 -65 35 -106v-82zM815 442q0 56 -69 144
q-60 73 -101 98q-123 74 -147 74q-10 0 -21 -31q-6 -22 -14 -45q-12 -12 -27 -39q-8 -82 -94 -164q-16 -16 -16 -139q0 -6 -9.5 -17.5t-11.5 -13.5l-2 -88q-2 -53 47 -90q41 -31 88 -31q86 0 226 111q151 123 151 231zM791 1102q2 -8 -17 -10q-30 -2 -110 53q-47 35 -95 67
l-77 -49q-58 -45 -107 -47q-20 -10 -43 -10q-6 0 -16 -6q-4 -2 -15 2q13 16 31 43q8 2 9 7t3 3q68 57 93 109q2 16 12 47q14 24 57 28q60 7 103 -43q12 -16 39 -49q59 -61 133 -145zM993 1666q0 -39 -55 -111q-20 -39 -74 -95q-51 -42 -59 -50q-33 -29 -47 -47q23 -4 23 -27
q0 -10 -14 -38q-7 -1 -23 -7.5t-25 -6.5q-24 0 -31 13q-5 9 -5 35q0 30 74 115q98 112 100 115q9 14 27 49q21 40 22 50q-1 3 -12 3q-84 -21 -122 -44q-63 -35 -80 -95q-15 -50 -55 -50q-50 0 -69 65q-2 52 63 95q30 4 138 41q97 33 141 32q36 -1 52 -8q22 -9 31 -34z" />
    <glyph glyph-name="uni1ED6" unicode="&#x1ed6;" horiz-adv-x="1007" 
d="M965 420q0 -115 -213 -303q-197 -144 -283 -144q-4 0 -4 3.5t-2 3.5q-6 0 -29 -7q-16 -4 -51 0q-78 11 -145 70q-33 18 -80 124.5t-47 162.5q0 18 -9.5 51t-9.5 49q0 6 4 53q7 82 47 217q5 5 -8 29q0 53 -59 53q-2 0 -32 -6t-34 -6h-30q-29 0 -49.5 28.5t-20.5 63.5
q0 64 68 94h34q4 0 37 -12t41 -12h90q4 0 56.5 22.5t70.5 22.5q109 0 174 -113q39 -10 115 -41q0 -10 2 -14l21 16q8 0 14 -12q10 4 18 4q11 0 20 -10t19 -10q6 0 11.5 3t7.5 3q6 0 41 -31q12 10 18 10q25 0 113 -88l49 -86q35 -65 35 -106v-82zM815 442q0 56 -69 144
q-60 73 -101 98q-123 74 -147 74q-10 0 -21 -31q-6 -22 -14 -45q-12 -12 -27 -39q-8 -82 -94 -164q-16 -16 -16 -139q0 -6 -9.5 -17.5t-11.5 -13.5l-2 -88q-2 -53 47 -90q41 -31 88 -31q86 0 226 111q151 123 151 231zM791 1102q2 -8 -17 -10q-30 -2 -110 53q-47 35 -95 67
l-77 -49q-58 -45 -107 -47q-20 -10 -43 -10q-6 0 -16 -6q-4 -2 -15 2q13 16 31 43q8 2 9 7t3 3q68 57 93 109q2 16 12 47q14 24 57 28q60 7 103 -43q12 -16 39 -49q59 -61 133 -145zM988 1485q0 -10 -141 -100q-61 -15 -84 -15h-29q-36 0 -110 30.5t-79 30.5
q-11 0 -41.5 -15t-51.5 -15q-69 0 -69 43q0 29 105 62q64 18 113 26h26q48 0 79 -30l31 -30q44 21 149 54q10 1 28 1q28 0 51 -13t23 -29z" />
    <glyph glyph-name="uni1ED8" unicode="&#x1ed8;" horiz-adv-x="1007" 
d="M965 420q0 -115 -213 -303q-197 -144 -283 -144q-4 0 -4 3.5t-2 3.5q-6 0 -29 -7q-16 -4 -51 0q-78 11 -145 70q-33 18 -80 124.5t-47 162.5q0 18 -9.5 51t-9.5 49q0 6 4 53q7 82 47 217q5 5 -8 29q0 53 -59 53q-2 0 -32 -6t-34 -6h-30q-29 0 -49.5 28.5t-20.5 63.5
q0 64 68 94h34q4 0 37 -12t41 -12h90q4 0 56.5 22.5t70.5 22.5q109 0 174 -113q39 -10 115 -41q0 -10 2 -14l21 16q8 0 14 -12q10 4 18 4q11 0 20 -10t19 -10q6 0 11.5 3t7.5 3q6 0 41 -31q12 10 18 10q25 0 113 -88l49 -86q35 -65 35 -106v-82zM815 442q0 56 -69 144
q-60 73 -101 98q-123 74 -147 74q-10 0 -21 -31q-6 -22 -14 -45q-12 -12 -27 -39q-8 -82 -94 -164q-16 -16 -16 -139q0 -6 -9.5 -17.5t-11.5 -13.5l-2 -88q-2 -53 47 -90q41 -31 88 -31q86 0 226 111q151 123 151 231zM791 1102q2 -8 -17 -10q-30 -2 -110 53q-47 35 -95 67
l-77 -49q-58 -45 -107 -47q-20 -10 -43 -10q-6 0 -16 -6q-4 -2 -15 2q13 16 31 43q8 2 9 7t3 3q68 57 93 109q2 16 12 47q14 24 57 28q60 7 103 -43q12 -16 39 -49q59 -61 133 -145zM484 -183q0 -9 -28.5 -24.5t-34.5 -14.5t-18.5 -1.5l-12.5 -2.5q-30 0 -75 21
q-53 24 -53 50v15q0 23 24 36t52 13q24 -4 49 2q20 0 56.5 -22t36.5 -35q0 -29 4 -37z" />
    <glyph glyph-name="Ugrave" unicode="&#xd9;" horiz-adv-x="995" 
d="M1064 150q0 -5 -7 -23t-7 -25q-8 0 -20 -36q-13 -7 -22 -31.5t-21 -32.5q-27 -18 -64 -18q-108 0 -192 125q-76 114 -80 235q-2 2 -4 2q-4 0 -58 -86q-65 -102 -116 -160q-80 -86 -146 -86q-45 0 -153 99q-48 120 -48 151t-3 38t-3 15q0 56 -10 117v37q0 47 -2 51v111
q8 10 6 39q-6 43 -6 37q0 53 25 139q8 10 20 29q80 79 141 79q54 0 101 -112v-43l2 -10.5t2 -42.5q0 -31 -31 -122t-31 -118q0 -19 -7 -49.5t-7 -42.5v-78q0 -6 4 -16.5t4 -51.5q0 -22 7.5 -61t7.5 -59q0 -35 18 -35q10 0 35 28l24 31q78 82 199 328l-4 76q-12 43 -12 49
q0 10 28 59q62 70 76 82q35 31 94 51q39 2 70 -55q27 -49 27 -102q0 -3 -2.5 -19t-2.5 -20q0 -72 -8 -97q-2 -61 -7 -73.5t-7 -30.5l-2 -129q0 -23 2 -88q25 -154 68 -154q28 0 65 45l49 64h6q0 -2 2 -4v-6zM755 1028q0 -6 -4 -6q-6 4 -39 18q-10 4 -20 9q-17 8 -13 14
q-51 31 -161 82q-21 14 -66 29q-41 2 -67.5 24.5t-26.5 54.5v27q0 16 25.5 43t41 29t23.5 2q49 0 75.5 -43t78.5 -99q75 -84 84.5 -94l33.5 -37q35 -30 35 -53z" />
    <glyph glyph-name="Uacute" unicode="&#xda;" horiz-adv-x="995" 
d="M1064 150q0 -5 -7 -23t-7 -25q-8 0 -20 -36q-13 -7 -22 -31.5t-21 -32.5q-27 -18 -64 -18q-108 0 -192 125q-76 114 -80 235q-2 2 -4 2q-4 0 -58 -86q-65 -102 -116 -160q-80 -86 -146 -86q-45 0 -153 99q-48 120 -48 151t-3 38t-3 15q0 56 -10 117v37q0 47 -2 51v111
q8 10 6 39q-6 43 -6 37q0 53 25 139q8 10 20 29q80 79 141 79q54 0 101 -112v-43l2 -10.5t2 -42.5q0 -31 -31 -122t-31 -118q0 -19 -7 -49.5t-7 -42.5v-78q0 -6 4 -16.5t4 -51.5q0 -22 7.5 -61t7.5 -59q0 -35 18 -35q10 0 35 28l24 31q78 82 199 328l-4 76q-12 43 -12 49
q0 10 28 59q62 70 76 82q35 31 94 51q39 2 70 -55q27 -49 27 -102q0 -3 -2.5 -19t-2.5 -20q0 -72 -8 -97q-2 -61 -7 -73.5t-7 -30.5l-2 -129q0 -23 2 -88q25 -154 68 -154q28 0 65 45l49 64h6q0 -2 2 -4v-6zM827 1268q0 -49 -29 -66q-6 -8 -22 -20l-142 -78q-28 -19 -71 -27
q-17 -6 -54 -16q-4 0 -12 -6q-8 -4 -12 0q-12 -11 -29 -15q-6 0 -12 2q47 43 86 84q94 95 127 152q0 2 6 29q2 8 26.5 24.5t34.5 18.5q31 6 62 -14.5t37 -49.5q4 -4 4 -18z" />
    <glyph glyph-name="uni1EE6" unicode="&#x1ee6;" horiz-adv-x="995" 
d="M1064 150q0 -5 -7 -23t-7 -25q-8 0 -20 -36q-13 -7 -22 -31.5t-21 -32.5q-27 -18 -64 -18q-108 0 -192 125q-76 114 -80 235q-2 2 -4 2q-4 0 -58 -86q-65 -102 -116 -160q-80 -86 -146 -86q-45 0 -153 99q-48 120 -48 151t-3 38t-3 15q0 56 -10 117v37q0 47 -2 51v111
q8 10 6 39q-6 43 -6 37q0 53 25 139q8 10 20 29q80 79 141 79q54 0 101 -112v-43l2 -10.5t2 -42.5q0 -31 -31 -122t-31 -118q0 -19 -7 -49.5t-7 -42.5v-78q0 -6 4 -16.5t4 -51.5q0 -22 7.5 -61t7.5 -59q0 -35 18 -35q10 0 35 28l24 31q78 82 199 328l-4 76q-12 43 -12 49
q0 10 28 59q62 70 76 82q35 31 94 51q39 2 70 -55q27 -49 27 -102q0 -3 -2.5 -19t-2.5 -20q0 -72 -8 -97q-2 -61 -7 -73.5t-7 -30.5l-2 -129q0 -23 2 -88q25 -154 68 -154q28 0 65 45l49 64h6q0 -2 2 -4v-6zM839 1398q0 -39 -56 -111q-19 -39 -74 -95l-59 -50
q-33 -29 -47 -47q24 -4 24 -27q0 -10 -15 -38q-7 -1 -23 -7.5t-25 -6.5q-24 0 -31 13q-5 9 -5 35q0 30 74 115q98 112 100 115q9 14 28 49q20 40 21 50q-1 3 -12 3q-83 -21 -121 -44q-63 -35 -81 -95q-14 -50 -54 -50q-51 0 -69 65q-2 52 63 95q29 4 137 41q97 33 141 32
q36 -1 52 -8q23 -9 32 -34z" />
    <glyph glyph-name="Utilde" unicode="&#x168;" horiz-adv-x="995" 
d="M1064 150q0 -5 -7 -23t-7 -25q-8 0 -20 -36q-13 -7 -22 -31.5t-21 -32.5q-27 -18 -64 -18q-108 0 -192 125q-76 114 -80 235q-2 2 -4 2q-4 0 -58 -86q-65 -102 -116 -160q-80 -86 -146 -86q-45 0 -153 99q-48 120 -48 151t-3 38t-3 15q0 56 -10 117v37q0 47 -2 51v111
q8 10 6 39q-6 43 -6 37q0 53 25 139q8 10 20 29q80 79 141 79q54 0 101 -112v-43l2 -10.5t2 -42.5q0 -31 -31 -122t-31 -118q0 -19 -7 -49.5t-7 -42.5v-78q0 -6 4 -16.5t4 -51.5q0 -22 7.5 -61t7.5 -59q0 -35 18 -35q10 0 35 28l24 31q78 82 199 328l-4 76q-12 43 -12 49
q0 10 28 59q62 70 76 82q35 31 94 51q39 2 70 -55q27 -49 27 -102q0 -3 -2.5 -19t-2.5 -20q0 -72 -8 -97q-2 -61 -7 -73.5t-7 -30.5l-2 -129q0 -23 2 -88q25 -154 68 -154q28 0 65 45l49 64h6q0 -2 2 -4v-6zM956 1135q0 -10 -141 -100q-62 -15 -85 -15h-28
q-36 0 -110.5 30.5t-79.5 30.5q-10 0 -41 -15t-51 -15q-70 0 -70 43q0 29 105 62q65 18 113 26h26q49 0 79.5 -30l30.5 -30q44 21 149 54q10 1 28 1q28 0 51.5 -13t23.5 -29z" />
    <glyph glyph-name="uni1EE4" unicode="&#x1ee4;" horiz-adv-x="995" 
d="M1064 150q0 -5 -7 -23t-7 -25q-8 0 -20 -36q-13 -7 -22 -31.5t-21 -32.5q-27 -18 -64 -18q-108 0 -192 125q-76 114 -80 235q-2 2 -4 2q-4 0 -58 -86q-65 -102 -116 -160q-80 -86 -146 -86q-45 0 -153 99q-48 120 -48 151t-3 38t-3 15q0 56 -10 117v37q0 47 -2 51v111
q8 10 6 39q-6 43 -6 37q0 53 25 139q8 10 20 29q80 79 141 79q54 0 101 -112v-43l2 -10.5t2 -42.5q0 -31 -31 -122t-31 -118q0 -19 -7 -49.5t-7 -42.5v-78q0 -6 4 -16.5t4 -51.5q0 -22 7.5 -61t7.5 -59q0 -35 18 -35q10 0 35 28l24 31q78 82 199 328l-4 76q-12 43 -12 49
q0 10 28 59q62 70 76 82q35 31 94 51q39 2 70 -55q27 -49 27 -102q0 -3 -2.5 -19t-2.5 -20q0 -72 -8 -97q-2 -61 -7 -73.5t-7 -30.5l-2 -129q0 -23 2 -88q25 -154 68 -154q28 0 65 45l49 64h6q0 -2 2 -4v-6zM647 -183q0 -9 -28.5 -24.5t-34.5 -14.5t-18 -1.5l-12 -2.5
q-30 0 -76 21q-53 24 -53 50v15q0 23 24.5 36t51.5 13q24 -4 50 2q19 0 55.5 -22t36.5 -35q0 -29 4 -37z" />
    <glyph glyph-name="Uhorn" unicode="&#x1af;" horiz-adv-x="995" 
d="M1064 150q0 -5 -7 -23t-7 -25q-8 0 -20 -36q-13 -7 -22 -31.5t-21 -32.5q-27 -18 -64 -18q-108 0 -192 125q-76 114 -80 235q-2 2 -4 2q-4 0 -58 -86q-65 -102 -116 -160q-80 -86 -146 -86q-45 0 -153 99q-48 120 -48 151t-3 38t-3 15q0 56 -10 117v37q0 47 -2 51v111
q8 10 6 39q-6 43 -6 37q0 53 25 139q8 10 20 29q80 79 141 79q54 0 101 -112v-43l2 -10.5t2 -42.5q0 -31 -31 -122t-31 -118q0 -19 -7 -49.5t-7 -42.5v-78q0 -6 4 -16.5t4 -51.5q0 -22 7.5 -61t7.5 -59q0 -35 18 -35q10 0 35 28l24 31q78 82 199 328l-4 76q-12 43 -12 49
q0 10 28 59q62 70 76 82q35 31 94 51q39 2 70 -55q27 -49 27 -102q0 -3 -2.5 -19t-2.5 -20q0 -72 -8 -97q-2 -61 -7 -73.5t-7 -30.5l-2 -129q0 -23 2 -88q25 -154 68 -154q28 0 65 45l49 64h6q0 -2 2 -4v-6zM1134 926q0 -6 -6 -17.5t-6 -17.5q-23 -84 -107 -156q-2 -2 -6 -3
t-13 -11t-13.5 -13t-12.5 -16l-2 2q-67 -71 -121 -100v6q0 12 23 47q63 98 84 197q2 10 0 45q-2 22 -54.5 49t-52.5 53q0 51 62 78q47 23 98 23q119 0 127 -111q2 -35 -2 -49q2 -2 2 -4v-2z" />
    <glyph glyph-name="uni1EEA" unicode="&#x1eea;" horiz-adv-x="995" 
d="M1064 150q0 -5 -7 -23t-7 -25q-8 0 -20 -36q-13 -7 -22 -31.5t-21 -32.5q-27 -18 -64 -18q-108 0 -192 125q-76 114 -80 235q-2 2 -4 2q-4 0 -58 -86q-65 -102 -116 -160q-80 -86 -146 -86q-45 0 -153 99q-48 120 -48 151t-3 38t-3 15q0 56 -10 117v37q0 47 -2 51v111
q8 10 6 39q-6 43 -6 37q0 53 25 139q8 10 20 29q80 79 141 79q54 0 101 -112v-43l2 -10.5t2 -42.5q0 -31 -31 -122t-31 -118q0 -19 -7 -49.5t-7 -42.5v-78q0 -6 4 -16.5t4 -51.5q0 -22 7.5 -61t7.5 -59q0 -35 18 -35q10 0 35 28l24 31q78 82 199 328l-4 76q-12 43 -12 49
q0 10 28 59q62 70 76 82q35 31 94 51q39 2 70 -55q27 -49 27 -102q0 -3 -2.5 -19t-2.5 -20q0 -72 -8 -97q-2 -61 -7 -73.5t-7 -30.5l-2 -129q0 -23 2 -88q25 -154 68 -154q28 0 65 45l49 64h6q0 -2 2 -4v-6zM755 1028q0 -6 -4 -6q-6 4 -39 18q-10 4 -20 9q-17 8 -13 14
q-51 31 -161 82q-21 14 -66 29q-41 2 -67.5 24.5t-26.5 54.5v27q0 16 25.5 43t41 29t23.5 2q49 0 75.5 -43t78.5 -99q75 -84 84.5 -94l33.5 -37q35 -30 35 -53zM1134 926q0 -6 -6 -17.5t-6 -17.5q-23 -84 -107 -156q-2 -2 -6 -3t-13 -11t-13.5 -13t-12.5 -16l-2 2
q-67 -71 -121 -100v6q0 12 23 47q63 98 84 197q2 10 0 45q-2 22 -54.5 49t-52.5 53q0 51 62 78q47 23 98 23q119 0 127 -111q2 -35 -2 -49q2 -2 2 -4v-2z" />
    <glyph glyph-name="uni1EE8" unicode="&#x1ee8;" horiz-adv-x="995" 
d="M1064 150q0 -5 -7 -23t-7 -25q-8 0 -20 -36q-13 -7 -22 -31.5t-21 -32.5q-27 -18 -64 -18q-108 0 -192 125q-76 114 -80 235q-2 2 -4 2q-4 0 -58 -86q-65 -102 -116 -160q-80 -86 -146 -86q-45 0 -153 99q-48 120 -48 151t-3 38t-3 15q0 56 -10 117v37q0 47 -2 51v111
q8 10 6 39q-6 43 -6 37q0 53 25 139q8 10 20 29q80 79 141 79q54 0 101 -112v-43l2 -10.5t2 -42.5q0 -31 -31 -122t-31 -118q0 -19 -7 -49.5t-7 -42.5v-78q0 -6 4 -16.5t4 -51.5q0 -22 7.5 -61t7.5 -59q0 -35 18 -35q10 0 35 28l24 31q78 82 199 328l-4 76q-12 43 -12 49
q0 10 28 59q62 70 76 82q35 31 94 51q39 2 70 -55q27 -49 27 -102q0 -3 -2.5 -19t-2.5 -20q0 -72 -8 -97q-2 -61 -7 -73.5t-7 -30.5l-2 -129q0 -23 2 -88q25 -154 68 -154q28 0 65 45l49 64h6q0 -2 2 -4v-6zM827 1268q0 -49 -29 -66q-6 -8 -22 -20l-142 -78q-28 -19 -71 -27
q-17 -6 -54 -16q-4 0 -12 -6q-8 -4 -12 0q-12 -11 -29 -15q-6 0 -12 2q47 43 86 84q94 95 127 152q0 2 6 29q2 8 26.5 24.5t34.5 18.5q31 6 62 -14.5t37 -49.5q4 -4 4 -18zM1134 926q0 -6 -6 -17.5t-6 -17.5q-23 -84 -107 -156q-2 -2 -6 -3t-13 -11t-13.5 -13t-12.5 -16
l-2 2q-67 -71 -121 -100v6q0 12 23 47q63 98 84 197q2 10 0 45q-2 22 -54.5 49t-52.5 53q0 51 62 78q47 23 98 23q119 0 127 -111q2 -35 -2 -49q2 -2 2 -4v-2z" />
    <glyph glyph-name="uni1EEC" unicode="&#x1eec;" horiz-adv-x="995" 
d="M1064 150q0 -5 -7 -23t-7 -25q-8 0 -20 -36q-13 -7 -22 -31.5t-21 -32.5q-27 -18 -64 -18q-108 0 -192 125q-76 114 -80 235q-2 2 -4 2q-4 0 -58 -86q-65 -102 -116 -160q-80 -86 -146 -86q-45 0 -153 99q-48 120 -48 151t-3 38t-3 15q0 56 -10 117v37q0 47 -2 51v111
q8 10 6 39q-6 43 -6 37q0 53 25 139q8 10 20 29q80 79 141 79q54 0 101 -112v-43l2 -10.5t2 -42.5q0 -31 -31 -122t-31 -118q0 -19 -7 -49.5t-7 -42.5v-78q0 -6 4 -16.5t4 -51.5q0 -22 7.5 -61t7.5 -59q0 -35 18 -35q10 0 35 28l24 31q78 82 199 328l-4 76q-12 43 -12 49
q0 10 28 59q62 70 76 82q35 31 94 51q39 2 70 -55q27 -49 27 -102q0 -3 -2.5 -19t-2.5 -20q0 -72 -8 -97q-2 -61 -7 -73.5t-7 -30.5l-2 -129q0 -23 2 -88q25 -154 68 -154q28 0 65 45l49 64h6q0 -2 2 -4v-6zM839 1398q0 -39 -56 -111q-19 -39 -74 -95l-59 -50
q-33 -29 -47 -47q24 -4 24 -27q0 -10 -15 -38q-7 -1 -23 -7.5t-25 -6.5q-24 0 -31 13q-5 9 -5 35q0 30 74 115q98 112 100 115q9 14 28 49q20 40 21 50q-1 3 -12 3q-83 -21 -121 -44q-63 -35 -81 -95q-14 -50 -54 -50q-51 0 -69 65q-2 52 63 95q29 4 137 41q97 33 141 32
q36 -1 52 -8q23 -9 32 -34zM1134 926q0 -6 -6 -17.5t-6 -17.5q-23 -84 -107 -156q-2 -2 -6 -3t-13 -11t-13.5 -13t-12.5 -16l-2 2q-67 -71 -121 -100v6q0 12 23 47q63 98 84 197q2 10 0 45q-2 22 -54.5 49t-52.5 53q0 51 62 78q47 23 98 23q119 0 127 -111q2 -35 -2 -49
q2 -2 2 -4v-2z" />
    <glyph glyph-name="uni1EEE" unicode="&#x1eee;" horiz-adv-x="995" 
d="M1064 150q0 -5 -7 -23t-7 -25q-8 0 -20 -36q-13 -7 -22 -31.5t-21 -32.5q-27 -18 -64 -18q-108 0 -192 125q-76 114 -80 235q-2 2 -4 2q-4 0 -58 -86q-65 -102 -116 -160q-80 -86 -146 -86q-45 0 -153 99q-48 120 -48 151t-3 38t-3 15q0 56 -10 117v37q0 47 -2 51v111
q8 10 6 39q-6 43 -6 37q0 53 25 139q8 10 20 29q80 79 141 79q54 0 101 -112v-43l2 -10.5t2 -42.5q0 -31 -31 -122t-31 -118q0 -19 -7 -49.5t-7 -42.5v-78q0 -6 4 -16.5t4 -51.5q0 -22 7.5 -61t7.5 -59q0 -35 18 -35q10 0 35 28l24 31q78 82 199 328l-4 76q-12 43 -12 49
q0 10 28 59q62 70 76 82q35 31 94 51q39 2 70 -55q27 -49 27 -102q0 -3 -2.5 -19t-2.5 -20q0 -72 -8 -97q-2 -61 -7 -73.5t-7 -30.5l-2 -129q0 -23 2 -88q25 -154 68 -154q28 0 65 45l49 64h6q0 -2 2 -4v-6zM956 1135q0 -10 -141 -100q-62 -15 -85 -15h-28
q-36 0 -110.5 30.5t-79.5 30.5q-10 0 -41 -15t-51 -15q-70 0 -70 43q0 29 105 62q65 18 113 26h26q49 0 79.5 -30l30.5 -30q44 21 149 54q10 1 28 1q28 0 51.5 -13t23.5 -29zM1134 926q0 -6 -6 -17.5t-6 -17.5q-23 -84 -107 -156q-2 -2 -6 -3t-13 -11t-13.5 -13t-12.5 -16
l-2 2q-67 -71 -121 -100v6q0 12 23 47q63 98 84 197q2 10 0 45q-2 22 -54.5 49t-52.5 53q0 51 62 78q47 23 98 23q119 0 127 -111q2 -35 -2 -49q2 -2 2 -4v-2z" />
    <glyph glyph-name="uni1EF0" unicode="&#x1ef0;" horiz-adv-x="995" 
d="M1064 150q0 -5 -7 -23t-7 -25q-8 0 -20 -36q-13 -7 -22 -31.5t-21 -32.5q-27 -18 -64 -18q-108 0 -192 125q-76 114 -80 235q-2 2 -4 2q-4 0 -58 -86q-65 -102 -116 -160q-80 -86 -146 -86q-45 0 -153 99q-48 120 -48 151t-3 38t-3 15q0 56 -10 117v37q0 47 -2 51v111
q8 10 6 39q-6 43 -6 37q0 53 25 139q8 10 20 29q80 79 141 79q54 0 101 -112v-43l2 -10.5t2 -42.5q0 -31 -31 -122t-31 -118q0 -19 -7 -49.5t-7 -42.5v-78q0 -6 4 -16.5t4 -51.5q0 -22 7.5 -61t7.5 -59q0 -35 18 -35q10 0 35 28l24 31q78 82 199 328l-4 76q-12 43 -12 49
q0 10 28 59q62 70 76 82q35 31 94 51q39 2 70 -55q27 -49 27 -102q0 -3 -2.5 -19t-2.5 -20q0 -72 -8 -97q-2 -61 -7 -73.5t-7 -30.5l-2 -129q0 -23 2 -88q25 -154 68 -154q28 0 65 45l49 64h6q0 -2 2 -4v-6zM647 -183q0 -9 -28.5 -24.5t-34.5 -14.5t-18 -1.5l-12 -2.5
q-30 0 -76 21q-53 24 -53 50v15q0 23 24.5 36t51.5 13q24 -4 50 2q19 0 55.5 -22t36.5 -35q0 -29 4 -37zM1134 926q0 -6 -6 -17.5t-6 -17.5q-23 -84 -107 -156q-2 -2 -6 -3t-13 -11t-13.5 -13t-12.5 -16l-2 2q-67 -71 -121 -100v6q0 12 23 47q63 98 84 197q2 10 0 45
q-2 22 -54.5 49t-52.5 53q0 51 62 78q47 23 98 23q119 0 127 -111q2 -35 -2 -49q2 -2 2 -4v-2z" />
    <glyph glyph-name="Ohorn" unicode="&#x1a0;" horiz-adv-x="1007" 
d="M965 420q0 -115 -213 -303q-197 -144 -283 -144q-4 0 -4 3.5t-2 3.5q-6 0 -29 -7q-16 -4 -51 0q-78 11 -145 70q-33 18 -80 124.5t-47 162.5q0 18 -9.5 51t-9.5 49q0 6 4 53q7 82 47 217q5 5 -8 29q0 53 -59 53q-2 0 -32 -6t-34 -6h-30q-29 0 -49.5 28.5t-20.5 63.5
q0 64 68 94h34q4 0 37 -12t41 -12h90q4 0 56.5 22.5t70.5 22.5q109 0 174 -113q39 -10 115 -41q0 -10 2 -14l21 16q8 0 14 -12q10 4 18 4q11 0 20 -10t19 -10q6 0 11.5 3t7.5 3q6 0 41 -31q12 10 18 10q25 0 113 -88l49 -86q35 -65 35 -106v-82zM815 442q0 56 -69 144
q-60 73 -101 98q-123 74 -147 74q-10 0 -21 -31q-6 -22 -14 -45q-12 -12 -27 -39q-8 -82 -94 -164q-16 -16 -16 -139q0 -6 -9.5 -17.5t-11.5 -13.5l-2 -88q-2 -53 47 -90q41 -31 88 -31q86 0 226 111q151 123 151 231zM1135 926q0 -6 -6.5 -17.5t-6.5 -17.5
q-22 -84 -106 -156q-2 -2 -6 -3t-13.5 -11t-13.5 -13t-12 -16l-2 2q-68 -71 -121 -100v6q0 12 23 47q63 98 83 197q3 10 0 45q-2 22 -54 49t-52 53q0 51 61 78q48 23 99 23q119 0 127 -111q2 -35 -2 -49q2 -2 2 -4v-2z" />
    <glyph glyph-name="uni1EDC" unicode="&#x1edc;" horiz-adv-x="1007" 
d="M965 420q0 -115 -213 -303q-197 -144 -283 -144q-4 0 -4 3.5t-2 3.5q-6 0 -29 -7q-16 -4 -51 0q-78 11 -145 70q-33 18 -80 124.5t-47 162.5q0 18 -9.5 51t-9.5 49q0 6 4 53q7 82 47 217q5 5 -8 29q0 53 -59 53q-2 0 -32 -6t-34 -6h-30q-29 0 -49.5 28.5t-20.5 63.5
q0 64 68 94h34q4 0 37 -12t41 -12h90q4 0 56.5 22.5t70.5 22.5q109 0 174 -113q39 -10 115 -41q0 -10 2 -14l21 16q8 0 14 -12q10 4 18 4q11 0 20 -10t19 -10q6 0 11.5 3t7.5 3q6 0 41 -31q12 10 18 10q25 0 113 -88l49 -86q35 -65 35 -106v-82zM815 442q0 56 -69 144
q-60 73 -101 98q-123 74 -147 74q-10 0 -21 -31q-6 -22 -14 -45q-12 -12 -27 -39q-8 -82 -94 -164q-16 -16 -16 -139q0 -6 -9.5 -17.5t-11.5 -13.5l-2 -88q-2 -53 47 -90q41 -31 88 -31q86 0 226 111q151 123 151 231zM731 1034q0 -6 -4 -6q-6 4 -39 19l-20 8q-17 8 -13 14
q-51 31 -161 82q-21 14 -66 29q-41 2 -67.5 24.5t-26.5 55.5v26q0 17 25.5 43.5t41 28.5t23.5 2q49 0 75.5 -43t78.5 -98l84.5 -94.5l33.5 -37.5q35 -30 35 -53zM1135 926q0 -6 -6.5 -17.5t-6.5 -17.5q-22 -84 -106 -156q-2 -2 -6 -3t-13.5 -11t-13.5 -13t-12 -16l-2 2
q-68 -71 -121 -100v6q0 12 23 47q63 98 83 197q3 10 0 45q-2 22 -54 49t-52 53q0 51 61 78q48 23 99 23q119 0 127 -111q2 -35 -2 -49q2 -2 2 -4v-2z" />
    <glyph glyph-name="uni1EDA" unicode="&#x1eda;" horiz-adv-x="1007" 
d="M965 420q0 -115 -213 -303q-197 -144 -283 -144q-4 0 -4 3.5t-2 3.5q-6 0 -29 -7q-16 -4 -51 0q-78 11 -145 70q-33 18 -80 124.5t-47 162.5q0 18 -9.5 51t-9.5 49q0 6 4 53q7 82 47 217q5 5 -8 29q0 53 -59 53q-2 0 -32 -6t-34 -6h-30q-29 0 -49.5 28.5t-20.5 63.5
q0 64 68 94h34q4 0 37 -12t41 -12h90q4 0 56.5 22.5t70.5 22.5q109 0 174 -113q39 -10 115 -41q0 -10 2 -14l21 16q8 0 14 -12q10 4 18 4q11 0 20 -10t19 -10q6 0 11.5 3t7.5 3q6 0 41 -31q12 10 18 10q25 0 113 -88l49 -86q35 -65 35 -106v-82zM815 442q0 56 -69 144
q-60 73 -101 98q-123 74 -147 74q-10 0 -21 -31q-6 -22 -14 -45q-12 -12 -27 -39q-8 -82 -94 -164q-16 -16 -16 -139q0 -6 -9.5 -17.5t-11.5 -13.5l-2 -88q-2 -53 47 -90q41 -31 88 -31q86 0 226 111q151 123 151 231zM719 1321q0 -49 -29 -66q-6 -8 -22 -20l-142 -78
q-28 -18 -71 -27q-17 -6 -53 -16q-5 0 -13 -6q-8 -4 -12 0q-12 -10 -29 -14q-6 0 -12 2q47 43 86 84q94 94 127 151q0 2 6 29q2 8 26.5 24.5t35.5 18.5q30 6 61 -14.5t37 -49.5q4 -4 4 -18zM1135 926q0 -6 -6.5 -17.5t-6.5 -17.5q-22 -84 -106 -156q-2 -2 -6 -3t-13.5 -11
t-13.5 -13t-12 -16l-2 2q-68 -71 -121 -100v6q0 12 23 47q63 98 83 197q3 10 0 45q-2 22 -54 49t-52 53q0 51 61 78q48 23 99 23q119 0 127 -111q2 -35 -2 -49q2 -2 2 -4v-2z" />
    <glyph glyph-name="uni1EDE" unicode="&#x1ede;" horiz-adv-x="1007" 
d="M965 420q0 -115 -213 -303q-197 -144 -283 -144q-4 0 -4 3.5t-2 3.5q-6 0 -29 -7q-16 -4 -51 0q-78 11 -145 70q-33 18 -80 124.5t-47 162.5q0 18 -9.5 51t-9.5 49q0 6 4 53q7 82 47 217q5 5 -8 29q0 53 -59 53q-2 0 -32 -6t-34 -6h-30q-29 0 -49.5 28.5t-20.5 63.5
q0 64 68 94h34q4 0 37 -12t41 -12h90q4 0 56.5 22.5t70.5 22.5q109 0 174 -113q39 -10 115 -41q0 -10 2 -14l21 16q8 0 14 -12q10 4 18 4q11 0 20 -10t19 -10q6 0 11.5 3t7.5 3q6 0 41 -31q12 10 18 10q25 0 113 -88l49 -86q35 -65 35 -106v-82zM815 442q0 56 -69 144
q-60 73 -101 98q-123 74 -147 74q-10 0 -21 -31q-6 -22 -14 -45q-12 -12 -27 -39q-8 -82 -94 -164q-16 -16 -16 -139q0 -6 -9.5 -17.5t-11.5 -13.5l-2 -88q-2 -53 47 -90q41 -31 88 -31q86 0 226 111q151 123 151 231zM838 1336q0 -39 -55 -111q-20 -39 -74 -95
q-51 -42 -59 -50q-33 -29 -47 -47q23 -4 23 -27q0 -10 -14 -38q-7 -1 -23 -7.5t-25 -6.5q-24 0 -31 13q-5 9 -5 35q0 30 74 115q98 112 100 115q9 14 27 49q21 40 22 50q-1 3 -12 3q-84 -21 -122 -44q-63 -35 -80 -95q-15 -50 -55 -50q-50 0 -69 65q-2 52 63 95q30 4 138 41
q97 33 141 32q36 -1 52 -8q22 -9 31 -34zM1135 926q0 -6 -6.5 -17.5t-6.5 -17.5q-22 -84 -106 -156q-2 -2 -6 -3t-13.5 -11t-13.5 -13t-12 -16l-2 2q-68 -71 -121 -100v6q0 12 23 47q63 98 83 197q3 10 0 45q-2 22 -54 49t-52 53q0 51 61 78q48 23 99 23q119 0 127 -111
q2 -35 -2 -49q2 -2 2 -4v-2z" />
    <glyph glyph-name="uni1EE0" unicode="&#x1ee0;" horiz-adv-x="1007" 
d="M965 420q0 -115 -213 -303q-197 -144 -283 -144q-4 0 -4 3.5t-2 3.5q-6 0 -29 -7q-16 -4 -51 0q-78 11 -145 70q-33 18 -80 124.5t-47 162.5q0 18 -9.5 51t-9.5 49q0 6 4 53q7 82 47 217q5 5 -8 29q0 53 -59 53q-2 0 -32 -6t-34 -6h-30q-29 0 -49.5 28.5t-20.5 63.5
q0 64 68 94h34q4 0 37 -12t41 -12h90q4 0 56.5 22.5t70.5 22.5q109 0 174 -113q39 -10 115 -41q0 -10 2 -14l21 16q8 0 14 -12q10 4 18 4q11 0 20 -10t19 -10q6 0 11.5 3t7.5 3q6 0 41 -31q12 10 18 10q25 0 113 -88l49 -86q35 -65 35 -106v-82zM815 442q0 56 -69 144
q-60 73 -101 98q-123 74 -147 74q-10 0 -21 -31q-6 -22 -14 -45q-12 -12 -27 -39q-8 -82 -94 -164q-16 -16 -16 -139q0 -6 -9.5 -17.5t-11.5 -13.5l-2 -88q-2 -53 47 -90q41 -31 88 -31q86 0 226 111q151 123 151 231zM854 1207q0 -10 -141 -100q-61 -15 -84 -15h-29
q-36 0 -110 30.5t-79 30.5q-11 0 -41.5 -15t-51.5 -15q-69 0 -69 43q0 29 105 62q64 18 113 26h26q48 0 79 -30l31 -30q44 21 149 54q10 1 28 1q28 0 51 -13t23 -29zM1135 926q0 -6 -6.5 -17.5t-6.5 -17.5q-22 -84 -106 -156q-2 -2 -6 -3t-13.5 -11t-13.5 -13t-12 -16l-2 2
q-68 -71 -121 -100v6q0 12 23 47q63 98 83 197q3 10 0 45q-2 22 -54 49t-52 53q0 51 61 78q48 23 99 23q119 0 127 -111q2 -35 -2 -49q2 -2 2 -4v-2z" />
    <glyph glyph-name="uni1EE2" unicode="&#x1ee2;" horiz-adv-x="1007" 
d="M965 420q0 -115 -213 -303q-197 -144 -283 -144q-4 0 -4 3.5t-2 3.5q-6 0 -29 -7q-16 -4 -51 0q-78 11 -145 70q-33 18 -80 124.5t-47 162.5q0 18 -9.5 51t-9.5 49q0 6 4 53q7 82 47 217q5 5 -8 29q0 53 -59 53q-2 0 -32 -6t-34 -6h-30q-29 0 -49.5 28.5t-20.5 63.5
q0 64 68 94h34q4 0 37 -12t41 -12h90q4 0 56.5 22.5t70.5 22.5q109 0 174 -113q39 -10 115 -41q0 -10 2 -14l21 16q8 0 14 -12q10 4 18 4q11 0 20 -10t19 -10q6 0 11.5 3t7.5 3q6 0 41 -31q12 10 18 10q25 0 113 -88l49 -86q35 -65 35 -106v-82zM815 442q0 56 -69 144
q-60 73 -101 98q-123 74 -147 74q-10 0 -21 -31q-6 -22 -14 -45q-12 -12 -27 -39q-8 -82 -94 -164q-16 -16 -16 -139q0 -6 -9.5 -17.5t-11.5 -13.5l-2 -88q-2 -53 47 -90q41 -31 88 -31q86 0 226 111q151 123 151 231zM464 -183q0 -9 -28.5 -24.5t-34.5 -14.5t-18.5 -1.5
l-12.5 -2.5q-30 0 -75 21q-53 24 -53 50v15q0 23 24 36t52 13q24 -4 49 2q20 0 56.5 -22t36.5 -35q0 -29 4 -37zM1135 926q0 -6 -6.5 -17.5t-6.5 -17.5q-22 -84 -106 -156q-2 -2 -6 -3t-13.5 -11t-13.5 -13t-12 -16l-2 2q-68 -71 -121 -100v6q0 12 23 47q63 98 83 197
q3 10 0 45q-2 22 -54 49t-52 53q0 51 61 78q48 23 99 23q119 0 127 -111q2 -35 -2 -49q2 -2 2 -4v-2z" />
    <glyph glyph-name="Ygrave" unicode="&#x1ef2;" horiz-adv-x="905" 
d="M924 997q-2 -2 -4 -18q-2 -18 0 -21q-13 -61 -50 -92q-18 -16 -57 -32q-47 -21 -65 -33q-179 -115 -179 -395q-4 -7 0 -17q-10 -22 -10 -94v-100q-2 -25 -8 -31l2 -78q4 -4 3 -35t1 -31v-34q-4 -60 8 -101q15 -51 8 -82l27 -53q-2 -4 -10 -4q-47 0 -105 121
q-55 115 -51 172q0 24 -8 63q0 -10 -4 54q-2 32 6 53q0 4 6 41q4 24 -4 39q0 37 11.5 116.5t11.5 122.5q10 15 10 82q-12 0 -33 -6q-26 -8 -39 -10q-28 -4 -78 -2q-63 4 -147 62.5t-115 113.5q-20 61 -71 180q0 23 -11.5 36t-13.5 28q6 10 6 39q-2 39 55.5 86t100.5 47
q41 10 77.5 -29t39.5 -86q2 -51 -13 -68q0 -14 -4 -43.5t-4 -46.5q0 -63 31 -137q37 -90 92 -90q33 0 78 16q57 21 51 48l14 26q0 146 121 232l8 -5q35 0 102.5 47.5t114.5 47.5q41 0 72 -29t27 -70zM520 1193q0 -6 -4 -6q-6 4 -39 18q-10 4 -21 9q-16 8 -12 14
q-51 31 -162 82q-20 14 -65 29q-41 2 -68 24.5t-27 54.5v27q0 16 26 43t41 29t24 2q49 0 75.5 -43t77.5 -99l85 -94l34 -37q35 -30 35 -53z" />
    <glyph glyph-name="Yacute" unicode="&#xdd;" horiz-adv-x="905" 
d="M924 997q-2 -2 -4 -18q-2 -18 0 -21q-13 -61 -50 -92q-18 -16 -57 -32q-47 -21 -65 -33q-179 -115 -179 -395q-4 -7 0 -17q-10 -22 -10 -94v-100q-2 -25 -8 -31l2 -78q4 -4 3 -35t1 -31v-34q-4 -60 8 -101q15 -51 8 -82l27 -53q-2 -4 -10 -4q-47 0 -105 121
q-55 115 -51 172q0 24 -8 63q0 -10 -4 54q-2 32 6 53q0 4 6 41q4 24 -4 39q0 37 11.5 116.5t11.5 122.5q10 15 10 82q-12 0 -33 -6q-26 -8 -39 -10q-28 -4 -78 -2q-63 4 -147 62.5t-115 113.5q-20 61 -71 180q0 23 -11.5 36t-13.5 28q6 10 6 39q-2 39 55.5 86t100.5 47
q41 10 77.5 -29t39.5 -86q2 -51 -13 -68q0 -14 -4 -43.5t-4 -46.5q0 -63 31 -137q37 -90 92 -90q33 0 78 16q57 21 51 48l14 26q0 146 121 232l8 -5q35 0 102.5 47.5t114.5 47.5q41 0 72 -29t27 -70zM445 1246l34 37l85 94q51 56 78 99t76 43q8 0 23.5 -2t41 -29t25.5 -43
v-27q0 -32 -26.5 -54.5t-67.5 -24.5q-45 -15 -66 -29q-111 -51 -162 -82q4 -6 -12 -14q-10 -5 -21 -9q-32 -14 -38 -18q-5 0 -5 6q0 23 35 53z" />
    <glyph glyph-name="uni1EF6" unicode="&#x1ef6;" horiz-adv-x="905" 
d="M924 997q-2 -2 -4 -18q-2 -18 0 -21q-13 -61 -50 -92q-18 -16 -57 -32q-47 -21 -65 -33q-179 -115 -179 -395q-4 -7 0 -17q-10 -22 -10 -94v-100q-2 -25 -8 -31l2 -78q4 -4 3 -35t1 -31v-34q-4 -60 8 -101q15 -51 8 -82l27 -53q-2 -4 -10 -4q-47 0 -105 121
q-55 115 -51 172q0 24 -8 63q0 -10 -4 54q-2 32 6 53q0 4 6 41q4 24 -4 39q0 37 11.5 116.5t11.5 122.5q10 15 10 82q-12 0 -33 -6q-26 -8 -39 -10q-28 -4 -78 -2q-63 4 -147 62.5t-115 113.5q-20 61 -71 180q0 23 -11.5 36t-13.5 28q6 10 6 39q-2 39 55.5 86t100.5 47
q41 10 77.5 -29t39.5 -86q2 -51 -13 -68q0 -14 -4 -43.5t-4 -46.5q0 -63 31 -137q37 -90 92 -90q33 0 78 16q57 21 51 48l14 26q0 146 121 232l8 -5q35 0 102.5 47.5t114.5 47.5q41 0 72 -29t27 -70zM674 1398q0 -39 -55 -111q-20 -39 -74 -95q-51 -42 -59 -50
q-34 -29 -47 -47q23 -4 23 -27q0 -10 -14 -38q-7 -1 -23 -7.5t-25 -6.5q-24 0 -31 13q-5 9 -5 35q0 30 74 115q98 112 100 115q9 14 27 49q21 40 22 50q-1 3 -12 3q-84 -21 -122 -44q-63 -35 -80 -95q-15 -50 -55 -50q-50 0 -69 65q-2 52 63 95q30 4 138 41q97 33 141 32
q35 -1 52 -8q22 -9 31 -34z" />
    <glyph glyph-name="uni1EF8" unicode="&#x1ef8;" horiz-adv-x="905" 
d="M924 997q-2 -2 -4 -18q-2 -18 0 -21q-13 -61 -50 -92q-18 -16 -57 -32q-47 -21 -65 -33q-179 -115 -179 -395q-4 -7 0 -17q-10 -22 -10 -94v-100q-2 -25 -8 -31l2 -78q4 -4 3 -35t1 -31v-34q-4 -60 8 -101q15 -51 8 -82l27 -53q-2 -4 -10 -4q-47 0 -105 121
q-55 115 -51 172q0 24 -8 63q0 -10 -4 54q-2 32 6 53q0 4 6 41q4 24 -4 39q0 37 11.5 116.5t11.5 122.5q10 15 10 82q-12 0 -33 -6q-26 -8 -39 -10q-28 -4 -78 -2q-63 4 -147 62.5t-115 113.5q-20 61 -71 180q0 23 -11.5 36t-13.5 28q6 10 6 39q-2 39 55.5 86t100.5 47
q41 10 77.5 -29t39.5 -86q2 -51 -13 -68q0 -14 -4 -43.5t-4 -46.5q0 -63 31 -137q37 -90 92 -90q33 0 78 16q57 21 51 48l14 26q0 146 121 232l8 -5q35 0 102.5 47.5t114.5 47.5q41 0 72 -29t27 -70zM874 1341q0 -10 -141 -100q-61 -15 -84 -15h-29q-36 0 -110 30.5
t-80 30.5q-10 0 -40.5 -15t-51.5 -15q-69 0 -69 43q0 29 105 62q64 18 113 26h26q48 0 79 -30l31 -30q43 21 149 54q10 1 28 1q28 0 51 -13t23 -29z" />
    <glyph glyph-name="uni1EF4" unicode="&#x1ef4;" horiz-adv-x="905" 
d="M924 997q-2 -2 -4 -18q-2 -18 0 -21q-13 -61 -50 -92q-18 -16 -57 -32q-47 -21 -65 -33q-179 -115 -179 -395q-4 -7 0 -17q-10 -22 -10 -94v-100q-2 -25 -8 -31l2 -78q4 -4 3 -35t1 -31v-34q-4 -60 8 -101q15 -51 8 -82l27 -53q-2 -4 -10 -4q-47 0 -105 121
q-55 115 -51 172q0 24 -8 63q0 -10 -4 54q-2 32 6 53q0 4 6 41q4 24 -4 39q0 37 11.5 116.5t11.5 122.5q10 15 10 82q-12 0 -33 -6q-26 -8 -39 -10q-28 -4 -78 -2q-63 4 -147 62.5t-115 113.5q-20 61 -71 180q0 23 -11.5 36t-13.5 28q6 10 6 39q-2 39 55.5 86t100.5 47
q41 10 77.5 -29t39.5 -86q2 -51 -13 -68q0 -14 -4 -43.5t-4 -46.5q0 -63 31 -137q37 -90 92 -90q33 0 78 16q57 21 51 48l14 26q0 146 121 232l8 -5q35 0 102.5 47.5t114.5 47.5q41 0 72 -29t27 -70zM842 314q0 -9 -28.5 -24.5t-34.5 -14.5t-18 -1.5l-12 -2.5q-31 0 -76 21
q-53 24 -53 50v15q0 23 24 36t52 13q24 -4 50 2q19 0 55.5 -22t36.5 -35q0 -29 4 -37z" />
    <glyph glyph-name="agrave" unicode="&#xe0;" horiz-adv-x="694" 
d="M821 295q2 -53 -9 -53q-8 -47 -41 -72l-2 -20q-16 -25 -53 -76l-18 -11q-17 -45 -64 -70.5t-98 -25.5q-64 0 -127 183h-2q-12 -25 -49 -56q-2 -8 -4 -7t-2 -7t-26 -22.5t-30 -37.5q-12 -4 -28 -22q-35 -29 -68 -29q-37 0 -100.5 60.5t-63.5 99.5q0 53 -8 78q0 12 14 31
q0 8 2 16v16q21 37 47 109q15 10 47.5 53t32.5 55q17 25 64 60t55 45l12 8q95 43 119 43q25 0 68 -16.5t49 -34.5q16 -17 6 -60q-33 -36 -63 -47q-19 -4 -80 -4q-25 15 -70 -2q-47 -49 -67 -106l-46 -152q9 -28 -14 -67v-19q4 -18 6 -37v-20l6 -10h7q114 77 190 254
q-2 4 -10 13t-8 17q0 17 33.5 48.5t48.5 29.5q16 16 47 16q16 0 40.5 -17t24.5 -32q0 -18 -14 -47q-21 -39 -23 -45q-24 -69 -24 -203q0 -36 14 -67l25 -6q53 0 141 114q78 99 104 172zM616 745q0 -6 -4 -6q-6 4 -39 19l-21 8q-16 8 -12 14q-51 31 -162 82q-20 15 -65 29
q-41 2 -68 24.5t-27 55.5v26q0 17 26 43.5t41 28.5t24 2q49 0 75.5 -43t77.5 -98l85 -94.5t34 -36.5q35 -31 35 -54z" />
    <glyph glyph-name="aacute" unicode="&#xe1;" horiz-adv-x="694" 
d="M821 295q2 -53 -9 -53q-8 -47 -41 -72l-2 -20q-16 -25 -53 -76l-18 -11q-17 -45 -64 -70.5t-98 -25.5q-64 0 -127 183h-2q-12 -25 -49 -56q-2 -8 -4 -7t-2 -7t-26 -22.5t-30 -37.5q-12 -4 -28 -22q-35 -29 -68 -29q-37 0 -100.5 60.5t-63.5 99.5q0 53 -8 78q0 12 14 31
q0 8 2 16v16q21 37 47 109q15 10 47.5 53t32.5 55q17 25 64 60t55 45l12 8q95 43 119 43q25 0 68 -16.5t49 -34.5q16 -17 6 -60q-33 -36 -63 -47q-19 -4 -80 -4q-25 15 -70 -2q-47 -49 -67 -106l-46 -152q9 -28 -14 -67v-19q4 -18 6 -37v-20l6 -10h7q114 77 190 254
q-2 4 -10 13t-8 17q0 17 33.5 48.5t48.5 29.5q16 16 47 16q16 0 40.5 -17t24.5 -32q0 -18 -14 -47q-21 -39 -23 -45q-24 -69 -24 -203q0 -36 14 -67l25 -6q53 0 141 114q78 99 104 172zM563 979q0 -49 -29 -66q-6 -8 -23 -20l-141 -78q-29 -18 -72 -27q-16 -6 -53 -16
q-4 0 -12 -6q-8 -4 -12 0q-13 -10 -29 -14q-6 0 -12 2q47 43 86 84q94 94 127 151q0 2 6 29q2 8 26.5 24.5t34.5 18.5q31 6 61.5 -14.5t36.5 -49.5q5 -4 5 -18z" />
    <glyph glyph-name="uni1EA3" unicode="&#x1ea3;" horiz-adv-x="694" 
d="M821 295q2 -53 -9 -53q-8 -47 -41 -72l-2 -20q-16 -25 -53 -76l-18 -11q-17 -45 -64 -70.5t-98 -25.5q-64 0 -127 183h-2q-12 -25 -49 -56q-2 -8 -4 -7t-2 -7t-26 -22.5t-30 -37.5q-12 -4 -28 -22q-35 -29 -68 -29q-37 0 -100.5 60.5t-63.5 99.5q0 53 -8 78q0 12 14 31
q0 8 2 16v16q21 37 47 109q15 10 47.5 53t32.5 55q17 25 64 60t55 45l12 8q95 43 119 43q25 0 68 -16.5t49 -34.5q16 -17 6 -60q-33 -36 -63 -47q-19 -4 -80 -4q-25 15 -70 -2q-47 -49 -67 -106l-46 -152q9 -28 -14 -67v-19q4 -18 6 -37v-20l6 -10h7q114 77 190 254
q-2 4 -10 13t-8 17q0 17 33.5 48.5t48.5 29.5q16 16 47 16q16 0 40.5 -17t24.5 -32q0 -18 -14 -47q-21 -39 -23 -45q-24 -69 -24 -203q0 -36 14 -67l25 -6q53 0 141 114q78 99 104 172zM746 1058q0 -39 -56 -111q-19 -39 -73 -95q-51 -42 -60 -50q-33 -29 -46 -47
q23 -4 23 -27q0 -10 -15 -38q-6 -1 -22.5 -7.5t-24.5 -6.5q-25 0 -31 13q-5 9 -5 35q0 30 74 115q98 112 100 115l27 49q20 40 21 50q-1 3 -11 3q-84 -21 -122 -44q-63 -35 -81 -95q-14 -50 -54 -50q-51 0 -69 65q-2 52 63 95q29 4 137 41q97 33 141 32q36 -1 53 -8
q22 -9 31 -34z" />
    <glyph glyph-name="atilde" unicode="&#xe3;" horiz-adv-x="694" 
d="M821 295q2 -53 -9 -53q-8 -47 -41 -72l-2 -20q-16 -25 -53 -76l-18 -11q-17 -45 -64 -70.5t-98 -25.5q-64 0 -127 183h-2q-12 -25 -49 -56q-2 -8 -4 -7t-2 -7t-26 -22.5t-30 -37.5q-12 -4 -28 -22q-35 -29 -68 -29q-37 0 -100.5 60.5t-63.5 99.5q0 53 -8 78q0 12 14 31
q0 8 2 16v16q21 37 47 109q15 10 47.5 53t32.5 55q17 25 64 60t55 45l12 8q95 43 119 43q25 0 68 -16.5t49 -34.5q16 -17 6 -60q-33 -36 -63 -47q-19 -4 -80 -4q-25 15 -70 -2q-47 -49 -67 -106l-46 -152q9 -28 -14 -67v-19q4 -18 6 -37v-20l6 -10h7q114 77 190 254
q-2 4 -10 13t-8 17q0 17 33.5 48.5t48.5 29.5q16 16 47 16q16 0 40.5 -17t24.5 -32q0 -18 -14 -47q-21 -39 -23 -45q-24 -69 -24 -203q0 -36 14 -67l25 -6q53 0 141 114q78 99 104 172zM838 870q0 -12 -113 -125q-49 -18 -67 -18h-23q-29 0 -88 37.5t-63 37.5
q-9 0 -33.5 -18t-40.5 -18q-55 0 -55 53q0 37 84 78q51 22 90 32h20q39 0 63.5 -37.5l24.5 -37.5q35 26 119 67q8 2 22 2q23 0 41.5 -16t18.5 -37z" />
    <glyph glyph-name="uni1EA1" unicode="&#x1ea1;" horiz-adv-x="694" 
d="M821 295q2 -53 -9 -53q-8 -47 -41 -72l-2 -20q-16 -25 -53 -76l-18 -11q-17 -45 -64 -70.5t-98 -25.5q-64 0 -127 183h-2q-12 -25 -49 -56q-2 -8 -4 -7t-2 -7t-26 -22.5t-30 -37.5q-12 -4 -28 -22q-35 -29 -68 -29q-37 0 -100.5 60.5t-63.5 99.5q0 53 -8 78q0 12 14 31
q0 8 2 16v16q21 37 47 109q15 10 47.5 53t32.5 55q17 25 64 60t55 45l12 8q95 43 119 43q25 0 68 -16.5t49 -34.5q16 -17 6 -60q-33 -36 -63 -47q-19 -4 -80 -4q-25 15 -70 -2q-47 -49 -67 -106l-46 -152q9 -28 -14 -67v-19q4 -18 6 -37v-20l6 -10h7q114 77 190 254
q-2 4 -10 13t-8 17q0 17 33.5 48.5t48.5 29.5q16 16 47 16q16 0 40.5 -17t24.5 -32q0 -18 -14 -47q-21 -39 -23 -45q-24 -69 -24 -203q0 -36 14 -67l25 -6q53 0 141 114q78 99 104 172zM428 -157v-41q0 -16 -26 -41.5t-40 -25.5q-57 0 -45 2q-20 0 -48 32.5t-28 57.5
q0 2 4.5 7t4.5 11q4 33 31.5 63t58.5 30q8 0 47 -20.5t39 -30t2 -23.5v-21z" />
    <glyph glyph-name="acircumflex" unicode="&#xe2;" horiz-adv-x="694" 
d="M821 295q2 -53 -9 -53q-8 -47 -41 -72l-2 -20q-16 -25 -53 -76l-18 -11q-17 -45 -64 -70.5t-98 -25.5q-64 0 -127 183h-2q-12 -25 -49 -56q-2 -8 -4 -7t-2 -7t-26 -22.5t-30 -37.5q-12 -4 -28 -22q-35 -29 -68 -29q-37 0 -100.5 60.5t-63.5 99.5q0 53 -8 78q0 12 14 31
q0 8 2 16v16q21 37 47 109q15 10 47.5 53t32.5 55q17 25 64 60t55 45l12 8q95 43 119 43q25 0 68 -16.5t49 -34.5q16 -17 6 -60q-33 -36 -63 -47q-19 -4 -80 -4q-25 15 -70 -2q-47 -49 -67 -106l-46 -152q9 -28 -14 -67v-19q4 -18 6 -37v-20l6 -10h7q114 77 190 254
q-2 4 -10 13t-8 17q0 17 33.5 48.5t48.5 29.5q16 16 47 16q16 0 40.5 -17t24.5 -32q0 -18 -14 -47q-21 -39 -23 -45q-24 -69 -24 -203q0 -36 14 -67l25 -6q53 0 141 114q78 99 104 172zM661 799q2 -8 -17 -11q-30 -2 -110 54l-94 67l-78 -49q-58 -45 -107 -47
q-20 -10 -43 -10q-6 0 -16 -6q-4 -2 -14 2q12 16 30 43q9 2 10 7t3 3q67 57 92 109q2 16 12 47q14 24 57 28q60 6 103 -43q12 -16 39 -49q59 -61 133 -145z" />
    <glyph glyph-name="uni1EA7" unicode="&#x1ea7;" horiz-adv-x="694" 
d="M821 295q2 -53 -9 -53q-8 -47 -41 -72l-2 -20q-16 -25 -53 -76l-18 -11q-17 -45 -64 -70.5t-98 -25.5q-64 0 -127 183h-2q-12 -25 -49 -56q-2 -8 -4 -7t-2 -7t-26 -22.5t-30 -37.5q-12 -4 -28 -22q-35 -29 -68 -29q-37 0 -100.5 60.5t-63.5 99.5q0 53 -8 78q0 12 14 31
q0 8 2 16v16q21 37 47 109q15 10 47.5 53t32.5 55q17 25 64 60t55 45l12 8q95 43 119 43q25 0 68 -16.5t49 -34.5q16 -17 6 -60q-33 -36 -63 -47q-19 -4 -80 -4q-25 15 -70 -2q-47 -49 -67 -106l-46 -152q9 -28 -14 -67v-19q4 -18 6 -37v-20l6 -10h7q114 77 190 254
q-2 4 -10 13t-8 17q0 17 33.5 48.5t48.5 29.5q16 16 47 16q16 0 40.5 -17t24.5 -32q0 -18 -14 -47q-21 -39 -23 -45q-24 -69 -24 -203q0 -36 14 -67l25 -6q53 0 141 114q78 99 104 172zM661 799q2 -8 -17 -11q-30 -2 -110 54l-94 67l-78 -49q-58 -45 -107 -47
q-20 -10 -43 -10q-6 0 -16 -6q-4 -2 -14 2q12 16 30 43q9 2 10 7t3 3q67 57 92 109q2 16 12 47q14 24 57 28q60 6 103 -43q12 -16 39 -49q59 -61 133 -145zM647 982q0 -6 -4 -6q-6 4 -39 19l-21 8q-16 8 -12 14q-51 31 -162 82q-20 15 -65 29q-41 2 -68 24.5t-27 55.5v26
q0 17 26 43.5t41 28.5t24 2q49 0 75.5 -43t77.5 -98l85 -94.5t34 -36.5q35 -31 35 -54z" />
    <glyph glyph-name="uni1EA5" unicode="&#x1ea5;" horiz-adv-x="694" 
d="M821 295q2 -53 -9 -53q-8 -47 -41 -72l-2 -20q-16 -25 -53 -76l-18 -11q-17 -45 -64 -70.5t-98 -25.5q-64 0 -127 183h-2q-12 -25 -49 -56q-2 -8 -4 -7t-2 -7t-26 -22.5t-30 -37.5q-12 -4 -28 -22q-35 -29 -68 -29q-37 0 -100.5 60.5t-63.5 99.5q0 53 -8 78q0 12 14 31
q0 8 2 16v16q21 37 47 109q15 10 47.5 53t32.5 55q17 25 64 60t55 45l12 8q95 43 119 43q25 0 68 -16.5t49 -34.5q16 -17 6 -60q-33 -36 -63 -47q-19 -4 -80 -4q-25 15 -70 -2q-47 -49 -67 -106l-46 -152q9 -28 -14 -67v-19q4 -18 6 -37v-20l6 -10h7q114 77 190 254
q-2 4 -10 13t-8 17q0 17 33.5 48.5t48.5 29.5q16 16 47 16q16 0 40.5 -17t24.5 -32q0 -18 -14 -47q-21 -39 -23 -45q-24 -69 -24 -203q0 -36 14 -67l25 -6q53 0 141 114q78 99 104 172zM661 799q2 -8 -17 -11q-30 -2 -110 54l-94 67l-78 -49q-58 -45 -107 -47
q-20 -10 -43 -10q-6 0 -16 -6q-4 -2 -14 2q12 16 30 43q9 2 10 7t3 3q67 57 92 109q2 16 12 47q14 24 57 28q60 6 103 -43q12 -16 39 -49q59 -61 133 -145zM614 1036q25 26 34 36.5l85 94.5q51 55 78 98t76 43q8 0 23.5 -2t41 -28.5t25.5 -43.5v-26q0 -33 -26.5 -55.5
t-67.5 -24.5q-45 -14 -66 -29q-111 -51 -162 -82q4 -6 -12 -14l-21 -8q-32 -15 -38 -19q-5 0 -5 6q0 23 35 54z" />
    <glyph glyph-name="uni1EA9" unicode="&#x1ea9;" horiz-adv-x="694" 
d="M821 295q2 -53 -9 -53q-8 -47 -41 -72l-2 -20q-16 -25 -53 -76l-18 -11q-17 -45 -64 -70.5t-98 -25.5q-64 0 -127 183h-2q-12 -25 -49 -56q-2 -8 -4 -7t-2 -7t-26 -22.5t-30 -37.5q-12 -4 -28 -22q-35 -29 -68 -29q-37 0 -100.5 60.5t-63.5 99.5q0 53 -8 78q0 12 14 31
q0 8 2 16v16q21 37 47 109q15 10 47.5 53t32.5 55q17 25 64 60t55 45l12 8q95 43 119 43q25 0 68 -16.5t49 -34.5q16 -17 6 -60q-33 -36 -63 -47q-19 -4 -80 -4q-25 15 -70 -2q-47 -49 -67 -106l-46 -152q9 -28 -14 -67v-19q4 -18 6 -37v-20l6 -10h7q114 77 190 254
q-2 4 -10 13t-8 17q0 17 33.5 48.5t48.5 29.5q16 16 47 16q16 0 40.5 -17t24.5 -32q0 -18 -14 -47q-21 -39 -23 -45q-24 -69 -24 -203q0 -36 14 -67l25 -6q53 0 141 114q78 99 104 172zM661 799q2 -8 -17 -11q-30 -2 -110 54l-94 67l-78 -49q-58 -45 -107 -47
q-20 -10 -43 -10q-6 0 -16 -6q-4 -2 -14 2q12 16 30 43q9 2 10 7t3 3q67 57 92 109q2 16 12 47q14 24 57 28q60 6 103 -43q12 -16 39 -49q59 -61 133 -145zM869 1388q0 -39 -56 -111q-19 -39 -73 -95q-51 -42 -60 -50q-33 -29 -46 -47q23 -4 23 -27q0 -10 -15 -38
q-6 -1 -22.5 -7.5t-24.5 -6.5q-25 0 -31 13q-5 9 -5 35q0 30 74 115q98 112 100 115l27 49q20 40 21 50q-1 3 -11 3q-84 -21 -122 -44q-63 -35 -81 -95q-14 -50 -54 -50q-51 0 -69 65q-2 52 63 95q29 4 137 41q97 33 141 32q36 -1 53 -8q22 -9 31 -34z" />
    <glyph glyph-name="uni1EAB" unicode="&#x1eab;" horiz-adv-x="694" 
d="M821 295q2 -53 -9 -53q-8 -47 -41 -72l-2 -20q-16 -25 -53 -76l-18 -11q-17 -45 -64 -70.5t-98 -25.5q-64 0 -127 183h-2q-12 -25 -49 -56q-2 -8 -4 -7t-2 -7t-26 -22.5t-30 -37.5q-12 -4 -28 -22q-35 -29 -68 -29q-37 0 -100.5 60.5t-63.5 99.5q0 53 -8 78q0 12 14 31
q0 8 2 16v16q21 37 47 109q15 10 47.5 53t32.5 55q17 25 64 60t55 45l12 8q95 43 119 43q25 0 68 -16.5t49 -34.5q16 -17 6 -60q-33 -36 -63 -47q-19 -4 -80 -4q-25 15 -70 -2q-47 -49 -67 -106l-46 -152q9 -28 -14 -67v-19q4 -18 6 -37v-20l6 -10h7q114 77 190 254
q-2 4 -10 13t-8 17q0 17 33.5 48.5t48.5 29.5q16 16 47 16q16 0 40.5 -17t24.5 -32q0 -18 -14 -47q-21 -39 -23 -45q-24 -69 -24 -203q0 -36 14 -67l25 -6q53 0 141 114q78 99 104 172zM661 799q2 -8 -17 -11q-30 -2 -110 54l-94 67l-78 -49q-58 -45 -107 -47
q-20 -10 -43 -10q-6 0 -16 -6q-4 -2 -14 2q12 16 30 43q9 2 10 7t3 3q67 57 92 109q2 16 12 47q14 24 57 28q60 6 103 -43q12 -16 39 -49q59 -61 133 -145zM735 1179q0 -12 -113 -125q-49 -18 -67 -18h-23q-29 0 -88 37.5t-63 37.5q-9 0 -33.5 -18t-40.5 -18q-55 0 -55 53
q0 37 84 78q51 22 90 32h20q39 0 63.5 -37.5l24.5 -37.5q35 26 119 67q8 2 22 2q23 0 41.5 -16t18.5 -37z" />
    <glyph glyph-name="uni1EAD" unicode="&#x1ead;" horiz-adv-x="694" 
d="M821 295q2 -53 -9 -53q-8 -47 -41 -72l-2 -20q-16 -25 -53 -76l-18 -11q-17 -45 -64 -70.5t-98 -25.5q-64 0 -127 183h-2q-12 -25 -49 -56q-2 -8 -4 -7t-2 -7t-26 -22.5t-30 -37.5q-12 -4 -28 -22q-35 -29 -68 -29q-37 0 -100.5 60.5t-63.5 99.5q0 53 -8 78q0 12 14 31
q0 8 2 16v16q21 37 47 109q15 10 47.5 53t32.5 55q17 25 64 60t55 45l12 8q95 43 119 43q25 0 68 -16.5t49 -34.5q16 -17 6 -60q-33 -36 -63 -47q-19 -4 -80 -4q-25 15 -70 -2q-47 -49 -67 -106l-46 -152q9 -28 -14 -67v-19q4 -18 6 -37v-20l6 -10h7q114 77 190 254
q-2 4 -10 13t-8 17q0 17 33.5 48.5t48.5 29.5q16 16 47 16q16 0 40.5 -17t24.5 -32q0 -18 -14 -47q-21 -39 -23 -45q-24 -69 -24 -203q0 -36 14 -67l25 -6q53 0 141 114q78 99 104 172zM661 799q2 -8 -17 -11q-30 -2 -110 54l-94 67l-78 -49q-58 -45 -107 -47
q-20 -10 -43 -10q-6 0 -16 -6q-4 -2 -14 2q12 16 30 43q9 2 10 7t3 3q67 57 92 109q2 16 12 47q14 24 57 28q60 6 103 -43q12 -16 39 -49q59 -61 133 -145zM428 -157v-41q0 -16 -26 -41.5t-40 -25.5q-57 0 -45 2q-20 0 -48 32.5t-28 57.5q0 2 4.5 7t4.5 11q4 33 31.5 63
t58.5 30q8 0 47 -20.5t39 -30t2 -23.5v-21z" />
    <glyph glyph-name="abreve" unicode="&#x103;" horiz-adv-x="694" 
d="M821 295q2 -53 -9 -53q-8 -47 -41 -72l-2 -20q-16 -25 -53 -76l-18 -11q-17 -45 -64 -70.5t-98 -25.5q-64 0 -127 183h-2q-12 -25 -49 -56q-2 -8 -4 -7t-2 -7t-26 -22.5t-30 -37.5q-12 -4 -28 -22q-35 -29 -68 -29q-37 0 -100.5 60.5t-63.5 99.5q0 53 -8 78q0 12 14 31
q0 8 2 16v16q21 37 47 109q15 10 47.5 53t32.5 55q17 25 64 60t55 45l12 8q95 43 119 43q25 0 68 -16.5t49 -34.5q16 -17 6 -60q-33 -36 -63 -47q-19 -4 -80 -4q-25 15 -70 -2q-47 -49 -67 -106l-46 -152q9 -28 -14 -67v-19q4 -18 6 -37v-20l6 -10h7q114 77 190 254
q-2 4 -10 13t-8 17q0 17 33.5 48.5t48.5 29.5q16 16 47 16q16 0 40.5 -17t24.5 -32q0 -18 -14 -47q-21 -39 -23 -45q-24 -69 -24 -203q0 -36 14 -67l25 -6q53 0 141 114q78 99 104 172zM788 871q-2 -18 -33 -26l-60 -58q-34 -26 -111 -71.5t-132 -38.5q-2 0 -11.5 3t-11.5 2
q-8 0 -26 -4q-5 -1 -34.5 10t-37.5 16q-31 12 -60.5 46.5t-29.5 62.5v36l4 8q4 5 0 11q0 19 96 42q70 -3 55 -45q-12 -34 -12 -75v-10q4 -14 21 -42q20 -19 55 -19q108 0 295 151z" />
    <glyph glyph-name="uni1EB1" unicode="&#x1eb1;" horiz-adv-x="694" 
d="M821 295q2 -53 -9 -53q-8 -47 -41 -72l-2 -20q-16 -25 -53 -76l-18 -11q-17 -45 -64 -70.5t-98 -25.5q-64 0 -127 183h-2q-12 -25 -49 -56q-2 -8 -4 -7t-2 -7t-26 -22.5t-30 -37.5q-12 -4 -28 -22q-35 -29 -68 -29q-37 0 -100.5 60.5t-63.5 99.5q0 53 -8 78q0 12 14 31
q0 8 2 16v16q21 37 47 109q15 10 47.5 53t32.5 55q17 25 64 60t55 45l12 8q95 43 119 43q25 0 68 -16.5t49 -34.5q16 -17 6 -60q-33 -36 -63 -47q-19 -4 -80 -4q-25 15 -70 -2q-47 -49 -67 -106l-46 -152q9 -28 -14 -67v-19q4 -18 6 -37v-20l6 -10h7q114 77 190 254
q-2 4 -10 13t-8 17q0 17 33.5 48.5t48.5 29.5q16 16 47 16q16 0 40.5 -17t24.5 -32q0 -18 -14 -47q-21 -39 -23 -45q-24 -69 -24 -203q0 -36 14 -67l25 -6q53 0 141 114q78 99 104 172zM788 871q-2 -18 -33 -26l-60 -58q-34 -26 -111 -71.5t-132 -38.5q-2 0 -11.5 3t-11.5 2
q-8 0 -26 -4q-5 -1 -34.5 10t-37.5 16q-31 12 -60.5 46.5t-29.5 62.5v36l4 8q4 5 0 11q0 19 96 42q70 -3 55 -45q-12 -34 -12 -75v-10q4 -14 21 -42q20 -19 55 -19q108 0 295 151zM555 890q0 -6 -4 -6q-6 4 -39 19l-21 8q-16 8 -12 14q-51 31 -162 82q-20 15 -65 29
q-41 2 -68 24.5t-27 55.5v26q0 17 26 43.5t41 28.5t24 2q49 0 75.5 -43t77.5 -98l85 -94.5t34 -36.5q35 -31 35 -54z" />
    <glyph glyph-name="uni1EAF" unicode="&#x1eaf;" horiz-adv-x="694" 
d="M821 295q2 -53 -9 -53q-8 -47 -41 -72l-2 -20q-16 -25 -53 -76l-18 -11q-17 -45 -64 -70.5t-98 -25.5q-64 0 -127 183h-2q-12 -25 -49 -56q-2 -8 -4 -7t-2 -7t-26 -22.5t-30 -37.5q-12 -4 -28 -22q-35 -29 -68 -29q-37 0 -100.5 60.5t-63.5 99.5q0 53 -8 78q0 12 14 31
q0 8 2 16v16q21 37 47 109q15 10 47.5 53t32.5 55q17 25 64 60t55 45l12 8q95 43 119 43q25 0 68 -16.5t49 -34.5q16 -17 6 -60q-33 -36 -63 -47q-19 -4 -80 -4q-25 15 -70 -2q-47 -49 -67 -106l-46 -152q9 -28 -14 -67v-19q4 -18 6 -37v-20l6 -10h7q114 77 190 254
q-2 4 -10 13t-8 17q0 17 33.5 48.5t48.5 29.5q16 16 47 16q16 0 40.5 -17t24.5 -32q0 -18 -14 -47q-21 -39 -23 -45q-24 -69 -24 -203q0 -36 14 -67l25 -6q53 0 141 114q78 99 104 172zM788 871q-2 -18 -33 -26l-60 -58q-34 -26 -111 -71.5t-132 -38.5q-2 0 -11.5 3t-11.5 2
q-8 0 -26 -4q-5 -1 -34.5 10t-37.5 16q-31 12 -60.5 46.5t-29.5 62.5v36l4 8q4 5 0 11q0 19 96 42q70 -3 55 -45q-12 -34 -12 -75v-10q4 -14 21 -42q20 -19 55 -19q108 0 295 151zM511 883q25 26 34 36.5l85 94.5q51 55 78 98t76 43q8 0 23.5 -2t41 -28.5t25.5 -43.5v-26
q0 -33 -26.5 -55.5t-67.5 -24.5q-45 -14 -66 -29q-111 -51 -162 -82q4 -6 -12 -14l-21 -8q-32 -15 -38 -19q-5 0 -5 6q0 23 35 54z" />
    <glyph glyph-name="uni1EB3" unicode="&#x1eb3;" horiz-adv-x="694" 
d="M821 295q2 -53 -9 -53q-8 -47 -41 -72l-2 -20q-16 -25 -53 -76l-18 -11q-17 -45 -64 -70.5t-98 -25.5q-64 0 -127 183h-2q-12 -25 -49 -56q-2 -8 -4 -7t-2 -7t-26 -22.5t-30 -37.5q-12 -4 -28 -22q-35 -29 -68 -29q-37 0 -100.5 60.5t-63.5 99.5q0 53 -8 78q0 12 14 31
q0 8 2 16v16q21 37 47 109q15 10 47.5 53t32.5 55q17 25 64 60t55 45l12 8q95 43 119 43q25 0 68 -16.5t49 -34.5q16 -17 6 -60q-33 -36 -63 -47q-19 -4 -80 -4q-25 15 -70 -2q-47 -49 -67 -106l-46 -152q9 -28 -14 -67v-19q4 -18 6 -37v-20l6 -10h7q114 77 190 254
q-2 4 -10 13t-8 17q0 17 33.5 48.5t48.5 29.5q16 16 47 16q16 0 40.5 -17t24.5 -32q0 -18 -14 -47q-21 -39 -23 -45q-24 -69 -24 -203q0 -36 14 -67l25 -6q53 0 141 114q78 99 104 172zM788 871q-2 -18 -33 -26l-60 -58q-34 -26 -111 -71.5t-132 -38.5q-2 0 -11.5 3t-11.5 2
q-8 0 -26 -4q-5 -1 -34.5 10t-37.5 16q-31 12 -60.5 46.5t-29.5 62.5v36l4 8q4 5 0 11q0 19 96 42q70 -3 55 -45q-12 -34 -12 -75v-10q4 -14 21 -42q20 -19 55 -19q108 0 295 151zM787 1212q0 -39 -56 -111q-19 -39 -73 -95q-51 -42 -60 -50q-33 -29 -46 -47q23 -4 23 -27
q0 -10 -15 -38q-6 -1 -22.5 -7.5t-24.5 -6.5q-25 0 -31 13q-5 9 -5 35q0 30 74 115q98 112 100 115l27 49q20 40 21 50q-1 3 -11 3q-84 -21 -122 -44q-63 -35 -81 -95q-14 -50 -54 -50q-51 0 -69 65q-2 52 63 95q29 4 137 41q97 33 141 32q36 -1 53 -8q22 -9 31 -34z" />
    <glyph glyph-name="uni1EB5" unicode="&#x1eb5;" horiz-adv-x="694" 
d="M821 295q2 -53 -9 -53q-8 -47 -41 -72l-2 -20q-16 -25 -53 -76l-18 -11q-17 -45 -64 -70.5t-98 -25.5q-64 0 -127 183h-2q-12 -25 -49 -56q-2 -8 -4 -7t-2 -7t-26 -22.5t-30 -37.5q-12 -4 -28 -22q-35 -29 -68 -29q-37 0 -100.5 60.5t-63.5 99.5q0 53 -8 78q0 12 14 31
q0 8 2 16v16q21 37 47 109q15 10 47.5 53t32.5 55q17 25 64 60t55 45l12 8q95 43 119 43q25 0 68 -16.5t49 -34.5q16 -17 6 -60q-33 -36 -63 -47q-19 -4 -80 -4q-25 15 -70 -2q-47 -49 -67 -106l-46 -152q9 -28 -14 -67v-19q4 -18 6 -37v-20l6 -10h7q114 77 190 254
q-2 4 -10 13t-8 17q0 17 33.5 48.5t48.5 29.5q16 16 47 16q16 0 40.5 -17t24.5 -32q0 -18 -14 -47q-21 -39 -23 -45q-24 -69 -24 -203q0 -36 14 -67l25 -6q53 0 141 114q78 99 104 172zM788 871q-2 -18 -33 -26l-60 -58q-34 -26 -111 -71.5t-132 -38.5q-2 0 -11.5 3t-11.5 2
q-8 0 -26 -4q-5 -1 -34.5 10t-37.5 16q-31 12 -60.5 46.5t-29.5 62.5v36l4 8q4 5 0 11q0 19 96 42q70 -3 55 -45q-12 -34 -12 -75v-10q4 -14 21 -42q20 -19 55 -19q108 0 295 151zM879 1024q0 -12 -113 -125q-49 -18 -67 -18h-23q-29 0 -88 37.5t-63 37.5q-9 0 -33.5 -18
t-40.5 -18q-55 0 -55 53q0 37 84 78q51 22 90 32h20q39 0 63.5 -37.5l24.5 -37.5q35 26 119 67q8 2 22 2q23 0 41.5 -16t18.5 -37z" />
    <glyph glyph-name="uni1EB7" unicode="&#x1eb7;" horiz-adv-x="694" 
d="M821 295q2 -53 -9 -53q-8 -47 -41 -72l-2 -20q-16 -25 -53 -76l-18 -11q-17 -45 -64 -70.5t-98 -25.5q-64 0 -127 183h-2q-12 -25 -49 -56q-2 -8 -4 -7t-2 -7t-26 -22.5t-30 -37.5q-12 -4 -28 -22q-35 -29 -68 -29q-37 0 -100.5 60.5t-63.5 99.5q0 53 -8 78q0 12 14 31
q0 8 2 16v16q21 37 47 109q15 10 47.5 53t32.5 55q17 25 64 60t55 45l12 8q95 43 119 43q25 0 68 -16.5t49 -34.5q16 -17 6 -60q-33 -36 -63 -47q-19 -4 -80 -4q-25 15 -70 -2q-47 -49 -67 -106l-46 -152q9 -28 -14 -67v-19q4 -18 6 -37v-20l6 -10h7q114 77 190 254
q-2 4 -10 13t-8 17q0 17 33.5 48.5t48.5 29.5q16 16 47 16q16 0 40.5 -17t24.5 -32q0 -18 -14 -47q-21 -39 -23 -45q-24 -69 -24 -203q0 -36 14 -67l25 -6q53 0 141 114q78 99 104 172zM788 871q-2 -18 -33 -26l-60 -58q-34 -26 -111 -71.5t-132 -38.5q-2 0 -11.5 3t-11.5 2
q-8 0 -26 -4q-5 -1 -34.5 10t-37.5 16q-31 12 -60.5 46.5t-29.5 62.5v36l4 8q4 5 0 11q0 19 96 42q70 -3 55 -45q-12 -34 -12 -75v-10q4 -14 21 -42q20 -19 55 -19q108 0 295 151zM428 -157v-41q0 -16 -26 -41.5t-40 -25.5q-57 0 -45 2q-20 0 -48 32.5t-28 57.5q0 2 4.5 7
t4.5 11q4 33 31.5 63t58.5 30q8 0 47 -20.5t39 -30t2 -23.5v-21z" />
    <glyph glyph-name="egrave" unicode="&#xe8;" horiz-adv-x="501" 
d="M753 373q2 -29 -15 -35q-18 -31 -82 -94q-2 -21 -30 -31q-21 -23 -62 -74q-35 -33 -112.5 -89t-129.5 -50q-2 0 -12 2h-14q-19 0 -32 5l-48 18q-92 61 -119 184q-4 4 -4 78q-2 14 -4 16t-27 21l-41 16q-14 4 -45 45q-14 29 0 37q25 31 54 31q4 0 16 -3.5t17 -3.5t19.5 -3
t18.5 -3q27 0 51 49q25 29 64 70q10 0 29.5 11.5l43 25.5t62.5 16q21 0 53 -16l49.5 -21.5t38.5 -31.5q5 -19 23 -45l12 -37q0 -6 -6 -31q0 -6 4 -16q2 -4 -8 -19v-22q-18 -23 -53 -64q-17 -16 -68 -37q-57 -24 -90 -22l-53 2q-19 -4 -17 -35q0 -27 7 -45q10 -27 12 -35
q6 -28 34.5 -47.5t53.5 -21.5q37 2 141 61q45 31 140 113q112 116 112 139q12 8 17 -8zM374 506q0 4 -2 6q-125 -8 -142 -88q13 -6 37 -6q35 0 71 26.5t36 61.5zM535 745q0 -6 -4 -6q-6 4 -39 19l-20 8q-16 8 -12 14q-52 31 -162 82q-21 15 -66 29q-41 2 -67.5 24.5
t-26.5 55.5v26q0 17 25.5 43.5t41 28.5t23.5 2q49 0 76 -43t78 -98l85 -94.5t34 -36.5q34 -31 34 -54z" />
    <glyph glyph-name="eacute" unicode="&#xe9;" horiz-adv-x="501" 
d="M753 373q2 -29 -15 -35q-18 -31 -82 -94q-2 -21 -30 -31q-21 -23 -62 -74q-35 -33 -112.5 -89t-129.5 -50q-2 0 -12 2h-14q-19 0 -32 5l-48 18q-92 61 -119 184q-4 4 -4 78q-2 14 -4 16t-27 21l-41 16q-14 4 -45 45q-14 29 0 37q25 31 54 31q4 0 16 -3.5t17 -3.5t19.5 -3
t18.5 -3q27 0 51 49q25 29 64 70q10 0 29.5 11.5l43 25.5t62.5 16q21 0 53 -16l49.5 -21.5t38.5 -31.5q5 -19 23 -45l12 -37q0 -6 -6 -31q0 -6 4 -16q2 -4 -8 -19v-22q-18 -23 -53 -64q-17 -16 -68 -37q-57 -24 -90 -22l-53 2q-19 -4 -17 -35q0 -27 7 -45q10 -27 12 -35
q6 -28 34.5 -47.5t53.5 -21.5q37 2 141 61q45 31 140 113q112 116 112 139q12 8 17 -8zM374 506q0 4 -2 6q-125 -8 -142 -88q13 -6 37 -6q35 0 71 26.5t36 61.5zM509 979q0 -49 -29 -66q-6 -8 -22 -20l-142 -78q-28 -18 -71 -27q-17 -6 -54 -16q-4 0 -12 -6q-8 -4 -12 0
q-12 -10 -29 -14q-6 0 -12 2q47 43 86 84q94 94 127 151q0 2 6 29q2 8 26.5 24.5t34.5 18.5q31 6 62 -14.5t37 -49.5q4 -4 4 -18z" />
    <glyph glyph-name="uni1EBB" unicode="&#x1ebb;" horiz-adv-x="501" 
d="M753 373q2 -29 -15 -35q-18 -31 -82 -94q-2 -21 -30 -31q-21 -23 -62 -74q-35 -33 -112.5 -89t-129.5 -50q-2 0 -12 2h-14q-19 0 -32 5l-48 18q-92 61 -119 184q-4 4 -4 78q-2 14 -4 16t-27 21l-41 16q-14 4 -45 45q-14 29 0 37q25 31 54 31q4 0 16 -3.5t17 -3.5t19.5 -3
t18.5 -3q27 0 51 49q25 29 64 70q10 0 29.5 11.5l43 25.5t62.5 16q21 0 53 -16l49.5 -21.5t38.5 -31.5q5 -19 23 -45l12 -37q0 -6 -6 -31q0 -6 4 -16q2 -4 -8 -19v-22q-18 -23 -53 -64q-17 -16 -68 -37q-57 -24 -90 -22l-53 2q-19 -4 -17 -35q0 -27 7 -45q10 -27 12 -35
q6 -28 34.5 -47.5t53.5 -21.5q37 2 141 61q45 31 140 113q112 116 112 139q12 8 17 -8zM374 506q0 4 -2 6q-125 -8 -142 -88q13 -6 37 -6q35 0 71 26.5t36 61.5zM675 1058q0 -39 -55 -111q-19 -39 -74 -95l-59 -50q-33 -29 -47 -47q23 -4 23 -27q0 -10 -14 -38
q-7 -1 -23 -7.5t-25 -6.5q-24 0 -31 13q-5 9 -5 35q0 30 74 115q98 112 100 115q9 14 28 49q20 40 21 50q-1 3 -12 3q-83 -21 -121 -44q-63 -35 -81 -95q-15 -50 -54 -50q-51 0 -69 65q-2 52 63 95q29 4 137 41q97 33 141 32q36 -1 52 -8q23 -9 31 -34z" />
    <glyph glyph-name="uni1EBD" unicode="&#x1ebd;" horiz-adv-x="501" 
d="M753 373q2 -29 -15 -35q-18 -31 -82 -94q-2 -21 -30 -31q-21 -23 -62 -74q-35 -33 -112.5 -89t-129.5 -50q-2 0 -12 2h-14q-19 0 -32 5l-48 18q-92 61 -119 184q-4 4 -4 78q-2 14 -4 16t-27 21l-41 16q-14 4 -45 45q-14 29 0 37q25 31 54 31q4 0 16 -3.5t17 -3.5t19.5 -3
t18.5 -3q27 0 51 49q25 29 64 70q10 0 29.5 11.5l43 25.5t62.5 16q21 0 53 -16l49.5 -21.5t38.5 -31.5q5 -19 23 -45l12 -37q0 -6 -6 -31q0 -6 4 -16q2 -4 -8 -19v-22q-18 -23 -53 -64q-17 -16 -68 -37q-57 -24 -90 -22l-53 2q-19 -4 -17 -35q0 -27 7 -45q10 -27 12 -35
q6 -28 34.5 -47.5t53.5 -21.5q37 2 141 61q45 31 140 113q112 116 112 139q12 8 17 -8zM374 506q0 4 -2 6q-125 -8 -142 -88q13 -6 37 -6q35 0 71 26.5t36 61.5zM757 870q0 -12 -112 -125q-49 -18 -68 -18h-22q-29 0 -88.5 37.5t-63.5 37.5q-8 0 -32.5 -18t-41.5 -18
q-55 0 -55 53q0 37 84 78q51 22 90 32h21q39 0 63.5 -37.5l24.5 -37.5q35 26 119 67q8 2 22 2q23 0 41 -16t18 -37z" />
    <glyph glyph-name="uni1EB9" unicode="&#x1eb9;" horiz-adv-x="501" 
d="M753 373q2 -29 -15 -35q-18 -31 -82 -94q-2 -21 -30 -31q-21 -23 -62 -74q-35 -33 -112.5 -89t-129.5 -50q-2 0 -12 2h-14q-19 0 -32 5l-48 18q-92 61 -119 184q-4 4 -4 78q-2 14 -4 16t-27 21l-41 16q-14 4 -45 45q-14 29 0 37q25 31 54 31q4 0 16 -3.5t17 -3.5t19.5 -3
t18.5 -3q27 0 51 49q25 29 64 70q10 0 29.5 11.5l43 25.5t62.5 16q21 0 53 -16l49.5 -21.5t38.5 -31.5q5 -19 23 -45l12 -37q0 -6 -6 -31q0 -6 4 -16q2 -4 -8 -19v-22q-18 -23 -53 -64q-17 -16 -68 -37q-57 -24 -90 -22l-53 2q-19 -4 -17 -35q0 -27 7 -45q10 -27 12 -35
q6 -28 34.5 -47.5t53.5 -21.5q37 2 141 61q45 31 140 113q112 116 112 139q12 8 17 -8zM374 506q0 4 -2 6q-125 -8 -142 -88q13 -6 37 -6q35 0 71 26.5t36 61.5zM429 -157v-41q0 -16 -25.5 -41.5t-39.5 -25.5q-58 0 -45 2q-21 0 -48.5 32.5t-27.5 57.5q0 2 4 7t4 11
q4 33 31.5 63t58.5 30q8 0 47 -20.5t39 -30t2 -23.5v-21z" />
    <glyph glyph-name="ecircumflex" unicode="&#xea;" horiz-adv-x="501" 
d="M753 373q2 -29 -15 -35q-18 -31 -82 -94q-2 -21 -30 -31q-21 -23 -62 -74q-35 -33 -112.5 -89t-129.5 -50q-2 0 -12 2h-14q-19 0 -32 5l-48 18q-92 61 -119 184q-4 4 -4 78q-2 14 -4 16t-27 21l-41 16q-14 4 -45 45q-14 29 0 37q25 31 54 31q4 0 16 -3.5t17 -3.5t19.5 -3
t18.5 -3q27 0 51 49q25 29 64 70q10 0 29.5 11.5l43 25.5t62.5 16q21 0 53 -16l49.5 -21.5t38.5 -31.5q5 -19 23 -45l12 -37q0 -6 -6 -31q0 -6 4 -16q2 -4 -8 -19v-22q-18 -23 -53 -64q-17 -16 -68 -37q-57 -24 -90 -22l-53 2q-19 -4 -17 -35q0 -27 7 -45q10 -27 12 -35
q6 -28 34.5 -47.5t53.5 -21.5q37 2 141 61q45 31 140 113q112 116 112 139q12 8 17 -8zM374 506q0 4 -2 6q-125 -8 -142 -88q13 -6 37 -6q35 0 71 26.5t36 61.5zM597 655q2 -8 -17 -11q-30 -2 -110 54l-94 67l-78 -49q-57 -45 -107 -47q-20 -10 -43 -10q-6 0 -16 -6
q-4 -2 -14 2q12 16 30 43q9 2 10 7t3 3q67 57 92 109q2 16 12 47q14 24 57 28q60 6 103 -43q12 -16 39 -49q59 -61 133 -145z" />
    <glyph glyph-name="uni1EC1" unicode="&#x1ec1;" horiz-adv-x="501" 
d="M753 373q2 -29 -15 -35q-18 -31 -82 -94q-2 -21 -30 -31q-21 -23 -62 -74q-35 -33 -112.5 -89t-129.5 -50q-2 0 -12 2h-14q-19 0 -32 5l-48 18q-92 61 -119 184q-4 4 -4 78q-2 14 -4 16t-27 21l-41 16q-14 4 -45 45q-14 29 0 37q25 31 54 31q4 0 16 -3.5t17 -3.5t19.5 -3
t18.5 -3q27 0 51 49q25 29 64 70q10 0 29.5 11.5l43 25.5t62.5 16q21 0 53 -16l49.5 -21.5t38.5 -31.5q5 -19 23 -45l12 -37q0 -6 -6 -31q0 -6 4 -16q2 -4 -8 -19v-22q-18 -23 -53 -64q-17 -16 -68 -37q-57 -24 -90 -22l-53 2q-19 -4 -17 -35q0 -27 7 -45q10 -27 12 -35
q6 -28 34.5 -47.5t53.5 -21.5q37 2 141 61q45 31 140 113q112 116 112 139q12 8 17 -8zM374 506q0 4 -2 6q-125 -8 -142 -88q13 -6 37 -6q35 0 71 26.5t36 61.5zM597 675q2 -8 -17 -11q-30 -2 -110 54l-94 67l-78 -49q-57 -45 -107 -47q-20 -10 -43 -10q-6 0 -16 -6
q-4 -2 -14 2q12 16 30 43q9 2 10 7t3 3q67 57 92 109q2 16 12 47q14 24 57 28q60 6 103 -43q12 -16 39 -49q59 -61 133 -145zM577 879q0 -6 -4 -6q-6 4 -39 19l-20 8q-17 8 -12 14q-52 31 -162 82q-21 15 -66 29q-41 2 -67.5 24.5t-26.5 55.5v26q0 17 25.5 43.5t41 28.5
t23.5 2q49 0 76 -43t78 -98l85 -94.5t34 -36.5q34 -31 34 -54z" />
    <glyph glyph-name="uni1EBF" unicode="&#x1ebf;" horiz-adv-x="501" 
d="M753 373q2 -29 -15 -35q-18 -31 -82 -94q-2 -21 -30 -31q-21 -23 -62 -74q-35 -33 -112.5 -89t-129.5 -50q-2 0 -12 2h-14q-19 0 -32 5l-48 18q-92 61 -119 184q-4 4 -4 78q-2 14 -4 16t-27 21l-41 16q-14 4 -45 45q-14 29 0 37q25 31 54 31q4 0 16 -3.5t17 -3.5t19.5 -3
t18.5 -3q27 0 51 49q25 29 64 70q10 0 29.5 11.5l43 25.5t62.5 16q21 0 53 -16l49.5 -21.5t38.5 -31.5q5 -19 23 -45l12 -37q0 -6 -6 -31q0 -6 4 -16q2 -4 -8 -19v-22q-18 -23 -53 -64q-17 -16 -68 -37q-57 -24 -90 -22l-53 2q-19 -4 -17 -35q0 -27 7 -45q10 -27 12 -35
q6 -28 34.5 -47.5t53.5 -21.5q37 2 141 61q45 31 140 113q112 116 112 139q12 8 17 -8zM374 506q0 4 -2 6q-125 -8 -142 -88q13 -6 37 -6q35 0 71 26.5t36 61.5zM597 675q2 -8 -17 -11q-30 -2 -110 54l-94 67l-78 -49q-57 -45 -107 -47q-20 -10 -43 -10q-6 0 -16 -6
q-4 -2 -14 2q12 16 30 43q9 2 10 7t3 3q67 57 92 109q2 16 12 47q14 24 57 28q60 6 103 -43q12 -16 39 -49q59 -61 133 -145zM555 933l33.5 36.5l85.5 94.5q51 55 77.5 98t75.5 43q8 0 23.5 -2t41 -28.5t25.5 -43.5v-26q0 -33 -26.5 -55.5t-67.5 -24.5q-45 -14 -65 -29
q-111 -51 -162 -82q4 -6 -12 -14l-21 -8q-33 -15 -39 -19q-4 0 -4 6q0 23 35 54z" />
    <glyph glyph-name="uni1EC3" unicode="&#x1ec3;" horiz-adv-x="501" 
d="M753 373q2 -29 -15 -35q-18 -31 -82 -94q-2 -21 -30 -31q-21 -23 -62 -74q-35 -33 -112.5 -89t-129.5 -50q-2 0 -12 2h-14q-19 0 -32 5l-48 18q-92 61 -119 184q-4 4 -4 78q-2 14 -4 16t-27 21l-41 16q-14 4 -45 45q-14 29 0 37q25 31 54 31q4 0 16 -3.5t17 -3.5t19.5 -3
t18.5 -3q27 0 51 49q25 29 64 70q10 0 29.5 11.5l43 25.5t62.5 16q21 0 53 -16l49.5 -21.5t38.5 -31.5q5 -19 23 -45l12 -37q0 -6 -6 -31q0 -6 4 -16q2 -4 -8 -19v-22q-18 -23 -53 -64q-17 -16 -68 -37q-57 -24 -90 -22l-53 2q-19 -4 -17 -35q0 -27 7 -45q10 -27 12 -35
q6 -28 34.5 -47.5t53.5 -21.5q37 2 141 61q45 31 140 113q112 116 112 139q12 8 17 -8zM374 506q0 4 -2 6q-125 -8 -142 -88q13 -6 37 -6q35 0 71 26.5t36 61.5zM597 655q2 -8 -17 -11q-30 -2 -110 54l-94 67l-78 -49q-57 -45 -107 -47q-20 -10 -43 -10q-6 0 -16 -6
q-4 -2 -14 2q12 16 30 43q9 2 10 7t3 3q67 57 92 109q2 16 12 47q14 24 57 28q60 6 103 -43q12 -16 39 -49q59 -61 133 -145zM788 1212q0 -39 -55 -111q-19 -39 -74 -95l-59 -50q-33 -29 -47 -47q23 -4 23 -27q0 -10 -14 -38q-7 -1 -23 -7.5t-25 -6.5q-24 0 -31 13
q-5 9 -5 35q0 30 74 115q98 112 100 115q9 14 28 49q20 40 21 50q-1 3 -12 3q-83 -21 -121 -44q-63 -35 -81 -95q-15 -50 -54 -50q-51 0 -69 65q-2 52 63 95q29 4 137 41q97 33 141 32q36 -1 52 -8q23 -9 31 -34z" />
    <glyph glyph-name="uni1EC5" unicode="&#x1ec5;" horiz-adv-x="501" 
d="M753 373q2 -29 -15 -35q-18 -31 -82 -94q-2 -21 -30 -31q-21 -23 -62 -74q-35 -33 -112.5 -89t-129.5 -50q-2 0 -12 2h-14q-19 0 -32 5l-48 18q-92 61 -119 184q-4 4 -4 78q-2 14 -4 16t-27 21l-41 16q-14 4 -45 45q-14 29 0 37q25 31 54 31q4 0 16 -3.5t17 -3.5t19.5 -3
t18.5 -3q27 0 51 49q25 29 64 70q10 0 29.5 11.5l43 25.5t62.5 16q21 0 53 -16l49.5 -21.5t38.5 -31.5q5 -19 23 -45l12 -37q0 -6 -6 -31q0 -6 4 -16q2 -4 -8 -19v-22q-18 -23 -53 -64q-17 -16 -68 -37q-57 -24 -90 -22l-53 2q-19 -4 -17 -35q0 -27 7 -45q10 -27 12 -35
q6 -28 34.5 -47.5t53.5 -21.5q37 2 141 61q45 31 140 113q112 116 112 139q12 8 17 -8zM374 506q0 4 -2 6q-125 -8 -142 -88q13 -6 37 -6q35 0 71 26.5t36 61.5zM597 655q2 -8 -17 -11q-30 -2 -110 54l-94 67l-78 -49q-57 -45 -107 -47q-20 -10 -43 -10q-6 0 -16 -6
q-4 -2 -14 2q12 16 30 43q9 2 10 7t3 3q67 57 92 109q2 16 12 47q14 24 57 28q60 6 103 -43q12 -16 39 -49q59 -61 133 -145zM880 1024q0 -12 -112 -125q-49 -18 -68 -18h-22q-29 0 -88.5 37.5t-63.5 37.5q-8 0 -32.5 -18t-41.5 -18q-55 0 -55 53q0 37 84 78q51 22 90 32h21
q39 0 63.5 -37.5l24.5 -37.5q35 26 119 67q8 2 22 2q23 0 41 -16t18 -37z" />
    <glyph glyph-name="uni1EC7" unicode="&#x1ec7;" horiz-adv-x="501" 
d="M753 373q2 -29 -15 -35q-18 -31 -82 -94q-2 -21 -30 -31q-21 -23 -62 -74q-35 -33 -112.5 -89t-129.5 -50q-2 0 -12 2h-14q-19 0 -32 5l-48 18q-92 61 -119 184q-4 4 -4 78q-2 14 -4 16t-27 21l-41 16q-14 4 -45 45q-14 29 0 37q25 31 54 31q4 0 16 -3.5t17 -3.5t19.5 -3
t18.5 -3q27 0 51 49q25 29 64 70q10 0 29.5 11.5l43 25.5t62.5 16q21 0 53 -16l49.5 -21.5t38.5 -31.5q5 -19 23 -45l12 -37q0 -6 -6 -31q0 -6 4 -16q2 -4 -8 -19v-22q-18 -23 -53 -64q-17 -16 -68 -37q-57 -24 -90 -22l-53 2q-19 -4 -17 -35q0 -27 7 -45q10 -27 12 -35
q6 -28 34.5 -47.5t53.5 -21.5q37 2 141 61q45 31 140 113q112 116 112 139q12 8 17 -8zM374 506q0 4 -2 6q-125 -8 -142 -88q13 -6 37 -6q35 0 71 26.5t36 61.5zM597 655q2 -8 -17 -11q-30 -2 -110 54l-94 67l-78 -49q-57 -45 -107 -47q-20 -10 -43 -10q-6 0 -16 -6
q-4 -2 -14 2q12 16 30 43q9 2 10 7t3 3q67 57 92 109q2 16 12 47q14 24 57 28q60 6 103 -43q12 -16 39 -49q59 -61 133 -145zM429 -157v-41q0 -16 -25.5 -41.5t-39.5 -25.5q-58 0 -45 2q-21 0 -48.5 32.5t-27.5 57.5q0 2 4 7t4 11q4 33 31.5 63t58.5 30q8 0 47 -20.5t39 -30
t2 -23.5v-21z" />
    <glyph glyph-name="igrave" unicode="&#xec;" horiz-adv-x="405" 
d="M535 291q0 -2 -3 -4t-3 -19q0 -6 -9 -12q-6 -4 0 -12q-26 -49 -71 -107l-52 -51q-24 -25 -92 -70q-39 -30 -63 -32q-15 -11 -23 -2q-24 2 -28 2q-23 2 -54 32q-43 41 -45 41q-16 13 -35 47q-8 46 -8 76q-14 15 -10 41q0 51 4 60q0 24 4 73q10 92 45 119q15 19 56 49
q20 2 51 8l24 -4q17 -2 31 -34.5t10 -55.5l-6 -39q-2 -43 -6 -69q-6 -35 -6 -29q-4 -45 -2 -90q0 -10 6 -96q2 -19 14 -58q4 -2 13 -2q20 0 73 43q39 33 54 49q53 62 94 125q18 29 28 29q3 0 5 -1t4 -7zM391 745q0 -6 -4 -6q-6 4 -39 19l-20 8q-17 8 -12 14q-52 31 -162 82
q-21 15 -66 29q-41 2 -67.5 24.5t-26.5 55.5v26q0 17 25.5 43.5t41 28.5t23.5 2q49 0 76 -43t78 -98l84.5 -94.5l33.5 -36.5q35 -31 35 -54z" />
    <glyph glyph-name="iacute" unicode="&#xed;" horiz-adv-x="405" 
d="M534 291q0 -2 -3 -4t-3 -19q0 -6 -8 -12q-7 -4 0 -12q-27 -49 -72 -107q-17 -16 -51 -51q-25 -25 -93 -70q-38 -30 -63 -32q-14 -11 -23 -2q-24 2 -28 2q-23 2 -53 32q-43 41 -46 41q-16 13 -34 47q-9 46 -9 76q-14 15 -10 41q0 51 4 60q0 24 4 73q11 92 45 119
q15 19 56 49q20 2 51 8l25 -4q16 -2 30.5 -34.5t10.5 -55.5l-7 -39q-2 -43 -6 -69q-6 -35 -6 -29q-4 -45 -2 -90q0 -10 6 -96q2 -19 15 -58q4 -2 12 -2q20 0 74 43q38 33 53 49q53 62 94 125q18 29 29 29q2 0 4 -1t4 -7zM411 979q0 -49 -29 -66q-6 -8 -22 -20l-142 -78
q-28 -18 -71 -27q-17 -6 -53 -16q-5 0 -13 -6q-8 -4 -12 0q-12 -10 -29 -14q-6 0 -12 2q47 43 86 84q94 94 127 151q0 2 6 29q2 8 26.5 24.5t35.5 18.5q30 6 61 -14.5t37 -49.5q4 -4 4 -18z" />
    <glyph glyph-name="uni1EC9" unicode="&#x1ec9;" horiz-adv-x="405" 
d="M535 291q0 -2 -3 -4t-3 -19q0 -6 -9 -12q-6 -4 0 -12q-26 -49 -71 -107l-52 -51q-24 -25 -92 -70q-39 -30 -63 -32q-14 -11 -23 -2q-24 2 -28 2q-23 2 -54 32q-43 41 -45 41q-16 13 -34 47q-9 46 -9 76q-14 15 -10 41q0 51 4 60q0 24 4 73q11 92 45 119q15 19 56 49
q20 2 51 8l24 -4q17 -2 31 -34.5t10 -55.5l-6 -39q-2 -43 -6 -69q-6 -35 -6 -29q-4 -45 -2 -90q0 -10 6 -96q2 -19 14 -58q4 -2 13 -2q20 0 73 43q39 33 54 49q53 62 94 125q18 29 29 29q2 0 4 -1t4 -7zM510 1058q0 -39 -56 -111q-19 -39 -74 -95l-59 -50q-33 -29 -47 -47
q24 -4 24 -27q0 -10 -15 -38q-7 -1 -23 -7.5t-24 -6.5q-25 0 -32 13q-4 9 -4 35q0 30 73 115q99 112 101 115l27 49q20 40 21 50q-1 3 -11 3q-84 -21 -122 -44q-63 -35 -81 -95q-14 -50 -54 -50q-51 0 -69 65q-2 52 63 95q29 4 137 41q97 33 141 32q36 -1 53 -8
q22 -9 31 -34z" />
    <glyph glyph-name="itilde" unicode="&#x129;" horiz-adv-x="405" 
d="M533 291q0 -2 -3 -4t-3 -19q0 -6 -8 -12q-6 -4 0 -12q-27 -49 -72 -107l-51 -51q-24 -25 -92 -70q-39 -30 -64 -32q-14 -11 -22 -2q-25 2 -29 2q-22 2 -53 32q-43 41 -45 41q-16 13 -35 47q-8 46 -8 76q-14 15 -10 41q0 51 4 60q0 24 4 73q10 92 45 119q14 19 55 49
q21 2 51 8l25 -4q16 -2 30.5 -34.5t10.5 -55.5l-6 -39q-2 -43 -6 -69q-6 -35 -6 -29q-5 -45 -3 -90q0 -10 7 -96q2 -19 14 -58q4 -2 12 -2q21 0 74 43q39 33 53 49q53 62 94 125q19 29 29 29q2 0 4 -1t4 -7zM487 787q0 -12 -112 -125q-49 -18 -68 -18h-22q-29 0 -88.5 37.5
t-63.5 37.5q-8 0 -32.5 -18t-41.5 -18q-55 0 -55 53q0 37 84 78q51 22 90 32h21q38 0 63 -37.5l25 -37.5q34 26 118 67q9 2 23 2q22 0 40.5 -16t18.5 -37z" />
    <glyph glyph-name="uni1ECB" unicode="&#x1ecb;" horiz-adv-x="405" 
d="M380 981q-35 -88 -80 -96q-22 -4 -39 0q-20 6 -30 6q-17 -4 -78 57q-2 31 -17 78q0 45 43 70q35 18 80 18q11 2 21 0q30 -4 65 -43t35 -70v-20zM534 291q0 -2 -3 -4t-3 -19q0 -6 -9 -12q-6 -4 0 -12q-26 -49 -71 -107l-52 -51q-24 -25 -92 -70q-39 -30 -63 -32
q-14 -11 -23 -2q-24 2 -28 2q-23 2 -54 32q-43 41 -45 41q-16 13 -34 47q-9 46 -9 76q-14 15 -10 41q0 51 4 60q0 24 4 73q11 92 45 119q15 19 56 49q20 2 51 8l24 -4q17 -2 31 -34.5t10 -55.5l-6 -39q-2 -43 -6 -69q-6 -35 -6 -29q-4 -45 -2 -90q0 -10 6 -96q2 -19 14 -58
q4 -2 13 -2q20 0 73 43q39 33 54 49q53 62 94 125q18 29 29 29q2 0 4 -1t4 -7zM232 -157v-41q0 -16 -26 -41.5t-40 -25.5q-57 0 -45 2q-21 0 -48.5 32.5t-27.5 57.5q0 2 4 7t4 11q4 33 32 63t58 30q9 0 47.5 -20.5t38.5 -30t3 -23.5v-21z" />
    <glyph glyph-name="ograve" unicode="&#xf2;" 
d="M649 313q-27 -104 -119 -202q-26 -29 -86 -88q-63 -37 -106 -37q-117 0 -240 137q-16 55 -43 129q2 10 -4 27q4 55 29 116q18 51 16 66q0 2 5 11t5 13q13 95 129 131q9 2 15 8.5t39 6.5q2 2 28 2q21 0 36 -23.5t15 -40.5q0 -14 -12 -48t-12 -40v-24q10 -4 8 -4h16
q13 -2 19 -2q8 0 37 6q24 4 47 0q51 -8 121 -33l34 -37q19 0 23 -74zM518 248v16q0 33 -80 75t-123 42h-14q-21 -14 -62 -33q-4 -22 -16 -43.5t-12 -37t-2 -20.5t-2 -7q0 -9 4 -27t4 -31.5t7 -33t7 -27.5q8 -25 42 -48.5t61 -23.5q43 0 102 60q53 55 63 94q21 37 21 45z
M573 745q0 -6 -4 -6q-6 4 -39 19l-20 8q-17 8 -13 14q-51 31 -161 82q-21 15 -66 29q-41 2 -67.5 24.5t-26.5 55.5v26q0 17 25.5 43.5t41 28.5t23.5 2q49 0 75.5 -43t78.5 -98l84.5 -94.5l33.5 -36.5q35 -31 35 -54z" />
    <glyph glyph-name="oacute" unicode="&#xf3;" 
d="M649 313q-27 -104 -119 -202q-26 -29 -86 -88q-63 -37 -106 -37q-117 0 -240 137q-16 55 -43 129q2 10 -4 27q4 55 29 116q18 51 16 66q0 2 5 11t5 13q13 95 129 131q9 2 15 8.5t39 6.5q2 2 28 2q21 0 36 -23.5t15 -40.5q0 -14 -12 -48t-12 -40v-24q10 -4 8 -4h16
q13 -2 19 -2q8 0 37 6q24 4 47 0q51 -8 121 -33l34 -37q19 0 23 -74zM518 248v16q0 33 -80 75t-123 42h-14q-21 -14 -62 -33q-4 -22 -16 -43.5t-12 -37t-2 -20.5t-2 -7q0 -9 4 -27t4 -31.5t7 -33t7 -27.5q8 -25 42 -48.5t61 -23.5q43 0 102 60q53 55 63 94q21 37 21 45z
M530 979q0 -49 -28 -66q-7 -8 -23 -20l-141 -78q-29 -18 -72 -27q-16 -6 -53 -16q-4 0 -12 -6q-9 -4 -13 0q-12 -10 -28 -14q-7 0 -13 2q47 43 86 84q94 94 127 151q0 2 6 29q2 8 27 24.5t35 18.5q31 6 61.5 -14.5t36.5 -49.5q4 -4 4 -18z" />
    <glyph glyph-name="uni1ECF" unicode="&#x1ecf;" 
d="M649 313q-27 -104 -119 -202q-26 -29 -86 -88q-63 -37 -106 -37q-117 0 -240 137q-16 55 -43 129q2 10 -4 27q4 55 29 116q18 51 16 66q0 2 5 11t5 13q13 95 129 131q9 2 15 8.5t39 6.5q2 2 28 2q21 0 36 -23.5t15 -40.5q0 -14 -12 -48t-12 -40v-24q10 -4 8 -4h16
q13 -2 19 -2q8 0 37 6q24 4 47 0q51 -8 121 -33l34 -37q19 0 23 -74zM518 248v16q0 33 -80 75t-123 42h-14q-21 -14 -62 -33q-4 -22 -16 -43.5t-12 -37t-2 -20.5t-2 -7q0 -9 4 -27t4 -31.5t7 -33t7 -27.5q8 -25 42 -48.5t61 -23.5q43 0 102 60q53 55 63 94q21 37 21 45z
M736 1017q0 -39 -55 -111q-20 -39 -74 -95q-51 -42 -59 -50q-33 -29 -47 -47q23 -4 23 -27q0 -10 -14 -38q-7 -1 -23 -7.5t-25 -6.5q-24 0 -31 13q-5 9 -5 35q0 30 74 115q98 112 100 115q9 14 27 49q21 40 22 50q-1 3 -12 3q-83 -21 -121 -44q-64 -35 -81 -95
q-15 -50 -55 -50q-50 0 -69 65q-2 52 64 95q29 4 137 41q97 33 141 32q36 -1 52 -8q23 -9 31 -34z" />
    <glyph glyph-name="otilde" unicode="&#xf5;" 
d="M649 313q-27 -104 -119 -202q-26 -29 -86 -88q-63 -37 -106 -37q-117 0 -240 137q-16 55 -43 129q2 10 -4 27q4 55 29 116q18 51 16 66q0 2 5 11t5 13q13 95 129 131q9 2 15 8.5t39 6.5q2 2 28 2q21 0 36 -23.5t15 -40.5q0 -14 -12 -48t-12 -40v-24q10 -4 8 -4h16
q13 -2 19 -2q8 0 37 6q24 4 47 0q51 -8 121 -33l34 -37q19 0 23 -74zM518 248v16q0 33 -80 75t-123 42h-14q-21 -14 -62 -33q-4 -22 -16 -43.5t-12 -37t-2 -20.5t-2 -7q0 -9 4 -27t4 -31.5t7 -33t7 -27.5q8 -25 42 -48.5t61 -23.5q43 0 102 60q53 55 63 94q21 37 21 45z
M622 942q0 -12 -112 -125q-49 -18 -68 -18h-22q-29 0 -88.5 37.5t-63.5 37.5q-8 0 -32.5 -18t-41.5 -18q-55 0 -55 53q0 37 84 78q51 22 90 32h21q39 0 63.5 -37.5l24.5 -37.5q35 26 118 67q9 2 23 2q23 0 41 -16t18 -37z" />
    <glyph glyph-name="uni1ECD" unicode="&#x1ecd;" 
d="M649 313q-27 -104 -119 -202q-26 -29 -86 -88q-63 -37 -106 -37q-117 0 -240 137q-16 55 -43 129q2 10 -4 27q4 55 29 116q18 51 16 66q0 2 5 11t5 13q13 95 129 131q9 2 15 8.5t39 6.5q2 2 28 2q21 0 36 -23.5t15 -40.5q0 -14 -12 -48t-12 -40v-24q10 -4 8 -4h16
q13 -2 19 -2q8 0 37 6q24 4 47 0q51 -8 121 -33l34 -37q19 0 23 -74zM518 248v16q0 33 -80 75t-123 42h-14q-21 -14 -62 -33q-4 -22 -16 -43.5t-12 -37t-2 -20.5t-2 -7q0 -9 4 -27t4 -31.5t7 -33t7 -27.5q8 -25 42 -48.5t61 -23.5q43 0 102 60q53 55 63 94q21 37 21 45z
M428 -157v-41q0 -16 -25.5 -41.5t-39.5 -25.5q-58 0 -45 2q-21 0 -48.5 32.5t-27.5 57.5q0 2 4 7t4 11q4 33 31.5 63t58.5 30q8 0 47 -20.5t39 -30t2 -23.5v-21z" />
    <glyph glyph-name="ocircumflex" unicode="&#xf4;" 
d="M649 313q-27 -104 -119 -202q-26 -29 -86 -88q-63 -37 -106 -37q-117 0 -240 137q-16 55 -43 129q2 10 -4 27q4 55 29 116q18 51 16 66q0 2 5 11t5 13q13 95 129 131q9 2 15 8.5t39 6.5q2 2 28 2q21 0 36 -23.5t15 -40.5q0 -14 -12 -48t-12 -40v-24q10 -4 8 -4h16
q13 -2 19 -2q8 0 37 6q24 4 47 0q51 -8 121 -33l34 -37q19 0 23 -74zM518 248v16q0 33 -80 75t-123 42h-14q-21 -14 -62 -33q-4 -22 -16 -43.5t-12 -37t-2 -20.5t-2 -7q0 -9 4 -27t4 -31.5t7 -33t7 -27.5q8 -25 42 -48.5t61 -23.5q43 0 102 60q53 55 63 94q21 37 21 45z
M596 655q2 -8 -17 -11q-30 -2 -110 54l-94 67l-78 -49q-58 -45 -107 -47q-20 -10 -43 -10q-6 0 -16 -6q-4 -2 -14 2q12 16 30 43q8 2 9 7t4 3q67 57 92 109q2 16 12 47q14 24 57 28q60 6 103 -43q12 -16 39 -49q59 -61 133 -145z" />
    <glyph glyph-name="uni1ED3" unicode="&#x1ed3;" 
d="M649 313q-27 -104 -119 -202q-26 -29 -86 -88q-63 -37 -106 -37q-117 0 -240 137q-16 55 -43 129q2 10 -4 27q4 55 29 116q18 51 16 66q0 2 5 11t5 13q13 95 129 131q9 2 15 8.5t39 6.5q2 2 28 2q21 0 36 -23.5t15 -40.5q0 -14 -12 -48t-12 -40v-24q10 -4 8 -4h16
q13 -2 19 -2q8 0 37 6q24 4 47 0q51 -8 121 -33l34 -37q19 0 23 -74zM518 248v16q0 33 -80 75t-123 42h-14q-21 -14 -62 -33q-4 -22 -16 -43.5t-12 -37t-2 -20.5t-2 -7q0 -9 4 -27t4 -31.5t7 -33t7 -27.5q8 -25 42 -48.5t61 -23.5q43 0 102 60q53 55 63 94q21 37 21 45z
M594 696q2 -8 -17 -11q-30 -2 -110 54l-94 67l-78 -49q-58 -45 -107 -47q-20 -10 -43 -10q-6 0 -16 -6q-4 -2 -15 2q13 16 31 43q8 2 9 7t3 3q68 57 93 109q2 16 12 47q14 24 57 28q60 6 103 -43q12 -16 39 -49q59 -61 133 -145zM576 909q0 -6 -4 -6q-6 4 -39 19l-20 8
q-17 8 -13 14q-51 31 -161 82q-21 15 -66 29q-41 2 -67.5 24.5t-26.5 55.5v26q0 17 25.5 43.5t41 28.5t23.5 2q49 0 75.5 -43t78.5 -98l84.5 -94.5l33.5 -36.5q35 -31 35 -54z" />
    <glyph glyph-name="uni1ED1" unicode="&#x1ed1;" 
d="M649 313q-27 -104 -119 -202q-26 -29 -86 -88q-63 -37 -106 -37q-117 0 -240 137q-16 55 -43 129q2 10 -4 27q4 55 29 116q18 51 16 66q0 2 5 11t5 13q13 95 129 131q9 2 15 8.5t39 6.5q2 2 28 2q21 0 36 -23.5t15 -40.5q0 -14 -12 -48t-12 -40v-24q10 -4 8 -4h16
q13 -2 19 -2q8 0 37 6q24 4 47 0q51 -8 121 -33l34 -37q19 0 23 -74zM518 248v16q0 33 -80 75t-123 42h-14q-21 -14 -62 -33q-4 -22 -16 -43.5t-12 -37t-2 -20.5t-2 -7q0 -9 4 -27t4 -31.5t7 -33t7 -27.5q8 -25 42 -48.5t61 -23.5q43 0 102 60q53 55 63 94q21 37 21 45z
M594 696q2 -8 -17 -11q-30 -2 -110 54l-94 67l-78 -49q-58 -45 -107 -47q-20 -10 -43 -10q-6 0 -16 -6q-4 -2 -15 2q13 16 31 43q8 2 9 7t3 3q68 57 93 109q2 16 12 47q14 24 57 28q60 6 103 -43q12 -16 39 -49q59 -61 133 -145zM513 963l33.5 36.5l85.5 94.5q51 55 77.5 98
t75.5 43q8 0 23.5 -2t41 -28.5t25.5 -43.5v-26q0 -33 -26.5 -55.5t-67.5 -24.5q-45 -14 -65 -29q-111 -51 -162 -82q4 -6 -13 -14l-20 -8q-33 -15 -39 -19q-4 0 -4 6q0 23 35 54z" />
    <glyph glyph-name="uni1ED5" unicode="&#x1ed5;" 
d="M649 313q-27 -104 -119 -202q-26 -29 -86 -88q-63 -37 -106 -37q-117 0 -240 137q-16 55 -43 129q2 10 -4 27q4 55 29 116q18 51 16 66q0 2 5 11t5 13q13 95 129 131q9 2 15 8.5t39 6.5q2 2 28 2q21 0 36 -23.5t15 -40.5q0 -14 -12 -48t-12 -40v-24q10 -4 8 -4h16
q13 -2 19 -2q8 0 37 6q24 4 47 0q51 -8 121 -33l34 -37q19 0 23 -74zM518 248v16q0 33 -80 75t-123 42h-14q-21 -14 -62 -33q-4 -22 -16 -43.5t-12 -37t-2 -20.5t-2 -7q0 -9 4 -27t4 -31.5t7 -33t7 -27.5q8 -25 42 -48.5t61 -23.5q43 0 102 60q53 55 63 94q21 37 21 45z
M596 655q2 -8 -17 -11q-30 -2 -110 54l-94 67l-78 -49q-58 -45 -107 -47q-20 -10 -43 -10q-6 0 -16 -6q-4 -2 -14 2q12 16 30 43q8 2 9 7t4 3q67 57 92 109q2 16 12 47q14 24 57 28q60 6 103 -43q12 -16 39 -49q59 -61 133 -145zM787 1212q0 -39 -55 -111q-20 -39 -74 -95
q-51 -42 -59 -50q-33 -29 -47 -47q23 -4 23 -27q0 -10 -14 -38q-7 -1 -23 -7.5t-25 -6.5q-24 0 -31 13q-5 9 -5 35q0 30 74 115q98 112 100 115q9 14 27 49q21 40 22 50q-1 3 -12 3q-83 -21 -121 -44q-64 -35 -81 -95q-15 -50 -55 -50q-50 0 -69 65q-2 52 64 95q29 4 137 41
q97 33 141 32q36 -1 52 -8q23 -9 31 -34z" />
    <glyph glyph-name="uni1ED7" unicode="&#x1ed7;" 
d="M649 313q-27 -104 -119 -202q-26 -29 -86 -88q-63 -37 -106 -37q-117 0 -240 137q-16 55 -43 129q2 10 -4 27q4 55 29 116q18 51 16 66q0 2 5 11t5 13q13 95 129 131q9 2 15 8.5t39 6.5q2 2 28 2q21 0 36 -23.5t15 -40.5q0 -14 -12 -48t-12 -40v-24q10 -4 8 -4h16
q13 -2 19 -2q8 0 37 6q24 4 47 0q51 -8 121 -33l34 -37q19 0 23 -74zM518 248v16q0 33 -80 75t-123 42h-14q-21 -14 -62 -33q-4 -22 -16 -43.5t-12 -37t-2 -20.5t-2 -7q0 -9 4 -27t4 -31.5t7 -33t7 -27.5q8 -25 42 -48.5t61 -23.5q43 0 102 60q53 55 63 94q21 37 21 45z
M596 655q2 -8 -17 -11q-30 -2 -110 54l-94 67l-78 -49q-58 -45 -107 -47q-20 -10 -43 -10q-6 0 -16 -6q-4 -2 -14 2q12 16 30 43q8 2 9 7t4 3q67 57 92 109q2 16 12 47q14 24 57 28q60 6 103 -43q12 -16 39 -49q59 -61 133 -145zM879 1024q0 -12 -112 -125q-49 -18 -68 -18
h-22q-29 0 -88.5 37.5t-63.5 37.5q-8 0 -32.5 -18t-41.5 -18q-55 0 -55 53q0 37 84 78q51 22 90 32h21q38 0 63 -37.5l25 -37.5q34 26 118 67q9 2 23 2q22 0 40.5 -16t18.5 -37z" />
    <glyph glyph-name="uni1ED9" unicode="&#x1ed9;" 
d="M649 313q-27 -104 -119 -202q-26 -29 -86 -88q-63 -37 -106 -37q-117 0 -240 137q-16 55 -43 129q2 10 -4 27q4 55 29 116q18 51 16 66q0 2 5 11t5 13q13 95 129 131q9 2 15 8.5t39 6.5q2 2 28 2q21 0 36 -23.5t15 -40.5q0 -14 -12 -48t-12 -40v-24q10 -4 8 -4h16
q13 -2 19 -2q8 0 37 6q24 4 47 0q51 -8 121 -33l34 -37q19 0 23 -74zM518 248v16q0 33 -80 75t-123 42h-14q-21 -14 -62 -33q-4 -22 -16 -43.5t-12 -37t-2 -20.5t-2 -7q0 -9 4 -27t4 -31.5t7 -33t7 -27.5q8 -25 42 -48.5t61 -23.5q43 0 102 60q53 55 63 94q21 37 21 45z
M428 -157v-41q0 -16 -25.5 -41.5t-39.5 -25.5q-58 0 -45 2q-21 0 -48.5 32.5t-27.5 57.5q0 2 4 7t4 11q4 33 31.5 63t58.5 30q8 0 47 -20.5t39 -30t2 -23.5v-21zM596 655q2 -8 -17 -11q-30 -2 -110 54l-94 67l-78 -49q-58 -45 -107 -47q-20 -10 -43 -10q-6 0 -16 -6
q-4 -2 -14 2q12 16 30 43q8 2 9 7t4 3q67 57 92 109q2 16 12 47q14 24 57 28q60 6 103 -43q12 -16 39 -49q59 -61 133 -145z" />
    <glyph glyph-name="glyph216" unicode="&#xf9;" 
d="M866 225q-9 -8 -19 -24q0 -4 -22 -29q-2 4 -9 -8q-10 -21 -14 -25q-63 -71 -172 -145q-12 -4 -39 -4q-6 4 -22 10q-41 10 -77 51t-36 82q0 55 -16 72l-93 -113q-26 -33 -108 -102q-35 -15 -55 -13q-15 3 -35 17q-27 20 -29 22q-65 58 -70 224q7 8 2 20l9 92q12 68 -11 97
q-18 61 -6 67q13 6 21 22.5t24 18.5q15 12 33 37q25 16 78 39q14 -2 39 2q16 -6 43 -17q37 -6 43 -10q20 -16 29 -24q0 -27 10 -43l-4 -33q-2 -14 -43 -53q-25 -21 -47.5 -43.5t-47.5 -55.5q-34 -47 -38 -151q-5 -133 18 -139q43 -21 131 135q31 71 102 198q35 52 105 43
q33 0 39 -15t4 -36q0 -2 2 -12v-12q0 -17 2 -19l-2 -22q2 -25 -2 -74q0 -29 8 -100q10 -97 25 -101q20 -6 114 80q88 82 90.5 95.5t34.5 17.5q8 -6 5 -8.5t6 -10.5zM548 745q0 -6 -4 -6q-6 4 -39 19l-20 8q-17 8 -13 14q-51 31 -161 82q-21 15 -66 29q-41 2 -67.5 24.5
t-26.5 55.5v26q0 17 25.5 43.5t41 28.5t23.5 2q49 0 75.5 -43t77.5 -98l85.5 -94.5l33.5 -36.5q35 -31 35 -54z" />
    <glyph glyph-name="glyph217" unicode="&#xfa;" 
d="M866 225q-9 -8 -19 -24q0 -4 -22 -29q-2 4 -9 -8q-10 -21 -14 -25q-63 -71 -172 -145q-12 -4 -39 -4q-6 4 -22 10q-41 10 -77 51t-36 82q0 55 -16 72l-93 -113q-26 -33 -108 -102q-35 -15 -55 -13q-15 3 -35 17q-27 20 -29 22q-65 58 -70 224q7 8 2 20l9 92q12 68 -11 97
q-18 61 -6 67q13 6 21 22.5t24 18.5q15 12 33 37q25 16 78 39q14 -2 39 2q16 -6 43 -17q37 -6 43 -10q20 -16 29 -24q0 -27 10 -43l-4 -33q-2 -14 -43 -53q-25 -21 -47.5 -43.5t-47.5 -55.5q-34 -47 -38 -151q-5 -133 18 -139q43 -21 131 135q31 71 102 198q35 52 105 43
q33 0 39 -15t4 -36q0 -2 2 -12v-12q0 -17 2 -19l-2 -22q2 -25 -2 -74q0 -29 8 -100q10 -97 25 -101q20 -6 114 80q88 82 90.5 95.5t34.5 17.5q8 -6 5 -8.5t6 -10.5zM562 979q0 -49 -28 -66q-6 -8 -23 -20l-141 -78q-29 -18 -72 -27q-16 -6 -53 -16q-4 0 -12 -6q-8 -4 -13 0
q-12 -10 -28 -14q-6 0 -13 2q48 43 86 84q95 94 127 151q0 2 7 29q2 8 26.5 24.5t34.5 18.5q31 6 61.5 -14.5t36.5 -49.5q4 -4 4 -18z" />
    <glyph glyph-name="uni1EE7" unicode="&#x1ee7;" horiz-adv-x="829" 
d="M952 76q0 -6 -10.5 -26.5t-40.5 -61.5q-7 -2 -11 -8q-2 -3 -4 0q-22 -21 -59 -21q-2 0 -11.5 -3t-13.5 -1q-6 4 -41 4q-20 0 -76 33q-47 26 -57 37q-18 28 -43 57q-39 115 -59 223q-4 -2 -37 -63q-19 0 -39 -60l-53 -80q4 0 -4 3q-2 -7 -2 -23q-11 0 -26 -28.5t-91 -45.5
q-62 8 -124.5 70.5t-62.5 128.5q0 47 -5 140t-5 141q0 4 -5 11t-5 15q0 -2 14 31q78 67 117 67q41 0 66 -30q8 -23 22 -68q-6 -6 -4 -33v-69q0 -6 -5 -26.5t-5 -31.5v-84q0 -98 4 -122q4 -17 12 -56q6 -2 4 -2q23 0 88 107q82 137 84 139q13 25 41 72q72 71 125 71
q39 0 63.5 -36.5t24.5 -75.5t6 -109q21 -63 39 -129q45 -123 78 -123q23 0 55 31q23 22 45 47q13 -4 11 -4v-8zM736 1017q0 -39 -55 -111q-20 -39 -74 -95q-51 -42 -60 -50q-33 -29 -46 -47q23 -4 23 -27q0 -10 -15 -38q-6 -1 -22 -7.5t-25 -6.5q-25 0 -31 13q-5 9 -5 35
q0 30 74 115q98 112 100 115q9 14 27 49q20 40 21 50q-1 3 -11 3q-84 -21 -122 -44q-63 -35 -80 -95q-15 -50 -55 -50q-50 0 -69 65q-2 52 63 95q29 4 137 41q98 33 141 32q36 -1 53 -8q22 -9 31 -34z" />
    <glyph glyph-name="utilde" unicode="&#x169;" horiz-adv-x="829" 
d="M952 76q0 -6 -10.5 -26.5t-40.5 -61.5q-7 -2 -11 -8q-2 -3 -4 0q-22 -21 -59 -21q-2 0 -11.5 -3t-13.5 -1q-6 4 -41 4q-20 0 -76 33q-47 26 -57 37q-18 28 -43 57q-39 115 -59 223q-4 -2 -37 -63q-19 0 -39 -60l-53 -80q4 0 -4 3q-2 -7 -2 -23q-11 0 -26 -28.5t-91 -45.5
q-62 8 -124.5 70.5t-62.5 128.5q0 47 -5 140t-5 141q0 4 -5 11t-5 15q0 -2 14 31q78 67 117 67q41 0 66 -30q8 -23 22 -68q-6 -6 -4 -33v-69q0 -6 -5 -26.5t-5 -31.5v-84q0 -98 4 -122q4 -17 12 -56q6 -2 4 -2q23 0 88 107q82 137 84 139q13 25 41 72q72 71 125 71
q39 0 63.5 -36.5t24.5 -75.5t6 -109q21 -63 39 -129q45 -123 78 -123q23 0 55 31q23 22 45 47q13 -4 11 -4v-8zM712 942q0 -12 -113 -125q-49 -18 -67 -18h-23q-28 0 -87.5 37.5t-63.5 37.5q-8 0 -33 -18t-41 -18q-55 0 -55 53q0 37 84 78q51 22 90 32h20q39 0 63.5 -37.5
l24.5 -37.5q35 26 119 67q8 2 23 2q22 0 40.5 -16t18.5 -37z" />
    <glyph glyph-name="uni1EE5" unicode="&#x1ee5;" horiz-adv-x="829" 
d="M952 76q0 -6 -10.5 -26.5t-40.5 -61.5q-7 -2 -11 -8q-2 -3 -4 0q-22 -21 -59 -21q-2 0 -11.5 -3t-13.5 -1q-6 4 -41 4q-20 0 -76 33q-47 26 -57 37q-18 28 -43 57q-39 115 -59 223q-4 -2 -37 -63q-19 0 -39 -60l-53 -80q4 0 -4 3q-2 -7 -2 -23q-11 0 -26 -28.5t-91 -45.5
q-62 8 -124.5 70.5t-62.5 128.5q0 47 -5 140t-5 141q0 4 -5 11t-5 15q0 -2 14 31q78 67 117 67q41 0 66 -30q8 -23 22 -68q-6 -6 -4 -33v-69q0 -6 -5 -26.5t-5 -31.5v-84q0 -98 4 -122q4 -17 12 -56q6 -2 4 -2q23 0 88 107q82 137 84 139q13 25 41 72q72 71 125 71
q39 0 63.5 -36.5t24.5 -75.5t6 -109q21 -63 39 -129q45 -123 78 -123q23 0 55 31q23 22 45 47q13 -4 11 -4v-8zM572 -157v-41q0 -16 -25.5 -41.5t-40.5 -25.5q-57 0 -45 2q-20 0 -48 32.5t-28 57.5q0 2 4.5 7t4.5 11q4 33 31.5 63t58.5 30q8 0 47 -20.5t39 -30t2 -23.5v-21z
" />
    <glyph glyph-name="uhorn" unicode="&#x1b0;" horiz-adv-x="829" 
d="M952 76q0 -6 -10.5 -26.5t-40.5 -61.5q-7 -2 -11 -8q-2 -3 -4 0q-22 -21 -59 -21q-2 0 -11.5 -3t-13.5 -1q-6 4 -41 4q-20 0 -76 33q-47 26 -57 37q-18 28 -43 57q-39 115 -59 223q-4 -2 -37 -63q-19 0 -39 -60l-53 -80q4 0 -4 3q-2 -7 -2 -23q-11 0 -26 -28.5t-91 -45.5
q-62 8 -124.5 70.5t-62.5 128.5q0 47 -5 140t-5 141q0 4 -5 11t-5 15q0 -2 14 31q78 67 117 67q41 0 66 -30q8 -23 22 -68q-6 -6 -4 -33v-69q0 -6 -5 -26.5t-5 -31.5v-84q0 -98 4 -122q4 -17 12 -56q6 -2 4 -2q23 0 88 107q82 137 84 139q13 25 41 72q72 71 125 71
q39 0 63.5 -36.5t24.5 -75.5t6 -109q21 -63 39 -129q45 -123 78 -123q23 0 55 31q23 22 45 47q13 -4 11 -4v-8zM894 678q0 -5 -4.5 -15.5t-4.5 -16.5q-17 -79 -79 -146q-2 -2 -5 -3t-9.5 -10.5t-9.5 -12.5t-9 -14l-2 2q-50 -67 -89 -94v6q0 11 16 44q47 92 63 184q1 9 0 42
q-2 21 -40.5 46t-38.5 50q0 48 45 73q35 21 73 21q88 0 94 -104q1 -32 -2 -46q2 -2 2 -4v-2z" />
    <glyph glyph-name="uni1EEB" unicode="&#x1eeb;" 
d="M866 225q-9 -8 -19 -24q0 -4 -22 -29q-2 4 -9 -8q-10 -21 -14 -25q-63 -71 -172 -145q-12 -4 -39 -4q-6 4 -22 10q-41 10 -77 51t-36 82q0 55 -16 72l-93 -113q-26 -33 -108 -102q-35 -15 -55 -13q-15 3 -35 17q-27 20 -29 22q-65 58 -70 224q7 8 2 20l9 92q12 68 -11 97
q-18 61 -6 67q13 6 21 22.5t24 18.5q15 12 33 37q25 16 78 39q14 -2 39 2q16 -6 43 -17q37 -6 43 -10q20 -16 29 -24q0 -27 10 -43l-4 -33q-2 -14 -43 -53q-25 -21 -47.5 -43.5t-47.5 -55.5q-34 -47 -38 -151q-5 -133 18 -139q43 -21 131 135q31 71 102 198q35 52 105 43
q33 0 39 -15t4 -36q0 -2 2 -12v-12q0 -17 2 -19l-2 -22q2 -25 -2 -74q0 -29 8 -100q10 -97 25 -101q20 -6 114 80q88 82 90.5 95.5t34.5 17.5q8 -6 5 -8.5t6 -10.5zM548 745q0 -6 -4 -6q-6 4 -39 19l-20 8q-17 8 -13 14q-51 31 -161 82q-21 15 -66 29q-41 2 -67.5 24.5
t-26.5 55.5v26q0 17 25.5 43.5t41 28.5t23.5 2q49 0 75.5 -43t77.5 -98l85.5 -94.5l33.5 -36.5q35 -31 35 -54zM812 678q0 -5 -4.5 -15.5t-4.5 -16.5q-17 -79 -79 -146q-2 -2 -5 -3t-9.5 -10.5t-10 -12.5t-9.5 -14l-1 2q-50 -67 -89 -94v6q0 11 16 44q47 92 62 184q2 9 0 42
q-1 21 -39.5 46t-38.5 50q0 48 45 73q35 21 73 21q88 0 94 -104q1 -32 -2 -46q2 -2 2 -4v-2z" />
    <glyph glyph-name="uni1EE9" unicode="&#x1ee9;" 
d="M866 225q-9 -8 -19 -24q0 -4 -22 -29q-2 4 -9 -8q-10 -21 -14 -25q-63 -71 -172 -145q-12 -4 -39 -4q-6 4 -22 10q-41 10 -77 51t-36 82q0 55 -16 72l-93 -113q-26 -33 -108 -102q-35 -15 -55 -13q-15 3 -35 17q-27 20 -29 22q-65 58 -70 224q7 8 2 20l9 92q12 68 -11 97
q-18 61 -6 67q13 6 21 22.5t24 18.5q15 12 33 37q25 16 78 39q14 -2 39 2q16 -6 43 -17q37 -6 43 -10q20 -16 29 -24q0 -27 10 -43l-4 -33q-2 -14 -43 -53q-25 -21 -47.5 -43.5t-47.5 -55.5q-34 -47 -38 -151q-5 -133 18 -139q43 -21 131 135q31 71 102 198q35 52 105 43
q33 0 39 -15t4 -36q0 -2 2 -12v-12q0 -17 2 -19l-2 -22q2 -25 -2 -74q0 -29 8 -100q10 -97 25 -101q20 -6 114 80q88 82 90.5 95.5t34.5 17.5q8 -6 5 -8.5t6 -10.5zM562 979q0 -49 -28 -66q-6 -8 -23 -20l-141 -78q-29 -18 -72 -27q-16 -6 -53 -16q-4 0 -12 -6q-8 -4 -13 0
q-12 -10 -28 -14q-6 0 -13 2q48 43 86 84q95 94 127 151q0 2 7 29q2 8 26.5 24.5t34.5 18.5q31 6 61.5 -14.5t36.5 -49.5q4 -4 4 -18zM812 678q0 -5 -4.5 -15.5t-4.5 -16.5q-17 -79 -79 -146q-2 -2 -5 -3t-9.5 -10.5t-10 -12.5t-9.5 -14l-1 2q-50 -67 -89 -94v6q0 11 16 44
q47 92 62 184q2 9 0 42q-1 21 -39.5 46t-38.5 50q0 48 45 73q35 21 73 21q88 0 94 -104q1 -32 -2 -46q2 -2 2 -4v-2z" />
    </font>
</defs>
</svg>
